<svg width="64" height="65" viewBox="0 0 64 65" fill="none" xmlns="http://www.w3.org/2000/svg">
<path d="M31.9999 5.7876C46.7199 5.7876 58.6666 17.7343 58.6666 32.4543C58.6666 47.1743 46.7199 59.1209 31.9999 59.1209C17.2799 59.1209 5.33325 47.1743 5.33325 32.4543C5.33325 17.7343 17.2799 5.7876 31.9999 5.7876ZM31.9999 53.7876C43.7866 53.7876 53.3332 44.2409 53.3332 32.4543C53.3332 20.6676 43.7866 11.1209 31.9999 11.1209C20.2133 11.1209 10.6666 20.6676 10.6666 32.4543C10.6666 44.2409 20.2133 53.7876 31.9999 53.7876ZM31.9999 29.7876H42.6666V35.1209H31.9999V43.1209L21.3333 32.4543L31.9999 21.7876V29.7876Z" fill="#4E148C"/>
</svg>
