<svg width="280" height="77" viewBox="0 0 280 77" fill="none" xmlns="http://www.w3.org/2000/svg">
<path d="M16.2272 31.3353C16.2271 26.8728 31.7145 7.18553 48.2518 27.9228C61.6783 44.7591 4.41478 31.3354 23.3146 51.2852C38.4345 67.2451 56.6518 52.3352 55.6018 41.3103" stroke="#5863F8" stroke-width="1.57499" stroke-linecap="round"/>
<circle cx="15.4397" cy="35.0102" r="1.31249" fill="#4E148C"/>
<circle cx="55.3393" cy="37.6352" r="1.31249" fill="#4E148C"/>
<path d="M54.5518 31.2092C54.5518 26.7467 39.0645 7.05944 22.5271 27.7967C9.10066 44.633 66.3642 31.2093 47.4643 51.1591C32.3445 67.119 14.1271 52.2091 15.1771 41.1842" stroke="#5863F8" stroke-width="1.57499" stroke-linecap="round"/>
<circle cx="1.31249" cy="1.31249" r="1.31249" transform="matrix(-1 0 0 1 56.6518 33.0466)" fill="#4E148C"/>
<circle cx="1.31249" cy="1.31249" r="1.31249" transform="matrix(-1 0 0 1 16.7521 36.7216)" fill="#4E148C"/>
<path d="M88.4262 56.4418H82.1393C81.6222 56.4418 81.2412 56.3194 80.9963 56.0744C80.7785 55.8567 80.6697 55.4893 80.6697 54.9722V52.7269C77.5126 52.2642 75.3762 51.3253 74.2604 49.91C73.1717 48.4676 72.6274 46.7258 72.6274 44.6846V31.1312C72.6274 29.8793 72.8043 28.7498 73.1581 27.7428C73.5391 26.7086 74.1923 25.8241 75.1177 25.0893C76.0702 24.3545 77.3766 23.7829 79.0367 23.3747C80.6969 22.9665 82.7925 22.7623 85.3236 22.7623C87.8546 22.7623 89.9366 22.9665 91.5696 23.3747C93.2297 23.7829 94.5225 24.3545 95.4478 25.0893C96.4004 25.8241 97.0535 26.7086 97.4074 27.7428C97.7884 28.7498 97.9789 29.8793 97.9789 31.1312V44.6846C97.9789 45.7188 97.8564 46.685 97.6115 47.5831C97.3665 48.454 96.9447 49.2297 96.3459 49.91C95.7472 50.5904 94.9171 51.1756 93.8557 51.6655C92.8215 52.1553 91.5015 52.5092 89.8958 52.7269V54.9722C89.8958 55.4893 89.7733 55.8567 89.5284 56.0744C89.3107 56.3194 88.9433 56.4418 88.4262 56.4418ZM85.0378 52.7677H85.446V49.6243C88.5486 49.5971 90.6715 49.08 91.8145 48.073C92.9576 47.066 93.5291 45.746 93.5291 44.1131V32.0701C93.5291 30.4372 92.944 29.1172 91.7737 28.1102C90.6034 27.076 88.4262 26.5589 85.2419 26.5589C82.0577 26.5589 79.894 27.076 78.751 28.1102C77.6079 29.1172 77.0364 30.4372 77.0364 32.0701V44.1131C77.0364 45.746 77.5943 47.066 78.7101 48.073C79.826 49.08 81.9352 49.5971 85.0378 49.6243V52.7677ZM77.4446 44.1131V32.0701C77.4446 30.546 77.9889 29.3213 79.0775 28.396C80.1662 27.4434 82.221 26.9672 85.2419 26.9672C88.2629 26.9672 90.3313 27.4434 91.4471 28.396C92.563 29.3213 93.1209 30.546 93.1209 32.0701V44.1131C93.1209 45.6372 92.563 46.8755 91.4471 47.828C90.3313 48.7534 88.2629 49.216 85.2419 49.216C82.221 49.216 80.1662 48.7534 79.0775 47.828C77.9889 46.8755 77.4446 45.6372 77.4446 44.1131ZM81.8944 43.7865C81.8944 44.3308 82.0985 44.7935 82.5067 45.1745C82.915 45.5283 83.8539 45.7052 85.3236 45.7052C86.7932 45.7052 87.7322 45.5283 88.1404 45.1745C88.5486 44.7935 88.7527 44.3308 88.7527 43.7865V32.6417C88.7527 32.1246 88.5486 31.6891 88.1404 31.3353C87.7322 30.9543 86.7932 30.7638 85.3236 30.7638C83.8539 30.7638 82.915 30.9543 82.5067 31.3353C82.0985 31.6891 81.8944 32.1246 81.8944 32.6417V43.7865ZM128.201 45.052C128.201 46.304 128.01 47.447 127.629 48.4812C127.275 49.4882 126.622 50.3591 125.67 51.0939C124.744 51.8015 123.465 52.3595 121.832 52.7677C120.199 53.1759 118.117 53.3801 115.586 53.3801C113.055 53.3801 110.973 53.1759 109.34 52.7677C107.707 52.3595 106.415 51.8015 105.462 51.0939C104.537 50.3591 103.884 49.4882 103.503 48.4812C103.149 47.447 102.972 46.304 102.972 45.052V24.8443C102.972 24.3272 103.081 23.9598 103.298 23.7421C103.543 23.4972 103.924 23.3747 104.441 23.3747H110.851C111.368 23.3747 111.735 23.4972 111.953 23.7421C112.198 23.9598 112.32 24.3272 112.32 24.8443V43.4599C112.32 44.0042 112.525 44.4669 112.933 44.8479C113.341 45.2017 114.253 45.3786 115.668 45.3786C117.11 45.3786 118.036 45.2017 118.444 44.8479C118.852 44.4669 119.056 44.0042 119.056 43.4599V24.8443C119.056 24.3272 119.165 23.9598 119.383 23.7421C119.628 23.4972 120.009 23.3747 120.526 23.3747H126.731C127.248 23.3747 127.616 23.4972 127.833 23.7421C128.078 23.9598 128.201 24.3272 128.201 24.8443V45.052ZM107.462 27.0488V44.0723C107.462 45.7052 108.02 47.0388 109.136 48.073C110.279 49.08 112.443 49.5835 115.627 49.5835C118.811 49.5835 120.975 49.08 122.118 48.073C123.261 47.0388 123.833 45.7052 123.833 44.0723V27.0488H123.424V44.0723C123.424 45.5963 122.88 46.8347 121.791 47.7872C120.703 48.7126 118.648 49.1752 115.627 49.1752C112.606 49.1752 110.551 48.7126 109.463 47.7872C108.401 46.8347 107.871 45.5963 107.871 44.0723V27.0488H107.462ZM134.451 52.7677C133.934 52.7677 133.553 52.6588 133.308 52.4411C133.09 52.1962 132.981 51.8151 132.981 51.298V46.44C132.981 45.9229 133.09 45.5555 133.308 45.3378C133.553 45.0929 133.934 44.9704 134.451 44.9704H138.492V31.2537H134.451C133.934 31.2537 133.553 31.1448 133.308 30.9271C133.09 30.6821 132.981 30.3011 132.981 29.784V24.8443C132.981 24.3272 133.09 23.9598 133.308 23.7421C133.553 23.4972 133.934 23.3747 134.451 23.3747H151.842C152.359 23.3747 152.726 23.4972 152.944 23.7421C153.189 23.9598 153.311 24.3272 153.311 24.8443V29.784C153.311 30.3011 153.189 30.6821 152.944 30.9271C152.726 31.1448 152.359 31.2537 151.842 31.2537H147.882V44.9704H151.842C152.359 44.9704 152.726 45.0929 152.944 45.3378C153.189 45.5555 153.311 45.9229 153.311 46.44V51.298C153.311 51.8151 153.189 52.1962 152.944 52.4411C152.726 52.6588 152.359 52.7677 151.842 52.7677H134.451ZM149.637 49.0936V48.6853H143.391V27.4571H149.637V27.0488H136.655V27.4571H142.983V48.6853H136.655V49.0936H149.637ZM179.131 52.7677H158.882C158.365 52.7677 157.984 52.6588 157.739 52.4411C157.522 52.1962 157.413 51.8151 157.413 51.298V45.8277C157.413 45.3106 157.494 44.8615 157.658 44.4805C157.821 44.0723 158.079 43.6776 158.433 43.2966L168.353 31.2537H159.617C159.1 31.2537 158.719 31.1448 158.474 30.9271C158.256 30.6821 158.147 30.3011 158.147 29.784V24.8443C158.147 24.3272 158.256 23.9598 158.474 23.7421C158.719 23.4972 159.1 23.3747 159.617 23.3747H178.396C178.913 23.3747 179.281 23.4972 179.498 23.7421C179.743 23.9598 179.866 24.3272 179.866 24.8443V30.9271C179.866 31.4714 179.784 31.9477 179.621 32.3559C179.457 32.7369 179.199 33.1179 178.845 33.4989L169.374 44.9704H179.131C179.648 44.9704 180.015 45.0929 180.233 45.3378C180.478 45.5555 180.6 45.9229 180.6 46.44V51.298C180.6 51.8151 180.478 52.1962 180.233 52.4411C180.015 52.6588 179.648 52.7677 179.131 52.7677ZM174.844 30.5596C175.035 30.3147 175.198 30.0834 175.334 29.8656C175.47 29.6207 175.538 29.3485 175.538 29.0492V28.396C175.538 27.9333 175.429 27.5931 175.212 27.3754C175.021 27.1577 174.708 27.0488 174.273 27.0488H161.822V27.4571H174.273C174.491 27.4571 174.681 27.5251 174.844 27.6612C175.035 27.77 175.13 28.015 175.13 28.396V28.9675C175.13 29.2397 175.076 29.4574 174.967 29.6207C174.885 29.784 174.749 29.9881 174.559 30.2331L162.597 45.5827C162.407 45.8277 162.243 46.0726 162.107 46.3176C161.971 46.5353 161.903 46.7938 161.903 47.0932V47.7464C161.903 48.2091 161.999 48.5493 162.189 48.767C162.407 48.9847 162.733 49.0936 163.169 49.0936H176.926V48.6853H163.169C162.951 48.6853 162.747 48.6309 162.556 48.522C162.393 48.386 162.311 48.1274 162.311 47.7464V47.1749C162.311 46.9027 162.352 46.685 162.434 46.5217C162.543 46.3584 162.693 46.1543 162.883 45.9093L174.844 30.5596ZM205.881 52.7677H185.633C185.116 52.7677 184.735 52.6588 184.49 52.4411C184.272 52.1962 184.163 51.8151 184.163 51.298V45.8277C184.163 45.3106 184.245 44.8615 184.408 44.4805C184.572 44.0723 184.83 43.6776 185.184 43.2966L195.104 31.2537H186.368C185.851 31.2537 185.47 31.1448 185.225 30.9271C185.007 30.6821 184.898 30.3011 184.898 29.784V24.8443C184.898 24.3272 185.007 23.9598 185.225 23.7421C185.47 23.4972 185.851 23.3747 186.368 23.3747H205.147C205.664 23.3747 206.031 23.4972 206.249 23.7421C206.494 23.9598 206.616 24.3272 206.616 24.8443V30.9271C206.616 31.4714 206.535 31.9477 206.371 32.3559C206.208 32.7369 205.95 33.1179 205.596 33.4989L196.125 44.9704H205.881C206.399 44.9704 206.766 45.0929 206.984 45.3378C207.229 45.5555 207.351 45.9229 207.351 46.44V51.298C207.351 51.8151 207.229 52.1962 206.984 52.4411C206.766 52.6588 206.399 52.7677 205.881 52.7677ZM201.595 30.5596C201.785 30.3147 201.949 30.0834 202.085 29.8656C202.221 29.6207 202.289 29.3485 202.289 29.0492V28.396C202.289 27.9333 202.18 27.5931 201.962 27.3754C201.772 27.1577 201.459 27.0488 201.023 27.0488H188.572V27.4571H201.023C201.241 27.4571 201.432 27.5251 201.595 27.6612C201.785 27.77 201.881 28.015 201.881 28.396V28.9675C201.881 29.2397 201.826 29.4574 201.717 29.6207C201.636 29.784 201.5 29.9881 201.309 30.2331L189.348 45.5827C189.157 45.8277 188.994 46.0726 188.858 46.3176C188.722 46.5353 188.654 46.7938 188.654 47.0932V47.7464C188.654 48.2091 188.749 48.5493 188.94 48.767C189.157 48.9847 189.484 49.0936 189.919 49.0936H203.677V48.6853H189.919C189.702 48.6853 189.498 48.6309 189.307 48.522C189.144 48.386 189.062 48.1274 189.062 47.7464V47.1749C189.062 46.9027 189.103 46.685 189.185 46.5217C189.293 46.3584 189.443 46.1543 189.634 45.9093L201.595 30.5596ZM232.632 52.7677H212.384C211.866 52.7677 211.485 52.6588 211.241 52.4411C211.023 52.1962 210.914 51.8151 210.914 51.298V45.8277C210.914 45.3106 210.996 44.8615 211.159 44.4805C211.322 44.0723 211.581 43.6776 211.935 43.2966L221.855 31.2537H213.118C212.601 31.2537 212.22 31.1448 211.975 30.9271C211.758 30.6821 211.649 30.3011 211.649 29.784V24.8443C211.649 24.3272 211.758 23.9598 211.975 23.7421C212.22 23.4972 212.601 23.3747 213.118 23.3747H231.897C232.414 23.3747 232.782 23.4972 233 23.7421C233.244 23.9598 233.367 24.3272 233.367 24.8443V30.9271C233.367 31.4714 233.285 31.9477 233.122 32.3559C232.959 32.7369 232.7 33.1179 232.346 33.4989L222.875 44.9704H232.632C233.149 44.9704 233.517 45.0929 233.734 45.3378C233.979 45.5555 234.102 45.9229 234.102 46.44V51.298C234.102 51.8151 233.979 52.1962 233.734 52.4411C233.517 52.6588 233.149 52.7677 232.632 52.7677ZM228.346 30.5596C228.536 30.3147 228.699 30.0834 228.835 29.8656C228.972 29.6207 229.04 29.3485 229.04 29.0492V28.396C229.04 27.9333 228.931 27.5931 228.713 27.3754C228.523 27.1577 228.21 27.0488 227.774 27.0488H215.323V27.4571H227.774C227.992 27.4571 228.182 27.5251 228.346 27.6612C228.536 27.77 228.631 28.015 228.631 28.396V28.9675C228.631 29.2397 228.577 29.4574 228.468 29.6207C228.386 29.784 228.25 29.9881 228.06 30.2331L216.099 45.5827C215.908 45.8277 215.745 46.0726 215.609 46.3176C215.473 46.5353 215.405 46.7938 215.405 47.0932V47.7464C215.405 48.2091 215.5 48.5493 215.69 48.767C215.908 48.9847 216.235 49.0936 216.67 49.0936H230.428V48.6853H216.67C216.452 48.6853 216.248 48.6309 216.058 48.522C215.894 48.386 215.813 48.1274 215.813 47.7464V47.1749C215.813 46.9027 215.854 46.685 215.935 46.5217C216.044 46.3584 216.194 46.1543 216.384 45.9093L228.346 30.5596ZM253.305 52.7677H246.691C246.174 52.7677 245.793 52.6588 245.548 52.4411C245.331 52.1962 245.222 51.8151 245.222 51.298V46.0726L238.976 37.7038C238.35 36.8601 237.928 36.1253 237.71 35.4993C237.52 34.8733 237.424 33.9344 237.424 32.6825V24.8443C237.424 24.3272 237.533 23.9598 237.751 23.7421C237.996 23.4972 238.377 23.3747 238.894 23.3747H245.181C245.698 23.3747 246.065 23.4972 246.283 23.7421C246.528 23.9598 246.651 24.3272 246.651 24.8443V31.5394C246.651 31.8116 246.664 32.0973 246.691 32.3967C246.719 32.6961 246.827 32.9818 247.018 33.254L248.896 36.1933C249.032 36.4383 249.168 36.6152 249.304 36.724C249.467 36.8329 249.658 36.8873 249.876 36.8873H250.284C250.502 36.8873 250.678 36.8329 250.815 36.724C250.978 36.6152 251.128 36.4383 251.264 36.1933L253.141 33.254C253.332 32.9818 253.441 32.6961 253.468 32.3967C253.495 32.0973 253.509 31.8116 253.509 31.5394V24.8443C253.509 24.3272 253.618 23.9598 253.836 23.7421C254.08 23.4972 254.461 23.3747 254.979 23.3747H261.061C261.578 23.3747 261.946 23.4972 262.164 23.7421C262.408 23.9598 262.531 24.3272 262.531 24.8443V32.6825C262.531 33.9344 262.422 34.8733 262.204 35.4993C261.987 36.1253 261.578 36.8601 260.98 37.7038L254.774 46.1134V51.298C254.774 51.8151 254.652 52.1962 254.407 52.4411C254.189 52.6588 253.822 52.7677 253.305 52.7677ZM250.488 42.1127C251.114 42.1127 251.658 41.9767 252.121 41.7045C252.611 41.4323 253.073 40.9969 253.509 40.3981L257.591 34.887C257.918 34.4515 258.095 33.9752 258.122 33.4581C258.176 32.9138 258.204 32.3423 258.204 31.7435V27.0488H257.795V31.7435C257.795 32.3151 257.768 32.873 257.714 33.4173C257.659 33.9344 257.496 34.3699 257.224 34.7237L253.141 40.2348C252.733 40.7519 252.311 41.133 251.876 41.3779C251.468 41.5956 251.005 41.7045 250.488 41.7045H249.386C248.923 41.7045 248.46 41.5956 247.998 41.3779C247.535 41.1602 247.127 40.7792 246.773 40.2348L242.813 34.7237C242.541 34.3154 242.378 33.8664 242.323 33.3765C242.269 32.8594 242.242 32.3151 242.242 31.7435V27.0488H241.833V31.7435C241.833 32.3423 241.861 32.9138 241.915 33.4581C241.969 34.0024 242.146 34.4787 242.446 34.887L246.406 40.3981C246.841 40.9969 247.29 41.4323 247.753 41.7045C248.243 41.9767 248.787 42.1127 249.386 42.1127H249.794V49.0936H250.202V42.1127H250.488Z" fill="#5863F8"/>
</svg>
