<svg width="800" height="556" viewBox="0 0 800 556" fill="none" xmlns="http://www.w3.org/2000/svg">
<path d="M800.005 488.503H-0.00537109V488.875H800.005V488.503Z" fill="#EBEBEB"/>
<path d="M719.844 512.503H685.156V512.876H719.844V512.503Z" fill="#EBEBEB"/>
<path d="M551.474 504.777H496.897V505.15H551.474V504.777Z" fill="#EBEBEB"/>
<path d="M705.796 498.661H634.547V499.034H705.796V498.661Z" fill="#EBEBEB"/>
<path d="M276.83 506.179H259.006V506.552H276.83V506.179Z" fill="#EBEBEB"/>
<path d="M244.75 506.179H183.325V506.552H244.75V506.179Z" fill="#EBEBEB"/>
<path d="M150.413 499.884H106.092V500.257H150.413V499.884Z" fill="#EBEBEB"/>
<path d="M379.2 421.975H70.2517C67.8314 421.971 65.5117 421.072 63.8018 419.475C62.0919 417.878 61.1316 415.714 61.1316 413.457V8.57696C61.1527 6.33355 62.1223 4.18848 63.8299 2.60768C65.5376 1.02688 67.8452 0.138029 70.2517 0.134186H379.2C381.623 0.134186 383.947 1.03155 385.66 2.62886C387.373 4.22618 388.336 6.3926 388.336 8.65154V413.457C388.336 415.716 387.373 417.883 385.66 419.48C383.947 421.077 381.623 421.975 379.2 421.975ZM70.2517 0.432518C67.9375 0.43647 65.7196 1.29628 64.0847 2.82324C62.4498 4.35019 61.5316 6.4195 61.5316 8.57696V413.457C61.5316 415.615 62.4498 417.684 64.0847 419.211C65.7196 420.738 67.9375 421.598 70.2517 421.602H379.2C381.516 421.598 383.735 420.738 385.373 419.212C387.01 417.685 387.932 415.616 387.936 413.457V8.57696C387.932 6.41813 387.01 4.34885 385.373 2.82232C383.735 1.2958 381.516 0.436461 379.2 0.432518H70.2517Z" fill="#EBEBEB"/>
<path d="M725.3 421.975H416.336C413.914 421.971 411.593 421.072 409.881 419.476C408.168 417.879 407.204 415.715 407.2 413.457V8.57696C407.225 6.33219 408.198 4.18713 409.909 2.60675C411.619 1.02636 413.928 0.137987 416.336 0.134186H725.3C727.704 0.141949 730.007 1.03253 731.712 2.61291C733.416 4.19329 734.383 6.33612 734.404 8.57696V413.457C734.404 415.711 733.446 417.873 731.74 419.469C730.033 421.066 727.718 421.967 725.3 421.975ZM416.336 0.432518C414.02 0.436461 411.801 1.2958 410.163 2.82232C408.526 4.34885 407.604 6.41813 407.6 8.57696V413.457C407.604 415.616 408.526 417.685 410.163 419.212C411.801 420.738 414.02 421.598 416.336 421.602H725.3C727.616 421.598 729.835 420.738 731.473 419.212C733.11 417.685 734.032 415.616 734.036 413.457V8.57696C734.032 6.41813 733.11 4.34885 731.473 2.82232C729.835 1.2958 727.616 0.436461 725.3 0.432518H416.336Z" fill="#EBEBEB"/>
<path d="M183.997 178.581C192.87 178.581 201.38 175.295 207.654 169.446C213.929 163.596 217.454 155.663 217.454 147.391C217.454 139.118 213.929 131.185 207.654 125.335C201.38 119.486 192.87 116.2 183.997 116.2H179.885V178.581H183.997Z" fill="#E0E0E0"/>
<path d="M179.853 178.581C198.331 178.581 213.31 164.617 213.31 147.391C213.31 130.164 198.331 116.2 179.853 116.2C161.376 116.2 146.397 130.164 146.397 147.391C146.397 164.617 161.376 178.581 179.853 178.581Z" fill="#F5F5F5"/>
<path d="M178.317 151.299C166.435 151.299 155.04 146.898 146.638 139.066C138.236 131.233 133.516 120.609 133.516 109.532V84.6067C133.516 83.5662 133.96 82.5684 134.749 81.8327C135.538 81.0969 136.608 80.6836 137.724 80.6836C138.84 80.6836 139.911 81.0969 140.7 81.8327C141.489 82.5684 141.932 83.5662 141.932 84.6067V109.547C141.941 118.538 145.775 127.159 152.593 133.518C159.411 139.878 168.657 143.456 178.301 143.467C178.874 143.434 179.449 143.511 179.989 143.693C180.53 143.875 181.024 144.158 181.443 144.525C181.861 144.892 182.195 145.335 182.423 145.826C182.651 146.318 182.768 146.847 182.768 147.383C182.768 147.919 182.651 148.448 182.423 148.94C182.195 149.432 181.861 149.874 181.443 150.241C181.024 150.608 180.53 150.891 179.989 151.073C179.449 151.255 178.874 151.332 178.301 151.299H178.317Z" fill="#E0E0E0"/>
<path d="M100.524 106.564H174.957C176.147 106.564 177.322 106.31 178.39 105.82C179.458 105.33 180.392 104.618 181.118 103.739C181.845 102.86 182.345 101.837 182.581 100.749C182.816 99.6615 182.781 98.5378 182.477 97.4648L175.997 74.717C175.56 73.1717 174.587 71.8044 173.23 70.8279C171.872 69.8513 170.207 69.3202 168.493 69.3172H106.988C105.272 69.3195 103.604 69.85 102.244 70.8264C100.885 71.8028 99.9085 73.1705 99.468 74.717L93.0679 97.435C92.7564 98.5053 92.713 99.628 92.9411 100.716C93.1691 101.805 93.6626 102.83 94.3832 103.712C95.1039 104.595 96.0324 105.311 97.0972 105.805C98.162 106.3 99.3345 106.559 100.524 106.564Z" fill="#F5F5F5"/>
<path d="M656.452 178.581C665.325 178.581 673.835 175.295 680.109 169.446C686.383 163.596 689.908 155.663 689.908 147.391C689.908 139.118 686.383 131.185 680.109 125.335C673.835 119.486 665.325 116.2 656.452 116.2H652.34V178.581H656.452Z" fill="#E0E0E0"/>
<path d="M652.339 178.581C670.817 178.581 685.796 164.617 685.796 147.391C685.796 130.164 670.817 116.2 652.339 116.2C633.862 116.2 618.883 130.164 618.883 147.391C618.883 164.617 633.862 178.581 652.339 178.581Z" fill="#F5F5F5"/>
<path d="M650.804 151.299C638.922 151.299 627.526 146.898 619.125 139.066C610.723 131.233 606.003 120.609 606.003 109.532V84.6067C606.003 83.5662 606.446 82.5684 607.235 81.8327C608.025 81.0969 609.095 80.6836 610.211 80.6836C611.327 80.6836 612.397 81.0969 613.187 81.8327C613.976 82.5684 614.419 83.5662 614.419 84.6067V109.547C614.428 118.538 618.261 127.159 625.08 133.518C631.898 139.878 641.143 143.456 650.788 143.467C651.361 143.434 651.935 143.511 652.476 143.693C653.016 143.875 653.511 144.158 653.929 144.525C654.348 144.892 654.681 145.335 654.909 145.826C655.137 146.318 655.255 146.847 655.255 147.383C655.255 147.919 655.137 148.448 654.909 148.94C654.681 149.432 654.348 149.874 653.929 150.241C653.511 150.608 653.016 150.891 652.476 151.073C651.935 151.255 651.361 151.332 650.788 151.299H650.804Z" fill="#E0E0E0"/>
<path d="M573.01 106.564H647.443C648.634 106.564 649.808 106.31 650.876 105.82C651.945 105.33 652.878 104.618 653.604 103.739C654.331 102.86 654.831 101.837 655.067 100.749C655.303 99.6615 655.267 98.5378 654.963 97.4648L648.563 74.7469C648.126 73.2015 647.153 71.8342 645.796 70.8577C644.439 69.8811 642.774 69.3501 641.059 69.3471H579.474C577.758 69.3493 576.09 69.8798 574.731 70.8562C573.371 71.8327 572.395 73.2003 571.954 74.7469L565.554 97.4648C565.248 98.5331 565.21 99.6526 565.44 100.737C565.671 101.822 566.166 102.843 566.886 103.721C567.606 104.6 568.532 105.313 569.594 105.806C570.655 106.299 571.824 106.558 573.01 106.564Z" fill="#F5F5F5"/>
<path d="M214.366 389.248H238.702V301.344H214.366V389.248Z" fill="#E6E6E6"/>
<path d="M148.396 389.233H229.15L241.342 286.353H160.589L148.396 389.233Z" fill="#F0F0F0"/>
<path d="M139.645 389.233H223.07L235.262 286.353H151.853L139.645 389.233Z" fill="#F5F5F5"/>
<path d="M217.037 381.133L227.31 294.468H157.869L147.596 381.133H217.037Z" fill="white"/>
<path d="M202.701 360.116L203.197 356.64C205.773 334.892 191.213 315.515 172.301 315.515L171.869 319.05C169.293 340.784 183.853 360.16 202.781 360.16L202.701 360.116Z" fill="#F5F5F5"/>
<path d="M94.5397 488.503H166.285V389.233H94.5397L94.5397 488.503Z" fill="#E6E6E6"/>
<path d="M101.74 488.503H94.5239V469.365H109.308L101.74 488.503Z" fill="#F0F0F0"/>
<path d="M295.615 488.503H367.36V389.233H295.615V488.503Z" fill="#E6E6E6"/>
<path d="M94.5238 476.763H301.903V389.248H94.5238V476.763Z" fill="#F0F0F0"/>
<path d="M294.687 488.503H301.903V469.365H287.118L294.687 488.503Z" fill="#F0F0F0"/>
<path d="M100.124 430.03H296.303V394.707H100.124V430.03Z" fill="#E6E6E6"/>
<path d="M185.133 417.798H211.293C216.918 417.8 222.484 416.732 227.651 414.66C232.817 412.588 237.476 409.554 241.342 405.746H155.085C158.952 409.552 163.611 412.584 168.778 414.656C173.944 416.729 179.509 417.798 185.133 417.798Z" fill="#F0F0F0"/>
<path d="M100.124 471.05H296.303V435.728H100.124V471.05Z" fill="#E6E6E6"/>
<path d="M185.133 458.759H211.293C216.918 458.761 222.484 457.693 227.651 455.621C232.817 453.548 237.476 450.515 241.342 446.706H155.085C158.952 450.513 163.611 453.545 168.778 455.617C173.944 457.689 179.509 458.758 185.133 458.759Z" fill="#F0F0F0"/>
<path d="M288.766 385.19H290.622C290.622 381.625 290.622 372.601 290.814 351.912C291.15 314.396 291.79 312.114 291.79 312.114L287.374 329.432C284.574 348.6 288.19 367.872 288.766 385.19Z" fill="#E6E6E6"/>
<path d="M285.102 326.807C278.702 319.752 265.182 317.693 251.294 315.933C245.838 315.247 265.614 326.867 275.294 335.116C282.814 341.53 287.614 343.305 289.694 349.689C290.75 341.724 290.574 332.938 285.102 326.807Z" fill="#E6E6E6"/>
<path d="M293.535 339.456C299.935 332.401 313.455 330.357 327.343 328.597C332.799 327.911 312.943 339.531 303.343 347.78C295.823 354.194 291.023 355.969 288.942 362.353C287.886 354.388 287.998 345.542 293.535 339.456Z" fill="#E6E6E6"/>
<path d="M290.814 310.399C295.615 301.956 307.551 293.991 321.007 291.007C326.287 289.829 308.767 306.58 302.111 317.395C296.943 325.778 290.094 335.653 289.022 342.753C287.422 328.761 286.046 318.886 290.814 310.399Z" fill="#E6E6E6"/>
<path d="M290.239 389.233C284.575 389.233 279.886 386.593 279.55 383.192L278.606 377.404H301.887L300.927 383.192C300.607 386.593 295.999 389.233 290.239 389.233Z" fill="#F0F0F0"/>
<path d="M303.391 379.627H277.102L276.35 373.168H304.143L303.391 379.627Z" fill="#F0F0F0"/>
<path d="M271.262 256.281L527.602 256.281V38.3056L271.262 38.3056L271.262 256.281Z" fill="#E6E6E6"/>
<path d="M265.502 256.281L525.09 256.281V38.3056L265.502 38.3056L265.502 256.281Z" fill="#F5F5F5"/>
<path d="M514.722 246.526V48.076L275.838 48.076V246.526H514.722Z" fill="#FAFAFA"/>
<path d="M485.425 246.526L391.408 48.076H359.471L453.489 246.526H485.425Z" fill="white"/>
<path d="M444.432 246.526L350.415 48.076H328.431L422.448 246.526H444.432Z" fill="white"/>
<path d="M364.543 246.511V48.0611H352.191V246.511H364.543Z" fill="#E6E6E6"/>
<path d="M446.657 246.511V48.0611H434.305V246.511H446.657Z" fill="#E6E6E6"/>
<path d="M362.319 252.716V40.8117H346.703V252.716H362.319Z" fill="#F5F5F5"/>
<path d="M444.433 252.716V40.8117H428.816V252.716H444.433Z" fill="#F5F5F5"/>
<path d="M276.958 246.526V48.076H275.854V246.526H276.958Z" fill="#E6E6E6"/>
<path d="M261.15 25.7459H538.85C539.205 25.7498 539.544 25.8831 539.796 26.1172C540.047 26.3514 540.19 26.6678 540.194 26.9989C540.19 27.3287 540.046 27.6435 539.795 27.8753C539.543 28.1071 539.204 28.237 538.85 28.237H261.15C260.796 28.237 260.457 28.1071 260.205 27.8753C259.954 27.6435 259.81 27.3287 259.806 26.9989C259.81 26.6678 259.953 26.3514 260.204 26.1172C260.456 25.8831 260.795 25.7498 261.15 25.7459Z" fill="#E6E6E6"/>
<path d="M527.602 33.965C528.078 33.961 528.534 33.7817 528.87 33.466C529.205 33.1503 529.394 32.7239 529.394 32.2794V28.6696C529.396 28.4489 529.351 28.2301 529.262 28.0257C529.173 27.8213 529.041 27.6353 528.875 27.4786C528.708 27.3219 528.51 27.1975 528.291 27.1126C528.073 27.0277 527.838 26.984 527.602 26.984C527.125 26.984 526.668 27.1595 526.329 27.4724C525.99 27.7853 525.798 28.2102 525.794 28.6547V32.2645C525.794 32.7129 525.984 33.1432 526.322 33.4617C526.661 33.7801 527.121 33.961 527.602 33.965Z" fill="#E6E6E6"/>
<path d="M281.278 33.965C281.757 33.9611 282.214 33.7822 282.552 33.467C282.89 33.1517 283.082 32.7252 283.086 32.2794V28.6696C283.086 28.2225 282.896 27.7938 282.557 27.4777C282.218 27.1616 281.758 26.984 281.278 26.984C280.803 26.984 280.347 27.16 280.011 27.4733C279.675 27.7866 279.486 28.2116 279.486 28.6547V32.2645C279.484 32.4858 279.529 32.7054 279.618 32.9107C279.707 33.1159 279.838 33.3028 280.005 33.4607C280.171 33.6186 280.369 33.7445 280.588 33.831C280.806 33.9175 281.041 33.963 281.278 33.965Z" fill="#E6E6E6"/>
<path opacity="0.6" d="M261.566 197.689L520.978 197.689V26.984L261.566 26.984V197.689Z" fill="#E0E0E0"/>
<path d="M544.466 305.879H499.729C494.975 305.879 491.121 309.472 491.121 313.904V333.206C491.121 337.638 494.975 341.231 499.729 341.231H544.466C549.22 341.231 553.074 337.638 553.074 333.206V313.904C553.074 309.472 549.22 305.879 544.466 305.879Z" fill="#FAFAFA"/>
<path d="M550.178 299.346H494.017C492.418 299.346 491.121 300.554 491.121 302.045V304.223C491.121 305.714 492.418 306.923 494.017 306.923H550.178C551.778 306.923 553.074 305.714 553.074 304.223V302.045C553.074 300.554 551.778 299.346 550.178 299.346Z" fill="#E6E6E6"/>
<path d="M492.033 380.507C492.033 380.507 492.849 405.373 523.922 405.373C554.994 405.373 555.81 380.507 555.81 380.507H492.033Z" fill="#F0F0F0"/>
<path d="M562.882 380.507C562.882 380.507 563.698 405.373 594.771 405.373C625.843 405.373 626.659 380.507 626.659 380.507H562.882Z" fill="#F0F0F0"/>
<path d="M611.267 289.874H549.826C543.287 289.874 537.986 294.816 537.986 300.912V330.208C537.986 336.304 543.287 341.246 549.826 341.246H611.267C617.806 341.246 623.107 336.304 623.107 330.208V300.912C623.107 294.816 617.806 289.874 611.267 289.874Z" fill="#F0F0F0"/>
<path d="M619.139 280.894H541.954C539.762 280.894 537.986 282.55 537.986 284.593V287.606C537.986 289.649 539.762 291.306 541.954 291.306H619.139C621.33 291.306 623.107 289.649 623.107 287.606V284.593C623.107 282.55 621.33 280.894 619.139 280.894Z" fill="#F5F5F5"/>
<path d="M468.625 488.503H476.689V365.232H468.625V488.503Z" fill="#E6E6E6"/>
<path d="M701.476 341.231H657.812V365.217H701.476V341.231Z" fill="#E6E6E6"/>
<path d="M440.705 365.232H657.796V341.246H440.705V365.232Z" fill="#F5F5F5"/>
<path d="M701.476 405.298H657.812V429.284H701.476V405.298Z" fill="#E6E6E6"/>
<path d="M440.705 429.284H657.796V405.298H440.705V429.284Z" fill="#F5F5F5"/>
<path d="M685.716 488.503H693.78V365.232H685.716V488.503Z" fill="#E6E6E6"/>
<path d="M649.747 488.503H657.812V365.232H649.747V488.503Z" fill="#F5F5F5"/>
<path d="M440.705 488.503H448.769V365.232H440.705V488.503Z" fill="#F5F5F5"/>
<path d="M400 555.866C571.334 555.866 710.228 548.306 710.228 538.98C710.228 529.655 571.334 522.095 400 522.095C228.666 522.095 89.7717 529.655 89.7717 538.98C89.7717 548.306 228.666 555.866 400 555.866Z" fill="#F5F5F5"/>
<path d="M416.656 463.294H212.541C209.259 463.25 206.116 462.052 203.742 459.938C201.368 457.824 199.939 454.952 199.741 451.897L181.437 121.421C181.336 119.951 181.561 118.477 182.099 117.092C182.637 115.707 183.476 114.441 184.564 113.372C185.651 112.304 186.964 111.456 188.419 110.883C189.874 110.309 191.441 110.022 193.021 110.039H397.136C400.417 110.079 403.56 111.275 405.934 113.386C408.309 115.497 409.738 118.367 409.936 121.421L428.208 451.897C428.31 453.365 428.085 454.837 427.549 456.221C427.013 457.605 426.177 458.871 425.093 459.94C424.01 461.009 422.701 461.859 421.249 462.436C419.798 463.013 418.234 463.305 416.656 463.294Z" fill="#407BFF"/>
<path opacity="0.8" d="M416.656 463.294H212.541C209.259 463.25 206.116 462.052 203.742 459.938C201.368 457.824 199.939 454.952 199.741 451.897L181.437 121.421C181.336 119.951 181.561 118.477 182.099 117.092C182.637 115.707 183.476 114.441 184.564 113.372C185.651 112.304 186.964 111.456 188.419 110.883C189.874 110.309 191.441 110.022 193.021 110.039H397.136C400.417 110.079 403.56 111.275 405.934 113.386C408.309 115.497 409.738 118.367 409.936 121.421L428.208 451.897C428.31 453.365 428.085 454.837 427.549 456.221C427.013 457.605 426.177 458.871 425.093 459.94C424.01 461.009 422.701 461.859 421.249 462.436C419.798 463.013 418.234 463.305 416.656 463.294Z" fill="white"/>
<path d="M376.992 99.2697H354.415V100.761H376.992V99.2697Z" fill="#407BFF"/>
<path d="M346.591 99.2697H338.319V100.761H346.591V99.2697Z" fill="#407BFF"/>
<path d="M425.44 442.321H230.238C227.094 442.293 224.079 441.155 221.799 439.137C219.519 437.12 218.144 434.372 217.949 431.447L200.477 115.365C200.38 113.958 200.596 112.548 201.111 111.222C201.626 109.897 202.429 108.685 203.47 107.662C204.511 106.64 205.768 105.829 207.161 105.281C208.554 104.732 210.053 104.458 211.565 104.476H406.768C409.911 104.508 412.925 105.649 415.202 107.67C417.479 109.69 418.85 112.44 419.04 115.365L436.512 431.447C436.61 432.852 436.394 434.26 435.88 435.584C435.366 436.907 434.564 438.117 433.524 439.138C432.484 440.159 431.23 440.969 429.839 441.517C428.448 442.064 426.95 442.338 425.44 442.321Z" fill="#407BFF"/>
<path d="M425.44 435.057H230.238C229.093 435.02 228.002 434.592 227.173 433.855C226.345 433.118 225.835 432.123 225.741 431.059L208.253 114.992C208.214 114.571 208.27 114.148 208.419 113.749C208.568 113.351 208.806 112.986 209.117 112.68C209.429 112.374 209.808 112.133 210.227 111.974C210.646 111.815 211.097 111.74 211.549 111.755H406.752C407.894 111.795 408.98 112.224 409.806 112.961C410.632 113.698 411.139 114.691 411.232 115.753L428.8 431.82C428.839 432.239 428.782 432.66 428.633 433.057C428.485 433.454 428.248 433.818 427.938 434.123C427.628 434.429 427.253 434.67 426.836 434.831C426.419 434.992 425.971 435.069 425.52 435.057H425.44ZM211.549 112.128C211.151 112.116 210.755 112.181 210.386 112.32C210.017 112.459 209.683 112.668 209.405 112.933C209.138 113.209 208.934 113.532 208.804 113.883C208.675 114.234 208.624 114.607 208.653 114.977L226.125 431.044C226.215 432.012 226.68 432.916 227.434 433.587C228.189 434.257 229.18 434.647 230.222 434.684H425.424C425.82 434.698 426.214 434.634 426.581 434.495C426.948 434.356 427.279 434.146 427.552 433.878C427.826 433.607 428.034 433.284 428.164 432.932C428.294 432.58 428.342 432.206 428.304 431.835L410.848 115.767C410.763 114.801 410.3 113.897 409.549 113.226C408.797 112.555 407.808 112.165 406.768 112.128H211.549Z" fill="white"/>
<path opacity="0.3" d="M357.162 226.949C379.364 205.709 377.918 170.826 353.933 149.035C329.947 127.244 292.505 126.797 270.303 148.038C248.1 169.278 249.546 204.161 273.532 225.952C297.517 247.743 334.96 248.189 357.162 226.949Z" fill="white"/>
<path d="M361.599 187.501C362.047 194.832 360.466 202.146 357.007 208.742C353.264 215.818 347.452 221.763 340.242 225.893C333.032 230.023 324.717 232.17 316.255 232.087C307.486 232.013 298.886 229.824 291.293 225.734C283.7 221.643 277.373 215.789 272.926 208.742C268.782 202.298 266.398 195.005 265.982 187.501C265.588 181.747 266.471 175.978 268.578 170.557C270.685 165.136 273.969 160.178 278.225 155.994C282.482 151.81 287.618 148.491 293.314 146.243C299.01 143.995 305.142 142.867 311.327 142.93C324.199 143.056 336.542 147.723 345.871 155.994C355.199 164.264 360.819 175.522 361.599 187.501Z" fill="white"/>
<path d="M356.959 208.742C353.215 215.818 347.403 221.763 340.193 225.893C332.983 230.023 324.668 232.17 316.207 232.087C307.437 232.013 298.838 229.824 291.245 225.734C283.652 221.643 277.325 215.789 272.878 208.742C285.037 200.914 299.478 196.749 314.254 196.809C329.426 196.862 344.257 201.007 356.959 208.742Z" fill="#407BFF"/>
<path d="M328.555 186.465C336.553 178.812 336.03 166.242 327.385 158.388C318.74 150.534 305.247 150.371 297.248 158.023C289.25 165.676 289.773 178.246 298.418 186.1C307.063 193.954 320.556 194.117 328.555 186.465Z" fill="#407BFF"/>
<path d="M397.456 319.349H244.606C243.274 319.336 241.998 318.853 241.033 317.998C240.068 317.143 239.486 315.978 239.406 314.74L238.254 293.856C238.214 293.262 238.306 292.667 238.525 292.108C238.743 291.548 239.083 291.037 239.523 290.606C239.963 290.175 240.494 289.833 241.082 289.602C241.67 289.37 242.303 289.255 242.942 289.262H395.792C397.12 289.275 398.395 289.755 399.359 290.607C400.324 291.459 400.907 292.62 400.992 293.856L402.144 314.74C402.186 315.335 402.095 315.932 401.878 316.493C401.66 317.054 401.321 317.567 400.881 318C400.44 318.433 399.909 318.776 399.32 319.008C398.73 319.24 398.096 319.356 397.456 319.349Z" fill="white"/>
<path opacity="0.3" d="M350.655 277.732H286.814C285.477 277.722 284.195 277.239 283.226 276.38C282.257 275.522 281.675 274.352 281.598 273.107L281.358 268.632C281.316 268.037 281.407 267.44 281.624 266.879C281.841 266.318 282.181 265.805 282.621 265.372C283.061 264.939 283.593 264.596 284.182 264.364C284.772 264.132 285.406 264.016 286.046 264.023H349.871C351.202 264.036 352.479 264.519 353.444 265.374C354.409 266.229 354.99 267.394 355.071 268.632L355.327 273.107C355.366 273.702 355.275 274.297 355.058 274.857C354.841 275.417 354.503 275.929 354.065 276.362C353.627 276.796 353.099 277.141 352.512 277.376C351.926 277.612 351.294 277.733 350.655 277.732Z" fill="black"/>
<path opacity="0.3" d="M374.399 419.752H278.766C276.502 419.726 274.331 418.903 272.69 417.448C271.049 415.993 270.059 414.013 269.918 411.906L269.358 401.614C269.301 400.602 269.467 399.59 269.843 398.64C270.22 397.69 270.8 396.821 271.549 396.087C272.297 395.353 273.199 394.769 274.197 394.37C275.196 393.971 276.272 393.766 277.358 393.768H372.959C375.224 393.794 377.394 394.617 379.035 396.072C380.676 397.527 381.666 399.506 381.808 401.614L382.367 411.906C382.424 412.915 382.26 413.924 381.885 414.872C381.51 415.821 380.933 416.688 380.188 417.422C379.443 418.155 378.545 418.74 377.55 419.141C376.555 419.542 375.483 419.75 374.399 419.752Z" fill="black"/>
<path d="M400.256 369.856H247.39C246.06 369.84 244.785 369.356 243.821 368.502C242.857 367.647 242.274 366.485 242.19 365.247L241.038 344.364C240.998 343.769 241.09 343.173 241.309 342.613C241.527 342.053 241.866 341.541 242.306 341.108C242.746 340.676 243.277 340.333 243.865 340.1C244.453 339.867 245.087 339.749 245.726 339.755H398.576C399.907 339.767 401.184 340.25 402.149 341.105C403.114 341.96 403.695 343.125 403.776 344.364L404.944 365.247C404.981 365.841 404.887 366.436 404.668 366.995C404.449 367.554 404.109 368.066 403.67 368.498C403.231 368.93 402.701 369.273 402.114 369.507C401.527 369.74 400.894 369.859 400.256 369.856Z" fill="white"/>
<path d="M263.998 304.298C264.042 304.957 263.94 305.618 263.698 306.238C263.455 306.859 263.079 307.426 262.59 307.905C262.102 308.384 261.514 308.764 260.861 309.021C260.209 309.278 259.506 309.407 258.798 309.399C257.326 309.383 255.916 308.848 254.85 307.901C253.784 306.955 253.143 305.667 253.054 304.298C253.007 303.639 253.108 302.979 253.348 302.359C253.588 301.738 253.963 301.17 254.45 300.691C254.937 300.212 255.525 299.832 256.177 299.575C256.828 299.318 257.53 299.189 258.238 299.196C259.711 299.213 261.123 299.747 262.192 300.693C263.26 301.639 263.905 302.927 263.998 304.298Z" fill="#263238"/>
<path d="M280.846 304.298C280.893 304.956 280.792 305.617 280.552 306.237C280.312 306.858 279.936 307.426 279.45 307.905C278.963 308.384 278.375 308.764 277.723 309.021C277.072 309.278 276.37 309.407 275.662 309.399C274.189 309.386 272.777 308.852 271.71 307.905C270.644 306.958 270.003 305.669 269.918 304.298C269.872 303.639 269.972 302.979 270.212 302.359C270.452 301.738 270.828 301.17 271.315 300.691C271.801 300.212 272.389 299.832 273.041 299.575C273.693 299.318 274.394 299.189 275.102 299.196C276.575 299.209 277.988 299.743 279.054 300.69C280.12 301.638 280.761 302.927 280.846 304.298Z" fill="#263238"/>
<path d="M297.599 304.298C297.645 304.956 297.545 305.617 297.305 306.237C297.064 306.858 296.689 307.426 296.202 307.905C295.715 308.384 295.128 308.764 294.476 309.021C293.824 309.278 293.122 309.407 292.415 309.399C290.941 309.383 289.529 308.849 288.461 307.903C287.392 306.956 286.747 305.669 286.655 304.298C286.61 303.639 286.713 302.978 286.955 302.357C287.197 301.737 287.574 301.169 288.062 300.691C288.55 300.212 289.139 299.832 289.791 299.575C290.444 299.318 291.146 299.189 291.855 299.196C293.326 299.213 294.737 299.748 295.802 300.694C296.868 301.641 297.51 302.928 297.599 304.298Z" fill="#263238"/>
<path d="M314.479 304.298C314.522 304.956 314.421 305.615 314.179 306.235C313.938 306.854 313.563 307.421 313.077 307.9C312.59 308.378 312.004 308.758 311.353 309.016C310.702 309.274 310.001 309.405 309.294 309.399C307.821 309.383 306.409 308.849 305.341 307.903C304.272 306.956 303.627 305.669 303.534 304.298C303.49 303.64 303.592 302.981 303.833 302.361C304.075 301.741 304.45 301.175 304.936 300.696C305.423 300.218 306.009 299.837 306.66 299.579C307.311 299.321 308.011 299.191 308.718 299.196C310.192 299.213 311.604 299.747 312.672 300.693C313.741 301.639 314.386 302.927 314.479 304.298Z" fill="#263238"/>
<path d="M266.83 354.776C266.876 355.434 266.776 356.094 266.536 356.715C266.296 357.336 265.92 357.903 265.434 358.382C264.947 358.861 264.359 359.241 263.707 359.498C263.056 359.756 262.354 359.885 261.646 359.877C260.173 359.861 258.76 359.326 257.692 358.38C256.624 357.434 255.979 356.146 255.886 354.776C255.842 354.116 255.944 353.456 256.186 352.835C256.428 352.214 256.805 351.647 257.293 351.168C257.781 350.689 258.37 350.31 259.023 350.053C259.675 349.796 260.378 349.667 261.086 349.674C262.558 349.69 263.968 350.226 265.034 351.172C266.099 352.118 266.741 353.406 266.83 354.776Z" fill="#263238"/>
<path d="M283.646 354.776C283.69 355.433 283.588 356.093 283.347 356.712C283.106 357.332 282.731 357.899 282.244 358.377C281.758 358.856 281.171 359.236 280.521 359.494C279.87 359.752 279.169 359.882 278.462 359.877C276.989 359.861 275.577 359.326 274.508 358.38C273.44 357.434 272.795 356.146 272.702 354.776C272.656 354.117 272.756 353.457 272.996 352.836C273.237 352.216 273.612 351.648 274.099 351.169C274.585 350.69 275.173 350.31 275.825 350.053C276.477 349.795 277.179 349.667 277.886 349.674C279.36 349.69 280.772 350.225 281.84 351.171C282.908 352.117 283.554 353.405 283.646 354.776Z" fill="#263238"/>
<path d="M300.462 354.776C300.507 355.435 300.404 356.095 300.162 356.716C299.92 357.337 299.543 357.904 299.055 358.383C298.567 358.862 297.978 359.241 297.326 359.499C296.673 359.756 295.971 359.884 295.262 359.877C293.79 359.864 292.377 359.33 291.311 358.383C290.244 357.436 289.603 356.146 289.518 354.776C289.472 354.117 289.572 353.457 289.812 352.836C290.053 352.216 290.428 351.648 290.915 351.169C291.402 350.69 291.989 350.31 292.641 350.053C293.293 349.795 293.995 349.667 294.702 349.674C296.176 349.69 297.588 350.225 298.656 351.171C299.725 352.117 300.37 353.405 300.462 354.776Z" fill="#263238"/>
<path d="M317.263 354.776C317.309 355.434 317.209 356.094 316.969 356.715C316.728 357.336 316.353 357.903 315.866 358.382C315.379 358.861 314.792 359.241 314.14 359.498C313.488 359.756 312.786 359.885 312.079 359.877C310.605 359.861 309.193 359.326 308.125 358.38C307.056 357.434 306.411 356.146 306.319 354.776C306.275 354.116 306.377 353.456 306.619 352.835C306.861 352.214 307.238 351.647 307.726 351.168C308.214 350.689 308.803 350.31 309.455 350.053C310.108 349.796 310.81 349.667 311.519 349.674C312.991 349.687 314.404 350.221 315.471 351.168C316.537 352.115 317.178 353.405 317.263 354.776Z" fill="#263238"/>
<path d="M334.079 354.776C334.125 355.434 334.025 356.094 333.785 356.715C333.544 357.336 333.169 357.903 332.682 358.382C332.196 358.861 331.608 359.241 330.956 359.499C330.304 359.756 329.603 359.885 328.895 359.877C327.421 359.861 326.009 359.326 324.941 358.38C323.873 357.434 323.227 356.147 323.135 354.776C323.091 354.118 323.193 353.458 323.434 352.839C323.675 352.219 324.05 351.652 324.537 351.174C325.023 350.695 325.61 350.315 326.26 350.057C326.911 349.799 327.612 349.669 328.319 349.674C329.792 349.69 331.204 350.225 332.273 351.171C333.341 352.117 333.986 353.405 334.079 354.776Z" fill="#263238"/>
<path d="M350.895 354.776C350.939 355.435 350.837 356.095 350.595 356.716C350.353 357.337 349.976 357.904 349.488 358.383C349 358.862 348.411 359.241 347.758 359.499C347.106 359.756 346.403 359.884 345.695 359.877C344.223 359.861 342.813 359.325 341.747 358.379C340.682 357.433 340.04 356.145 339.951 354.776C339.905 354.117 340.005 353.457 340.245 352.836C340.485 352.216 340.861 351.648 341.347 351.169C341.834 350.69 342.422 350.31 343.074 350.053C343.726 349.795 344.427 349.667 345.135 349.674C346.608 349.69 348.021 350.225 349.089 351.171C350.157 352.117 350.802 353.405 350.895 354.776Z" fill="#263238"/>
<path d="M532.802 181.549C533.202 182.116 533.41 182.415 533.666 182.817L534.386 183.921C534.85 184.667 535.266 185.413 535.666 186.144C536.466 187.635 537.266 189.127 537.906 190.619C539.247 193.581 540.401 196.615 541.362 199.703C543.299 205.804 544.575 212.07 545.17 218.408L545.282 219.587C545.295 219.825 545.295 220.064 545.282 220.303V221.093C545.309 222.131 545.244 223.168 545.09 224.196C544.783 226.101 544.246 227.967 543.49 229.76C542.084 232.961 540.222 235.972 537.954 238.71C533.723 243.761 528.701 248.191 523.058 251.851L518.642 247.033C522.66 242.802 526.219 238.21 529.266 233.325C530.637 231.109 531.712 228.744 532.466 226.284C532.771 225.242 532.948 224.171 532.994 223.092C533.043 222.631 533.043 222.166 532.994 221.705V221.392C533.01 221.253 533.01 221.113 532.994 220.974L532.802 219.93C531.773 214.371 530.318 208.887 528.45 203.522C527.522 200.851 526.386 198.271 525.25 195.75C524.69 194.482 524.05 193.244 523.41 192.051L522.418 190.291L521.922 189.47L521.506 188.814L532.802 181.549Z" fill="#803E3C"/>
<path d="M517.922 251.881L523.714 263.292L528.306 253.641C528.306 253.641 524.226 245.288 518.706 246.064L517.922 251.881Z" fill="#7F3E3B"/>
<path d="M527.858 263.859L532.466 256.819L528.306 253.641L523.714 263.292L527.858 263.859Z" fill="#7F3E3B"/>
<path d="M501.81 527.017C503.008 526.989 504.199 526.839 505.362 526.57C505.42 526.553 505.474 526.522 505.516 526.48C505.558 526.438 505.587 526.387 505.602 526.331C505.611 526.274 505.603 526.215 505.577 526.162C505.552 526.109 505.51 526.064 505.458 526.033C504.994 525.749 500.93 523.303 499.362 523.959C499.188 524.035 499.039 524.152 498.929 524.299C498.819 524.445 498.753 524.616 498.737 524.795C498.689 525.064 498.712 525.341 498.804 525.601C498.896 525.861 499.054 526.096 499.266 526.286C499.991 526.808 500.895 527.068 501.81 527.017ZM504.45 526.137C502.13 526.585 500.37 526.51 499.65 525.928C499.503 525.792 499.395 525.624 499.336 525.439C499.277 525.254 499.27 525.058 499.314 524.869C499.314 524.616 499.473 524.541 499.585 524.496C500.45 524.138 502.802 525.197 504.45 526.137Z" fill="#407BFF"/>
<path d="M505.282 526.57H505.442C505.49 526.54 505.529 526.501 505.557 526.454C505.585 526.407 505.6 526.355 505.602 526.301C505.602 526.152 505.602 522.557 504.13 521.349C503.949 521.198 503.735 521.084 503.503 521.017C503.271 520.951 503.026 520.931 502.786 520.961C502.533 520.963 502.289 521.045 502.094 521.195C501.899 521.344 501.765 521.551 501.714 521.781C501.41 523.199 503.842 525.884 505.122 526.57H505.282ZM502.994 521.513C503.123 521.51 503.252 521.53 503.373 521.574C503.494 521.617 503.604 521.683 503.698 521.767C504.542 522.927 504.978 524.303 504.946 525.705C503.666 524.75 502.146 522.721 502.338 521.871C502.338 521.737 502.45 521.558 502.85 521.513H502.994Z" fill="#407BFF"/>
<path d="M486.705 520.931C486.743 520.888 486.767 520.835 486.776 520.78C486.784 520.724 486.777 520.668 486.754 520.616C486.731 520.564 486.694 520.519 486.646 520.485C486.598 520.452 486.541 520.43 486.481 520.424C485.825 520.424 480.081 520.171 478.769 521.483V521.573C478.661 521.702 478.59 521.855 478.565 522.017C478.54 522.179 478.561 522.345 478.625 522.498C478.711 522.754 478.862 522.987 479.065 523.176C479.269 523.366 479.518 523.507 479.793 523.586C481.649 524.123 484.929 522.169 486.721 520.961L486.705 520.931ZM479.249 521.871C479.969 521.155 483.137 520.961 485.505 520.991C483.025 522.572 480.961 523.318 479.921 523.02C479.74 522.968 479.575 522.876 479.441 522.751C479.307 522.626 479.208 522.473 479.153 522.304C479.121 522.246 479.104 522.182 479.104 522.117C479.104 522.052 479.121 521.988 479.153 521.931L479.249 521.871Z" fill="#407BFF"/>
<path d="M486.705 520.931C486.729 520.885 486.742 520.834 486.742 520.782C486.742 520.73 486.729 520.679 486.705 520.633C486.625 520.514 484.833 517.65 482.721 517.053C482.418 516.97 482.1 516.946 481.786 516.982C481.472 517.018 481.17 517.113 480.897 517.262C480.129 517.679 480.081 518.172 480.177 518.485C480.593 519.872 484.673 521.095 486.433 521.08C486.489 521.08 486.543 521.065 486.59 521.039C486.638 521.013 486.678 520.976 486.705 520.931ZM480.961 517.948C481.052 517.865 481.154 517.795 481.265 517.739C481.463 517.622 481.686 517.546 481.918 517.518C482.15 517.489 482.386 517.509 482.609 517.575C484.001 517.918 485.297 519.589 485.889 520.409C483.985 520.215 481.089 519.126 480.849 518.291C480.829 518.228 480.829 518.16 480.849 518.097C480.868 518.033 480.908 517.976 480.961 517.933V517.948Z" fill="#407BFF"/>
<path d="M504.321 137.859C502.721 145.317 499.265 161.442 504.817 166.394C504.817 166.394 502.641 173.853 487.873 173.853C471.617 173.853 480.113 166.394 480.113 166.394C488.977 164.425 488.753 158.28 487.201 152.522L504.321 137.859Z" fill="#7F3E3B"/>
<path d="M477.249 120.377C477.339 120.39 477.431 120.39 477.521 120.377C477.597 120.342 477.665 120.293 477.721 120.234C477.777 120.174 477.819 120.105 477.846 120.03C477.873 119.955 477.883 119.876 477.877 119.797C477.871 119.718 477.848 119.642 477.809 119.571C477.379 118.72 476.736 117.978 475.934 117.407C475.132 116.836 474.195 116.453 473.201 116.29C473.035 116.277 472.869 116.323 472.738 116.42C472.607 116.517 472.521 116.657 472.497 116.812C472.479 116.968 472.528 117.124 472.633 117.247C472.738 117.37 472.89 117.449 473.057 117.468C473.842 117.608 474.579 117.921 475.208 118.38C475.837 118.839 476.339 119.432 476.673 120.108C476.735 120.196 476.821 120.268 476.923 120.315C477.024 120.362 477.137 120.383 477.249 120.377Z" fill="#263238"/>
<path d="M472.401 126.925C471.142 129.102 469.57 131.11 467.729 132.892C468.228 133.317 468.819 133.636 469.463 133.826C470.107 134.017 470.787 134.075 471.457 133.995L472.401 126.925Z" fill="#630F0F"/>
<path d="M473.601 125.239C473.473 126.239 472.785 126.985 472.097 126.91C471.409 126.836 470.929 125.955 471.057 124.956C471.185 123.957 471.873 123.211 472.657 123.285C473.441 123.36 473.713 124.24 473.601 125.239Z" fill="#263238"/>
<path d="M472.865 123.375L470.401 122.45C470.401 122.45 471.441 124.419 472.865 123.375Z" fill="#263238"/>
<path d="M500.833 518.097L487.777 520.931L479.841 492.948L492.897 490.114L500.833 518.097Z" fill="#7F3E3B"/>
<path d="M520.866 526.271H507.474L508.514 497.348H521.922L520.866 526.271Z" fill="#7F3E3B"/>
<path d="M506.402 524.824H521.458C521.719 524.822 521.972 524.909 522.169 525.068C522.367 525.227 522.495 525.448 522.53 525.69L524.242 536.787C524.276 537.068 524.246 537.352 524.153 537.621C524.061 537.89 523.908 538.138 523.706 538.348C523.503 538.558 523.255 538.725 522.978 538.84C522.701 538.954 522.401 539.012 522.098 539.01C516.85 538.935 514.322 538.637 507.698 538.637C503.618 538.637 497.666 539.04 492.049 539.04C486.433 539.04 486.113 533.849 488.465 533.386C498.962 531.268 500.626 528.375 504.162 525.6C504.786 525.103 505.58 524.828 506.402 524.824Z" fill="#263238"/>
<path d="M486.626 519.067L500.306 513.204C500.538 513.101 500.803 513.081 501.05 513.146C501.298 513.212 501.511 513.36 501.65 513.562L508.194 522.99C508.347 523.232 508.443 523.502 508.477 523.782C508.511 524.061 508.482 524.344 508.392 524.613C508.301 524.881 508.152 525.129 507.952 525.34C507.753 525.551 507.508 525.721 507.234 525.839C502.434 527.808 500.002 528.539 493.986 531.119C490.29 532.7 482.785 536.34 477.697 538.578C472.609 540.815 469.985 536.176 471.905 534.833C480.497 528.867 482.961 524.586 484.929 520.693C485.262 519.975 485.866 519.397 486.626 519.067Z" fill="#263238"/>
<path opacity="0.2" d="M479.841 492.948L484.097 507.954L496.993 504.538L492.913 490.114L479.841 492.948Z" fill="black"/>
<path opacity="0.2" d="M521.922 497.348H508.514L507.986 512.265H521.394L521.922 497.348Z" fill="black"/>
<path d="M528.002 169.228C533.57 170.377 539.522 189.038 539.522 189.038L523.778 204.655C523.778 204.655 510.706 187.113 513.378 180.669C516.082 173.942 521.362 167.886 528.002 169.228Z" fill="#263238"/>
<path opacity="0.4" d="M519.106 181.117C516.29 178.715 514.385 179.431 513.089 181.341C511.809 186.89 519.394 198.51 522.45 202.91C523.858 197.659 525.474 186.591 519.106 181.117Z" fill="black"/>
<path d="M457.457 169.601C457.457 169.601 451.057 171.69 463.857 245.005H518.258C517.346 224.36 517.314 211.621 527.858 169.228C520.235 167.762 512.508 166.815 504.738 166.394C496.513 165.842 488.257 165.842 480.033 166.394C469.489 167.304 457.457 169.601 457.457 169.601Z" fill="#263238"/>
<path opacity="0.4" d="M456.961 197.734C457.313 201.299 457.777 205.312 458.385 209.846C462.849 206.102 466.497 195.452 465.153 189.246C461.964 191.66 459.2 194.523 456.961 197.734Z" fill="black"/>
<path d="M462.786 186.591C459.85 193.479 456.545 200.225 452.882 206.803C449.261 213.619 444.976 220.11 440.081 226.195L439.057 227.373L438.545 227.955C438.369 228.149 438.225 228.328 437.953 228.596C436.991 229.576 435.918 230.456 434.753 231.222C432.695 232.55 430.443 233.595 428.065 234.324C423.919 235.559 419.614 236.271 415.265 236.442C407.12 236.744 398.968 236.068 391.009 234.429L391.889 228.164C395.569 228.164 399.425 228.164 403.089 227.88C406.769 227.712 410.435 227.333 414.065 226.747C417.437 226.256 420.735 225.395 423.889 224.181C425.163 223.674 426.354 223.001 427.425 222.182C427.834 221.863 428.204 221.503 428.529 221.108C428.529 221.108 428.721 220.87 428.849 220.705L429.217 220.213L429.969 219.229C433.984 213.447 437.561 207.411 440.673 201.165C443.874 194.825 447.074 188.247 450.002 181.773L462.786 186.591Z" fill="#803E3C"/>
<path d="M457.457 169.601C450.785 171.093 442.593 188.158 442.593 188.158L456.417 207.102C456.417 207.102 474.833 185.487 472.641 178.894C470.401 172.018 465.601 167.752 457.457 169.601Z" fill="#263238"/>
<path d="M395.729 229.118L384.193 224.151L383.041 234.846C383.041 234.846 392.641 237.487 397.441 234.846L395.729 229.118Z" fill="#7F3E3B"/>
<path d="M377.297 223.077L376.193 231.222L383.041 234.846L384.193 224.151L377.297 223.077Z" fill="#7F3E3B"/>
<path d="M510.114 125.97C507.666 138.157 506.914 143.378 499.425 148.912C488.225 157.235 472.625 151.776 471.121 139.157C469.745 127.79 473.969 109.771 487.521 106.34C490.507 105.572 493.653 105.53 496.661 106.218C499.668 106.906 502.437 108.3 504.702 110.269C506.968 112.237 508.655 114.714 509.602 117.462C510.549 120.211 510.725 123.14 510.114 125.97Z" fill="#7F3E3B"/>
<path d="M481.393 128.536C480.641 134.756 480.353 150.911 495.01 151.418C512.946 152.03 518.322 137.74 516.722 132.026C526.066 124.941 527.41 112.754 516.914 103.431C506.418 94.1086 483.313 99.3145 476.913 108.399C468.801 119.661 481.393 128.536 481.393 128.536Z" fill="#263238"/>
<path d="M499.362 107.056C498.497 100.493 499.169 95.9731 505.762 95.9731C512.354 95.9731 521.346 98.1957 524.642 104.476C527.938 110.755 528.21 120.585 519.01 119.586C509.81 118.587 500.402 114.902 499.362 107.056Z" fill="#407BFF"/>
<path d="M509.57 105.475C507.97 97.6587 515.474 75.6419 533.698 74.1502C542.146 73.479 546.05 81.9516 541.698 83.3537C549.698 83.2642 554.818 93.1241 547.362 94.6008C553.25 98.1211 551.794 105.341 543.394 108.891C537.138 111.576 511.73 116.304 509.57 105.475Z" fill="#263238"/>
<path d="M529.042 113.873C523.17 113.873 517.042 113.068 513.234 110.696C512.169 110.097 511.272 109.271 510.619 108.285C509.965 107.3 509.572 106.183 509.474 105.027C509.469 104.929 509.504 104.833 509.572 104.759C509.641 104.684 509.737 104.636 509.842 104.625C509.895 104.618 509.948 104.623 510 104.637C510.051 104.651 510.098 104.675 510.139 104.707C510.179 104.74 510.212 104.78 510.236 104.824C510.259 104.869 510.272 104.918 510.274 104.968C510.37 106.01 510.729 107.017 511.321 107.906C511.913 108.795 512.722 109.541 513.682 110.084C520.93 114.559 537.682 113.068 542.898 111.576C547.41 110.204 550.466 107.533 551.074 104.461C551.264 103.333 551.114 102.179 550.643 101.125C550.171 100.072 549.395 99.1612 548.402 98.494C548.364 98.4606 548.333 98.4201 548.312 98.3752C548.292 98.3303 548.281 98.2819 548.281 98.233C548.281 98.1841 548.292 98.1357 548.312 98.0908C548.333 98.0459 548.364 98.0054 548.402 97.9719C548.477 97.9036 548.577 97.8654 548.682 97.8654C548.787 97.8654 548.887 97.9036 548.962 97.9719C550.079 98.7317 550.947 99.7659 551.47 100.959C551.993 102.152 552.149 103.458 551.922 104.729C551.266 108.085 548.018 110.949 543.218 112.411C538.586 113.5 533.817 113.991 529.042 113.873Z" fill="#263238"/>
<path d="M477.313 126.925C475.823 128.873 475.209 131.288 475.601 133.652C476.129 136.785 479.393 136.994 481.761 134.995C484.129 132.996 486.193 129.386 484.449 126.791C484.062 126.23 483.527 125.771 482.895 125.458C482.264 125.145 481.556 124.987 480.841 125.001C480.126 125.014 479.426 125.198 478.809 125.535C478.191 125.872 477.676 126.35 477.313 126.925Z" fill="#7F3E3B"/>
<path d="M478.225 245.005C478.225 245.005 486.001 330.76 494.081 379.09C500.593 418.126 505.745 509.371 505.745 509.371H524.018C524.018 509.371 530.514 420.856 527.218 382.252C518.85 284.548 537.522 276.583 518.306 245.019L478.225 245.005Z" fill="#407BFF"/>
<path opacity="0.4" d="M501.233 277.418C493.992 284.504 488.148 292.725 483.969 301.703C486.097 320.975 488.625 342.365 491.313 361.1C502.343 334.479 505.762 305.642 501.233 277.418Z" fill="black"/>
<path d="M465.441 244.468C465.441 244.468 448.561 338.129 445.905 380.343C452.529 419.379 479.633 501.898 479.633 501.898L496.257 496.274C496.257 496.274 487.057 406.297 477.057 381.67C499.57 311.01 516.114 293.14 511.298 245.005C499.762 245.005 465.441 244.468 465.441 244.468Z" fill="#407BFF"/>
<path d="M477.409 506.015L499.874 500.331L498.593 491.978L474.545 498.049L477.409 506.015Z" fill="#263238"/>
<path d="M503.233 509.714H526.514L527.73 502.107L503.105 501.331L503.233 509.714Z" fill="#263238"/>
<path d="M519.106 242.021L521.554 246.571C521.746 246.929 521.298 247.287 520.674 247.287H463.585C463.105 247.287 462.689 247.063 462.657 246.765L462.161 242.29C462.161 241.976 462.561 241.708 463.089 241.708H518.21C518.375 241.687 518.544 241.704 518.7 241.759C518.857 241.814 518.996 241.904 519.106 242.021Z" fill="#407BFF"/>
<path opacity="0.5" d="M519.106 242.021L521.554 246.571C521.746 246.929 521.298 247.287 520.674 247.287H463.585C463.105 247.287 462.689 247.063 462.657 246.765L462.161 242.29C462.161 241.976 462.561 241.708 463.089 241.708H518.21C518.375 241.687 518.544 241.704 518.7 241.759C518.857 241.814 518.996 241.904 519.106 242.021Z" fill="black"/>
<path d="M511.698 247.749H513.17C513.474 247.749 513.698 247.6 513.682 247.436L512.978 241.469C512.978 241.29 512.706 241.156 512.418 241.156H510.93C510.642 241.156 510.418 241.29 510.434 241.469L511.122 247.436C511.154 247.63 511.41 247.749 511.698 247.749Z" fill="#407BFF"/>
<path d="M491.889 204.312C491.713 204.31 491.542 204.255 491.401 204.156C491.26 204.056 491.156 203.918 491.105 203.76C485.889 185.771 475.105 170.944 469.873 168.706C469.467 168.474 468.978 168.399 468.513 168.497C468.416 168.545 468.31 168.573 468.202 168.581C468.093 168.589 467.983 168.576 467.88 168.543C467.777 168.51 467.682 168.457 467.601 168.389C467.52 168.32 467.456 168.237 467.411 168.144C467.366 168.051 467.342 167.951 467.34 167.849C467.339 167.747 467.359 167.646 467.401 167.552C467.443 167.458 467.505 167.373 467.583 167.302C467.662 167.231 467.755 167.176 467.857 167.14C468.294 166.99 468.762 166.931 469.226 166.968C469.69 167.004 470.14 167.134 470.545 167.349C476.081 169.795 487.025 184.413 492.497 202.806C496.417 202.806 502.466 202.313 503.938 202.194C505.762 200.165 519.17 184.533 514.162 167.423C514.133 167.329 514.124 167.231 514.137 167.134C514.15 167.037 514.183 166.943 514.235 166.858C514.287 166.773 514.357 166.699 514.441 166.64C514.525 166.581 514.62 166.538 514.722 166.514C514.925 166.463 515.142 166.49 515.325 166.588C515.508 166.685 515.642 166.846 515.698 167.036C521.282 186.069 505.09 203.238 504.914 203.402C504.851 203.475 504.773 203.534 504.685 203.578C504.597 203.622 504.501 203.648 504.402 203.656C504.322 203.656 496.337 204.312 491.889 204.312Z" fill="#407BFF"/>
<path d="M518.402 214.843C509.682 199.613 506.114 198.539 504.562 193.647C505.737 190.911 507.416 188.387 509.522 186.189C508.466 185.905 506.194 185.487 504.722 185.234C504.882 184.563 505.058 183.906 505.218 183.265C503.616 183.098 501.996 183.168 500.418 183.474V181.982C498.385 181.57 496.298 181.444 494.225 181.609C494.407 182.315 494.583 183.031 494.753 183.757C493.153 184.041 490.721 184.503 489.553 184.816C491.823 187.213 493.49 190.051 494.433 193.125C489.729 200.658 471.457 249.077 501.185 252.791C530.914 256.505 527.106 230.088 518.402 214.843Z" fill="#407BFF"/>
<path opacity="0.4" d="M518.402 214.843C509.682 199.613 506.114 198.539 504.562 193.647C505.737 190.911 507.416 188.387 509.522 186.189C508.466 185.905 506.194 185.487 504.722 185.234C504.882 184.563 505.058 183.906 505.218 183.265C503.616 183.098 501.996 183.168 500.418 183.474V181.982C498.385 181.57 496.298 181.444 494.225 181.609C494.407 182.315 494.583 183.031 494.753 183.757C493.153 184.041 490.721 184.503 489.553 184.816C491.823 187.213 493.49 190.051 494.433 193.125C489.729 200.658 471.457 249.077 501.185 252.791C530.914 256.505 527.106 230.088 518.402 214.843Z" fill="white"/>
<path d="M493.217 191.678C493.032 192.446 492.952 193.233 492.977 194.02C492.977 194.572 494.577 194.945 496.353 195.109C498.129 195.273 505.586 195.541 505.346 194.766C505.106 193.99 505.714 192.931 505.746 192.274C505.778 191.618 502.785 191.588 500.273 191.678C497.761 191.767 493.713 190.842 493.217 191.678Z" fill="#407BFF"/>
<path d="M475.921 247.749H477.393C477.681 247.749 477.905 247.6 477.889 247.436L477.201 241.469C477.201 241.29 476.929 241.156 476.625 241.156H475.201C474.913 241.156 474.689 241.29 474.705 241.469L475.393 247.436C475.361 247.63 475.617 247.749 475.921 247.749Z" fill="#407BFF"/>
</svg>
