<svg width="273" height="75" viewBox="0 0 273 75" fill="none" xmlns="http://www.w3.org/2000/svg">
<path d="M15.3723 30.5552C15.3722 26.188 30.5286 6.9215 46.7125 27.2156C59.852 43.6921 3.81229 30.5553 22.3082 50.0788C37.105 65.6976 54.933 51.1063 53.9055 40.317" stroke="#5863F8" stroke-width="1.54133" stroke-linecap="round"/>
<circle cx="14.6015" cy="34.1516" r="1.28444" fill="#4E148C"/>
<circle cx="53.6485" cy="36.7204" r="1.28444" fill="#4E148C"/>
<path d="M52.8778 30.4316C52.8779 26.0644 37.7215 6.79785 21.5375 27.092C8.39801 43.5685 64.4378 30.4317 45.9418 49.9551C31.1451 65.5739 13.3171 50.9827 14.3446 40.1934" stroke="#5863F8" stroke-width="1.54133" stroke-linecap="round"/>
<circle cx="1.28444" cy="1.28444" r="1.28444" transform="matrix(-1 0 0 1 54.9329 32.2297)" fill="#4E148C"/>
<circle cx="1.28444" cy="1.28444" r="1.28444" transform="matrix(-1 0 0 1 15.886 35.8261)" fill="#4E148C"/>
<path d="M86.0283 54.9584H79.8758C79.3698 54.9584 78.9969 54.8386 78.7572 54.5989C78.5441 54.3858 78.4376 54.0262 78.4376 53.5202V51.3229C75.348 50.8701 73.2572 49.9512 72.1652 48.5662C71.0999 47.1546 70.5672 45.45 70.5672 43.4525V30.1887C70.5672 28.9635 70.7403 27.8582 71.0865 26.8727C71.4594 25.8606 72.0986 24.995 73.0042 24.2759C73.9364 23.5568 75.2148 22.9974 76.8395 22.5979C78.4642 22.1984 80.515 21.9987 82.992 21.9987C85.469 21.9987 87.5065 22.1984 89.1045 22.5979C90.7292 22.9974 91.9943 23.5568 92.8999 24.2759C93.8321 24.995 94.4713 25.8606 94.8176 26.8727C95.1904 27.8582 95.3769 28.9635 95.3769 30.1887V43.4525C95.3769 44.4646 95.257 45.4101 95.0173 46.289C94.7776 47.1413 94.3648 47.9004 93.7788 48.5662C93.1929 49.2321 92.3805 49.8047 91.3418 50.2841C90.3297 50.7635 89.038 51.1098 87.4665 51.3229V53.5202C87.4665 54.0262 87.3467 54.3858 87.107 54.5989C86.8939 54.8386 86.5343 54.9584 86.0283 54.9584ZM82.7123 51.3628H83.1119V48.2866C86.1481 48.2599 88.2256 47.7539 89.3442 46.7684C90.4629 45.783 91.0222 44.4912 91.0222 42.8931V31.1075C91.0222 29.5095 90.4496 28.2177 89.3043 27.2323C88.159 26.2202 86.0283 25.7141 82.9121 25.7141C79.7959 25.7141 77.6785 26.2202 76.5599 27.2323C75.4412 28.2177 74.8819 29.5095 74.8819 31.1075V42.8931C74.8819 44.4912 75.4279 45.783 76.5199 46.7684C77.6119 47.7539 79.676 48.2599 82.7123 48.2866V51.3628ZM75.2814 42.8931V31.1075C75.2814 29.616 75.8141 28.4175 76.8795 27.5119C77.9448 26.5797 79.9557 26.1136 82.9121 26.1136C85.8685 26.1136 87.8927 26.5797 88.9847 27.5119C90.0767 28.4175 90.6227 29.616 90.6227 31.1075V42.8931C90.6227 44.3847 90.0767 45.5965 88.9847 46.5287C87.8927 47.4343 85.8685 47.8871 82.9121 47.8871C79.9557 47.8871 77.9448 47.4343 76.8795 46.5287C75.8141 45.5965 75.2814 44.3847 75.2814 42.8931ZM79.6361 42.5735C79.6361 43.1062 79.8359 43.559 80.2354 43.9319C80.6349 44.2781 81.5538 44.4512 82.992 44.4512C84.4302 44.4512 85.3491 44.2781 85.7486 43.9319C86.1481 43.559 86.3479 43.1062 86.3479 42.5735V31.6669C86.3479 31.1608 86.1481 30.7347 85.7486 30.3884C85.3491 30.0155 84.4302 29.8291 82.992 29.8291C81.5538 29.8291 80.6349 30.0155 80.2354 30.3884C79.8359 30.7347 79.6361 31.1608 79.6361 31.6669V42.5735ZM124.953 43.812C124.953 45.0372 124.767 46.1558 124.394 47.1679C124.047 48.1534 123.408 49.0057 122.476 49.7248C121.57 50.4173 120.319 50.9633 118.721 51.3628C117.123 51.7623 115.085 51.9621 112.608 51.9621C110.131 51.9621 108.094 51.7623 106.495 51.3628C104.897 50.9633 103.632 50.4173 102.7 49.7248C101.795 49.0057 101.155 48.1534 100.782 47.1679C100.436 46.1558 100.263 45.0372 100.263 43.812V24.0362C100.263 23.5301 100.37 23.1706 100.583 22.9575C100.822 22.7178 101.195 22.5979 101.701 22.5979H107.974C108.48 22.5979 108.839 22.7178 109.052 22.9575C109.292 23.1706 109.412 23.5301 109.412 24.0362V42.2539C109.412 42.7866 109.612 43.2394 110.011 43.6123C110.411 43.9585 111.303 44.1316 112.688 44.1316C114.1 44.1316 115.005 43.9585 115.405 43.6123C115.804 43.2394 116.004 42.7866 116.004 42.2539V24.0362C116.004 23.5301 116.11 23.1706 116.323 22.9575C116.563 22.7178 116.936 22.5979 117.442 22.5979H123.515C124.021 22.5979 124.38 22.7178 124.593 22.9575C124.833 23.1706 124.953 23.5301 124.953 24.0362V43.812ZM104.658 26.1935V42.8532C104.658 44.4512 105.204 45.7563 106.296 46.7684C107.414 47.7539 109.532 48.2466 112.648 48.2466C115.764 48.2466 117.882 47.7539 119 46.7684C120.119 45.7563 120.678 44.4512 120.678 42.8532V26.1935H120.279V42.8532C120.279 44.3447 119.746 45.5566 118.681 46.4888C117.615 47.3943 115.604 47.8471 112.648 47.8471C109.692 47.8471 107.681 47.3943 106.615 46.4888C105.577 45.5566 105.057 44.3447 105.057 42.8532V26.1935H104.658ZM131.069 51.3628C130.563 51.3628 130.19 51.2563 129.951 51.0432C129.738 50.8035 129.631 50.4306 129.631 49.9246V45.1704C129.631 44.6643 129.738 44.3048 129.951 44.0917C130.19 43.852 130.563 43.7321 131.069 43.7321H135.024V30.3085H131.069C130.563 30.3085 130.19 30.202 129.951 29.9889C129.738 29.7492 129.631 29.3763 129.631 28.8703V24.0362C129.631 23.5301 129.738 23.1706 129.951 22.9575C130.19 22.7178 130.563 22.5979 131.069 22.5979H148.088C148.595 22.5979 148.954 22.7178 149.167 22.9575C149.407 23.1706 149.527 23.5301 149.527 24.0362V28.8703C149.527 29.3763 149.407 29.7492 149.167 29.9889C148.954 30.202 148.595 30.3085 148.088 30.3085H144.213V43.7321H148.088C148.595 43.7321 148.954 43.852 149.167 44.0917C149.407 44.3048 149.527 44.6643 149.527 45.1704V49.9246C149.527 50.4306 149.407 50.8035 149.167 51.0432C148.954 51.2563 148.595 51.3628 148.088 51.3628H131.069ZM145.931 47.7672V47.3677H139.819V26.5931H145.931V26.1935H133.227V26.5931H139.419V47.3677H133.227V47.7672H145.931ZM174.795 51.3628H154.979C154.473 51.3628 154.1 51.2563 153.86 51.0432C153.647 50.8035 153.541 50.4306 153.541 49.9246V44.5711C153.541 44.0651 153.62 43.6256 153.78 43.2527C153.94 42.8532 154.193 42.467 154.539 42.0941L164.247 30.3085H155.698C155.192 30.3085 154.819 30.202 154.579 29.9889C154.366 29.7492 154.26 29.3763 154.26 28.8703V24.0362C154.26 23.5301 154.366 23.1706 154.579 22.9575C154.819 22.7178 155.192 22.5979 155.698 22.5979H174.075C174.582 22.5979 174.941 22.7178 175.154 22.9575C175.394 23.1706 175.514 23.5301 175.514 24.0362V29.9889C175.514 30.5216 175.434 30.9877 175.274 31.3872C175.114 31.7601 174.861 32.133 174.515 32.5058L165.246 43.7321H174.795C175.301 43.7321 175.66 43.852 175.873 44.0917C176.113 44.3048 176.233 44.6643 176.233 45.1704V49.9246C176.233 50.4306 176.113 50.8035 175.873 51.0432C175.66 51.2563 175.301 51.3628 174.795 51.3628ZM170.6 29.6293C170.786 29.3896 170.946 29.1632 171.079 28.9502C171.212 28.7105 171.279 28.4441 171.279 28.1511V27.5119C171.279 27.0592 171.172 26.7262 170.959 26.5131C170.773 26.3001 170.467 26.1935 170.04 26.1935H157.855V26.5931H170.04C170.253 26.5931 170.44 26.6596 170.6 26.7928C170.786 26.8993 170.879 27.1391 170.879 27.5119V28.0712C170.879 28.3376 170.826 28.5507 170.72 28.7105C170.64 28.8703 170.506 29.07 170.32 29.3097L158.614 44.3314C158.428 44.5711 158.268 44.8108 158.135 45.0505C158.002 45.2636 157.935 45.5166 157.935 45.8096V46.4488C157.935 46.9016 158.028 47.2345 158.215 47.4476C158.428 47.6607 158.748 47.7672 159.174 47.7672H172.637V47.3677H159.174C158.961 47.3677 158.761 47.3144 158.574 47.2079C158.415 47.0747 158.335 46.8217 158.335 46.4488V45.8895C158.335 45.6231 158.375 45.4101 158.455 45.2503C158.561 45.0905 158.708 44.8907 158.894 44.651L170.6 29.6293ZM200.974 51.3628H181.158C180.652 51.3628 180.279 51.2563 180.039 51.0432C179.826 50.8035 179.72 50.4306 179.72 49.9246V44.5711C179.72 44.0651 179.799 43.6256 179.959 43.2527C180.119 42.8532 180.372 42.467 180.718 42.0941L190.426 30.3085H181.877C181.371 30.3085 180.998 30.202 180.758 29.9889C180.545 29.7492 180.439 29.3763 180.439 28.8703V24.0362C180.439 23.5301 180.545 23.1706 180.758 22.9575C180.998 22.7178 181.371 22.5979 181.877 22.5979H200.254C200.76 22.5979 201.12 22.7178 201.333 22.9575C201.573 23.1706 201.693 23.5301 201.693 24.0362V29.9889C201.693 30.5216 201.613 30.9877 201.453 31.3872C201.293 31.7601 201.04 32.133 200.694 32.5058L191.425 43.7321H200.974C201.48 43.7321 201.839 43.852 202.052 44.0917C202.292 44.3048 202.412 44.6643 202.412 45.1704V49.9246C202.412 50.4306 202.292 50.8035 202.052 51.0432C201.839 51.2563 201.48 51.3628 200.974 51.3628ZM196.779 29.6293C196.965 29.3896 197.125 29.1632 197.258 28.9502C197.391 28.7105 197.458 28.4441 197.458 28.1511V27.5119C197.458 27.0592 197.351 26.7262 197.138 26.5131C196.952 26.3001 196.646 26.1935 196.219 26.1935H184.034V26.5931H196.219C196.432 26.5931 196.619 26.6596 196.779 26.7928C196.965 26.8993 197.058 27.1391 197.058 27.5119V28.0712C197.058 28.3376 197.005 28.5507 196.899 28.7105C196.819 28.8703 196.685 29.07 196.499 29.3097L184.793 44.3314C184.607 44.5711 184.447 44.8108 184.314 45.0505C184.181 45.2636 184.114 45.5166 184.114 45.8096V46.4488C184.114 46.9016 184.207 47.2345 184.394 47.4476C184.607 47.6607 184.926 47.7672 185.353 47.7672H198.816V47.3677H185.353C185.14 47.3677 184.94 47.3144 184.753 47.2079C184.594 47.0747 184.514 46.8217 184.514 46.4488V45.8895C184.514 45.6231 184.554 45.4101 184.634 45.2503C184.74 45.0905 184.887 44.8907 185.073 44.651L196.779 29.6293ZM227.153 51.3628H207.337C206.831 51.3628 206.458 51.2563 206.218 51.0432C206.005 50.8035 205.898 50.4306 205.898 49.9246V44.5711C205.898 44.0651 205.978 43.6256 206.138 43.2527C206.298 42.8532 206.551 42.467 206.897 42.0941L216.605 30.3085H208.056C207.55 30.3085 207.177 30.202 206.937 29.9889C206.724 29.7492 206.618 29.3763 206.618 28.8703V24.0362C206.618 23.5301 206.724 23.1706 206.937 22.9575C207.177 22.7178 207.55 22.5979 208.056 22.5979H226.433C226.939 22.5979 227.299 22.7178 227.512 22.9575C227.752 23.1706 227.872 23.5301 227.872 24.0362V29.9889C227.872 30.5216 227.792 30.9877 227.632 31.3872C227.472 31.7601 227.219 32.133 226.873 32.5058L217.604 43.7321H227.153C227.659 43.7321 228.018 43.852 228.231 44.0917C228.471 44.3048 228.591 44.6643 228.591 45.1704V49.9246C228.591 50.4306 228.471 50.8035 228.231 51.0432C228.018 51.2563 227.659 51.3628 227.153 51.3628ZM222.958 29.6293C223.144 29.3896 223.304 29.1632 223.437 28.9502C223.57 28.7105 223.637 28.4441 223.637 28.1511V27.5119C223.637 27.0592 223.53 26.7262 223.317 26.5131C223.131 26.3001 222.824 26.1935 222.398 26.1935H210.213V26.5931H222.398C222.611 26.5931 222.798 26.6596 222.958 26.7928C223.144 26.8993 223.237 27.1391 223.237 27.5119V28.0712C223.237 28.3376 223.184 28.5507 223.078 28.7105C222.998 28.8703 222.864 29.07 222.678 29.3097L210.972 44.3314C210.786 44.5711 210.626 44.8108 210.493 45.0505C210.36 45.2636 210.293 45.5166 210.293 45.8096V46.4488C210.293 46.9016 210.386 47.2345 210.573 47.4476C210.786 47.6607 211.105 47.7672 211.532 47.7672H224.995V47.3677H211.532C211.319 47.3677 211.119 47.3144 210.932 47.2079C210.773 47.0747 210.693 46.8217 210.693 46.4488V45.8895C210.693 45.6231 210.733 45.4101 210.812 45.2503C210.919 45.0905 211.066 44.8907 211.252 44.651L222.958 29.6293ZM247.383 51.3628H240.911C240.405 51.3628 240.032 51.2563 239.793 51.0432C239.58 50.8035 239.473 50.4306 239.473 49.9246V44.8108L233.361 36.6208C232.748 35.7952 232.335 35.076 232.122 34.4634C231.936 33.8509 231.842 32.932 231.842 31.7068V24.0362C231.842 23.5301 231.949 23.1706 232.162 22.9575C232.402 22.7178 232.775 22.5979 233.281 22.5979H239.433C239.939 22.5979 240.299 22.7178 240.512 22.9575C240.752 23.1706 240.871 23.5301 240.871 24.0362V30.5882C240.871 30.8545 240.885 31.1342 240.911 31.4272C240.938 31.7201 241.045 31.9998 241.231 32.2661L243.069 35.1426C243.202 35.3823 243.335 35.5554 243.468 35.662C243.628 35.7685 243.814 35.8218 244.028 35.8218H244.427C244.64 35.8218 244.813 35.7685 244.946 35.662C245.106 35.5554 245.253 35.3823 245.386 35.1426L247.224 32.2661C247.41 31.9998 247.517 31.7201 247.543 31.4272C247.57 31.1342 247.583 30.8545 247.583 30.5882V24.0362C247.583 23.5301 247.69 23.1706 247.903 22.9575C248.143 22.7178 248.515 22.5979 249.021 22.5979H254.974C255.48 22.5979 255.84 22.7178 256.053 22.9575C256.293 23.1706 256.412 23.5301 256.412 24.0362V31.7068C256.412 32.932 256.306 33.8509 256.093 34.4634C255.88 35.076 255.48 35.7952 254.894 36.6208L248.822 44.8508V49.9246C248.822 50.4306 248.702 50.8035 248.462 51.0432C248.249 51.2563 247.89 51.3628 247.383 51.3628ZM244.627 40.9355C245.239 40.9355 245.772 40.8024 246.225 40.536C246.704 40.2697 247.157 39.8435 247.583 39.2576L251.578 33.8642C251.898 33.438 252.071 32.9719 252.098 32.4659C252.151 31.9332 252.178 31.3739 252.178 30.7879V26.1935H251.778V30.7879C251.778 31.3472 251.751 31.8932 251.698 32.4259C251.645 32.932 251.485 33.3581 251.219 33.7044L247.224 39.0978C246.824 39.6038 246.411 39.9767 245.985 40.2164C245.586 40.4295 245.133 40.536 244.627 40.536H243.548C243.095 40.536 242.643 40.4295 242.19 40.2164C241.737 40.0033 241.338 39.6305 240.991 39.0978L237.116 33.7044C236.85 33.3049 236.69 32.8654 236.637 32.386C236.583 31.8799 236.557 31.3472 236.557 30.7879V26.1935H236.157V30.7879C236.157 31.3739 236.184 31.9332 236.237 32.4659C236.29 32.9986 236.463 33.4647 236.756 33.8642L240.632 39.2576C241.058 39.8435 241.497 40.2697 241.95 40.536C242.43 40.8024 242.962 40.9355 243.548 40.9355H243.948V47.7672H244.347V40.9355H244.627Z" fill="#4E148C"/>
</svg>
