<svg width="64" height="65" viewBox="0 0 64 65" fill="none" xmlns="http://www.w3.org/2000/svg">
<path d="M31.9999 59.1209C17.2723 59.1209 5.33325 47.1817 5.33325 32.4543C5.33325 17.7267 17.2723 5.7876 31.9999 5.7876C46.7274 5.7876 58.6666 17.7267 58.6666 32.4543C58.6666 47.1817 46.7274 59.1209 31.9999 59.1209ZM29.3333 40.4543V45.7876H34.6666V40.4543H29.3333ZM34.6666 36.0679C38.5218 34.9204 41.3332 31.3489 41.3332 27.1209C41.3332 21.9663 37.1546 17.7876 31.9999 17.7876C27.4719 17.7876 23.6969 21.0121 22.8461 25.2902L28.0767 26.3363C28.4415 24.5029 30.0594 23.1209 31.9999 23.1209C34.209 23.1209 35.9999 24.9118 35.9999 27.1209C35.9999 29.33 34.209 31.1209 31.9999 31.1209C30.5271 31.1209 29.3333 32.3148 29.3333 33.7876V37.7876H34.6666V36.0679Z" fill="#5863F8"/>
</svg>
