<svg width="274" height="75" viewBox="0 0 274 75" fill="none" xmlns="http://www.w3.org/2000/svg">
<path d="M15.8723 30.5095C15.8722 26.1423 31.0286 6.87577 47.2126 27.1699C60.3521 43.6464 4.31235 30.5096 22.8083 50.0331C37.605 65.6518 55.4331 51.0606 54.4055 40.2713" stroke="#5863F8" stroke-width="1.54133" stroke-linecap="round"/>
<circle cx="15.1016" cy="34.1058" r="1.28444" fill="#4E148C"/>
<circle cx="54.1485" cy="36.6747" r="1.28444" fill="#4E148C"/>
<path d="M53.3777 30.3858C53.3778 26.0186 38.2214 6.75212 22.0374 27.0462C8.89789 43.5227 64.9376 30.3859 46.4417 49.9094C31.645 65.5282 13.8169 50.937 14.8445 40.1477" stroke="#5863F8" stroke-width="1.54133" stroke-linecap="round"/>
<circle cx="1.28444" cy="1.28444" r="1.28444" transform="matrix(-1 0 0 1 55.4329 32.184)" fill="#4E148C"/>
<circle cx="1.28444" cy="1.28444" r="1.28444" transform="matrix(-1 0 0 1 16.386 35.7804)" fill="#4E148C"/>
<path d="M86.5283 54.9127H80.3758C79.8698 54.9127 79.4969 54.7928 79.2572 54.5531C79.0441 54.3401 78.9376 53.9805 78.9376 53.4744V51.2771C75.848 50.8243 73.7572 49.9055 72.6652 48.5205C71.5999 47.1089 71.0672 45.4043 71.0672 43.4067V30.1429C71.0672 28.9178 71.2403 27.8124 71.5865 26.827C71.9594 25.8149 72.5986 24.9493 73.5042 24.2302C74.4364 23.511 75.7148 22.9517 77.3395 22.5522C78.9642 22.1527 81.015 21.9529 83.492 21.9529C85.969 21.9529 88.0065 22.1527 89.6045 22.5522C91.2292 22.9517 92.4943 23.511 93.3999 24.2302C94.3321 24.9493 94.9713 25.8149 95.3176 26.827C95.6904 27.8124 95.8769 28.9178 95.8769 30.1429V43.4067C95.8769 44.4188 95.757 45.3643 95.5173 46.2433C95.2776 47.0956 94.8648 47.8546 94.2788 48.5205C93.6929 49.1863 92.8805 49.759 91.8418 50.2384C90.8297 50.7178 89.538 51.0641 87.9665 51.2771V53.4744C87.9665 53.9805 87.8467 54.3401 87.607 54.5531C87.3939 54.7928 87.0343 54.9127 86.5283 54.9127ZM83.2123 51.3171H83.6119V48.2408C86.6481 48.2142 88.7256 47.7082 89.8442 46.7227C90.9629 45.7372 91.5222 44.4455 91.5222 42.8474V31.0618C91.5222 29.4638 90.9496 28.172 89.8043 27.1865C88.659 26.1744 86.5283 25.6684 83.4121 25.6684C80.2959 25.6684 78.1785 26.1744 77.0599 27.1865C75.9412 28.172 75.3819 29.4638 75.3819 31.0618V42.8474C75.3819 44.4455 75.9279 45.7372 77.0199 46.7227C78.1119 47.7082 80.176 48.2142 83.2123 48.2408V51.3171ZM75.7814 42.8474V31.0618C75.7814 29.5703 76.3141 28.3718 77.3795 27.4662C78.4448 26.534 80.4557 26.0679 83.4121 26.0679C86.3685 26.0679 88.3927 26.534 89.4847 27.4662C90.5767 28.3718 91.1227 29.5703 91.1227 31.0618V42.8474C91.1227 44.3389 90.5767 45.5508 89.4847 46.483C88.3927 47.3885 86.3685 47.8413 83.4121 47.8413C80.4557 47.8413 78.4448 47.3885 77.3795 46.483C76.3141 45.5508 75.7814 44.3389 75.7814 42.8474ZM80.1361 42.5278C80.1361 43.0605 80.3359 43.5133 80.7354 43.8862C81.1349 44.2324 82.0538 44.4055 83.492 44.4055C84.9302 44.4055 85.8491 44.2324 86.2486 43.8862C86.6481 43.5133 86.8479 43.0605 86.8479 42.5278V31.6211C86.8479 31.1151 86.6481 30.6889 86.2486 30.3427C85.8491 29.9698 84.9302 29.7834 83.492 29.7834C82.0538 29.7834 81.1349 29.9698 80.7354 30.3427C80.3359 30.6889 80.1361 31.1151 80.1361 31.6211V42.5278ZM125.453 43.7663C125.453 44.9915 125.267 46.1101 124.894 47.1222C124.547 48.1077 123.908 48.96 122.976 49.6791C122.07 50.3716 120.819 50.9176 119.221 51.3171C117.623 51.7166 115.585 51.9163 113.108 51.9163C110.631 51.9163 108.594 51.7166 106.995 51.3171C105.397 50.9176 104.132 50.3716 103.2 49.6791C102.295 48.96 101.655 48.1077 101.282 47.1222C100.936 46.1101 100.763 44.9915 100.763 43.7663V23.9904C100.763 23.4844 100.87 23.1248 101.083 22.9118C101.322 22.6721 101.695 22.5522 102.201 22.5522H108.474C108.98 22.5522 109.339 22.6721 109.552 22.9118C109.792 23.1248 109.912 23.4844 109.912 23.9904V42.2082C109.912 42.7409 110.112 43.1937 110.511 43.5665C110.911 43.9128 111.803 44.0859 113.188 44.0859C114.6 44.0859 115.505 43.9128 115.905 43.5665C116.304 43.1937 116.504 42.7409 116.504 42.2082V23.9904C116.504 23.4844 116.61 23.1248 116.823 22.9118C117.063 22.6721 117.436 22.5522 117.942 22.5522H124.015C124.521 22.5522 124.88 22.6721 125.093 22.9118C125.333 23.1248 125.453 23.4844 125.453 23.9904V43.7663ZM105.158 26.1478V42.8075C105.158 44.4055 105.704 45.7106 106.796 46.7227C107.914 47.7082 110.032 48.2009 113.148 48.2009C116.264 48.2009 118.382 47.7082 119.5 46.7227C120.619 45.7106 121.178 44.4055 121.178 42.8075V26.1478H120.779V42.8075C120.779 44.299 120.246 45.5108 119.181 46.443C118.115 47.3486 116.104 47.8014 113.148 47.8014C110.192 47.8014 108.181 47.3486 107.115 46.443C106.077 45.5108 105.557 44.299 105.557 42.8075V26.1478H105.158ZM131.569 51.3171C131.063 51.3171 130.69 51.2105 130.451 50.9975C130.238 50.7578 130.131 50.3849 130.131 49.8788V45.1246C130.131 44.6186 130.238 44.259 130.451 44.046C130.69 43.8062 131.063 43.6864 131.569 43.6864H135.524V30.2628H131.569C131.063 30.2628 130.69 30.1562 130.451 29.9432C130.238 29.7035 130.131 29.3306 130.131 28.8245V23.9904C130.131 23.4844 130.238 23.1248 130.451 22.9118C130.69 22.6721 131.063 22.5522 131.569 22.5522H148.588C149.095 22.5522 149.454 22.6721 149.667 22.9118C149.907 23.1248 150.027 23.4844 150.027 23.9904V28.8245C150.027 29.3306 149.907 29.7035 149.667 29.9432C149.454 30.1562 149.095 30.2628 148.588 30.2628H144.713V43.6864H148.588C149.095 43.6864 149.454 43.8062 149.667 44.046C149.907 44.259 150.027 44.6186 150.027 45.1246V49.8788C150.027 50.3849 149.907 50.7578 149.667 50.9975C149.454 51.2105 149.095 51.3171 148.588 51.3171H131.569ZM146.431 47.7215V47.322H140.319V26.5473H146.431V26.1478H133.727V26.5473H139.919V47.322H133.727V47.7215H146.431ZM175.295 51.3171H155.479C154.973 51.3171 154.6 51.2105 154.36 50.9975C154.147 50.7578 154.041 50.3849 154.041 49.8788V44.5254C154.041 44.0193 154.12 43.5799 154.28 43.207C154.44 42.8075 154.693 42.4213 155.039 42.0484L164.747 30.2628H156.198C155.692 30.2628 155.319 30.1562 155.079 29.9432C154.866 29.7035 154.76 29.3306 154.76 28.8245V23.9904C154.76 23.4844 154.866 23.1248 155.079 22.9118C155.319 22.6721 155.692 22.5522 156.198 22.5522H174.575C175.082 22.5522 175.441 22.6721 175.654 22.9118C175.894 23.1248 176.014 23.4844 176.014 23.9904V29.9432C176.014 30.4759 175.934 30.942 175.774 31.3415C175.614 31.7143 175.361 32.0872 175.015 32.4601L165.746 43.6864H175.295C175.801 43.6864 176.16 43.8062 176.373 44.046C176.613 44.259 176.733 44.6186 176.733 45.1246V49.8788C176.733 50.3849 176.613 50.7578 176.373 50.9975C176.16 51.2105 175.801 51.3171 175.295 51.3171ZM171.1 29.5836C171.286 29.3439 171.446 29.1175 171.579 28.9044C171.712 28.6647 171.779 28.3984 171.779 28.1054V27.4662C171.779 27.0134 171.672 26.6805 171.459 26.4674C171.273 26.2543 170.967 26.1478 170.54 26.1478H158.355V26.5473H170.54C170.753 26.5473 170.94 26.6139 171.1 26.7471C171.286 26.8536 171.379 27.0933 171.379 27.4662V28.0255C171.379 28.2919 171.326 28.5049 171.22 28.6647C171.14 28.8245 171.006 29.0243 170.82 29.264L159.114 44.2857C158.928 44.5254 158.768 44.7651 158.635 45.0048C158.502 45.2179 158.435 45.4709 158.435 45.7639V46.4031C158.435 46.8559 158.528 47.1888 158.715 47.4019C158.928 47.6149 159.248 47.7215 159.674 47.7215H173.137V47.322H159.674C159.461 47.322 159.261 47.2687 159.074 47.1622C158.915 47.029 158.835 46.776 158.835 46.4031V45.8438C158.835 45.5774 158.875 45.3643 158.955 45.2045C159.061 45.0447 159.208 44.845 159.394 44.6053L171.1 29.5836ZM201.474 51.3171H181.658C181.152 51.3171 180.779 51.2105 180.539 50.9975C180.326 50.7578 180.22 50.3849 180.22 49.8788V44.5254C180.22 44.0193 180.299 43.5799 180.459 43.207C180.619 42.8075 180.872 42.4213 181.218 42.0484L190.926 30.2628H182.377C181.871 30.2628 181.498 30.1562 181.258 29.9432C181.045 29.7035 180.939 29.3306 180.939 28.8245V23.9904C180.939 23.4844 181.045 23.1248 181.258 22.9118C181.498 22.6721 181.871 22.5522 182.377 22.5522H200.754C201.26 22.5522 201.62 22.6721 201.833 22.9118C202.073 23.1248 202.193 23.4844 202.193 23.9904V29.9432C202.193 30.4759 202.113 30.942 201.953 31.3415C201.793 31.7143 201.54 32.0872 201.194 32.4601L191.925 43.6864H201.474C201.98 43.6864 202.339 43.8062 202.552 44.046C202.792 44.259 202.912 44.6186 202.912 45.1246V49.8788C202.912 50.3849 202.792 50.7578 202.552 50.9975C202.339 51.2105 201.98 51.3171 201.474 51.3171ZM197.279 29.5836C197.465 29.3439 197.625 29.1175 197.758 28.9044C197.891 28.6647 197.958 28.3984 197.958 28.1054V27.4662C197.958 27.0134 197.851 26.6805 197.638 26.4674C197.452 26.2543 197.146 26.1478 196.719 26.1478H184.534V26.5473H196.719C196.932 26.5473 197.119 26.6139 197.279 26.7471C197.465 26.8536 197.558 27.0933 197.558 27.4662V28.0255C197.558 28.2919 197.505 28.5049 197.399 28.6647C197.319 28.8245 197.185 29.0243 196.999 29.264L185.293 44.2857C185.107 44.5254 184.947 44.7651 184.814 45.0048C184.681 45.2179 184.614 45.4709 184.614 45.7639V46.4031C184.614 46.8559 184.707 47.1888 184.894 47.4019C185.107 47.6149 185.426 47.7215 185.853 47.7215H199.316V47.322H185.853C185.64 47.322 185.44 47.2687 185.253 47.1622C185.094 47.029 185.014 46.776 185.014 46.4031V45.8438C185.014 45.5774 185.054 45.3643 185.134 45.2045C185.24 45.0447 185.387 44.845 185.573 44.6053L197.279 29.5836ZM227.653 51.3171H207.837C207.331 51.3171 206.958 51.2105 206.718 50.9975C206.505 50.7578 206.398 50.3849 206.398 49.8788V44.5254C206.398 44.0193 206.478 43.5799 206.638 43.207C206.798 42.8075 207.051 42.4213 207.397 42.0484L217.105 30.2628H208.556C208.05 30.2628 207.677 30.1562 207.437 29.9432C207.224 29.7035 207.118 29.3306 207.118 28.8245V23.9904C207.118 23.4844 207.224 23.1248 207.437 22.9118C207.677 22.6721 208.05 22.5522 208.556 22.5522H226.933C227.439 22.5522 227.799 22.6721 228.012 22.9118C228.252 23.1248 228.372 23.4844 228.372 23.9904V29.9432C228.372 30.4759 228.292 30.942 228.132 31.3415C227.972 31.7143 227.719 32.0872 227.373 32.4601L218.104 43.6864H227.653C228.159 43.6864 228.518 43.8062 228.731 44.046C228.971 44.259 229.091 44.6186 229.091 45.1246V49.8788C229.091 50.3849 228.971 50.7578 228.731 50.9975C228.518 51.2105 228.159 51.3171 227.653 51.3171ZM223.458 29.5836C223.644 29.3439 223.804 29.1175 223.937 28.9044C224.07 28.6647 224.137 28.3984 224.137 28.1054V27.4662C224.137 27.0134 224.03 26.6805 223.817 26.4674C223.631 26.2543 223.324 26.1478 222.898 26.1478H210.713V26.5473H222.898C223.111 26.5473 223.298 26.6139 223.458 26.7471C223.644 26.8536 223.737 27.0933 223.737 27.4662V28.0255C223.737 28.2919 223.684 28.5049 223.578 28.6647C223.498 28.8245 223.364 29.0243 223.178 29.264L211.472 44.2857C211.286 44.5254 211.126 44.7651 210.993 45.0048C210.86 45.2179 210.793 45.4709 210.793 45.7639V46.4031C210.793 46.8559 210.886 47.1888 211.073 47.4019C211.286 47.6149 211.605 47.7215 212.032 47.7215H225.495V47.322H212.032C211.819 47.322 211.619 47.2687 211.432 47.1622C211.273 47.029 211.193 46.776 211.193 46.4031V45.8438C211.193 45.5774 211.233 45.3643 211.312 45.2045C211.419 45.0447 211.566 44.845 211.752 44.6053L223.458 29.5836ZM247.883 51.3171H241.411C240.905 51.3171 240.532 51.2105 240.293 50.9975C240.08 50.7578 239.973 50.3849 239.973 49.8788V44.7651L233.861 36.5751C233.248 35.7494 232.835 35.0303 232.622 34.4177C232.436 33.8051 232.342 32.8862 232.342 31.6611V23.9904C232.342 23.4844 232.449 23.1248 232.662 22.9118C232.902 22.6721 233.275 22.5522 233.781 22.5522H239.933C240.439 22.5522 240.799 22.6721 241.012 22.9118C241.252 23.1248 241.371 23.4844 241.371 23.9904V30.5424C241.371 30.8088 241.385 31.0884 241.411 31.3814C241.438 31.6744 241.545 31.9541 241.731 32.2204L243.569 35.0969C243.702 35.3366 243.835 35.5097 243.968 35.6162C244.128 35.7228 244.314 35.7761 244.528 35.7761H244.927C245.14 35.7761 245.313 35.7228 245.446 35.6162C245.606 35.5097 245.753 35.3366 245.886 35.0969L247.724 32.2204C247.91 31.9541 248.017 31.6744 248.043 31.3814C248.07 31.0884 248.083 30.8088 248.083 30.5424V23.9904C248.083 23.4844 248.19 23.1248 248.403 22.9118C248.643 22.6721 249.015 22.5522 249.521 22.5522H255.474C255.98 22.5522 256.34 22.6721 256.553 22.9118C256.793 23.1248 256.912 23.4844 256.912 23.9904V31.6611C256.912 32.8862 256.806 33.8051 256.593 34.4177C256.38 35.0303 255.98 35.7494 255.394 36.5751L249.322 44.805V49.8788C249.322 50.3849 249.202 50.7578 248.962 50.9975C248.749 51.2105 248.39 51.3171 247.883 51.3171ZM245.127 40.8898C245.739 40.8898 246.272 40.7566 246.725 40.4903C247.204 40.224 247.657 39.7978 248.083 39.2119L252.078 33.8184C252.398 33.3923 252.571 32.9262 252.598 32.4202C252.651 31.8875 252.678 31.3282 252.678 30.7422V26.1478H252.278V30.7422C252.278 31.3015 252.251 31.8475 252.198 32.3802C252.145 32.8862 251.985 33.3124 251.719 33.6586L247.724 39.0521C247.324 39.5581 246.911 39.931 246.485 40.1707C246.086 40.3838 245.633 40.4903 245.127 40.4903H244.048C243.595 40.4903 243.143 40.3838 242.69 40.1707C242.237 39.9576 241.838 39.5847 241.491 39.0521L237.616 33.6586C237.35 33.2591 237.19 32.8197 237.137 32.3402C237.083 31.8342 237.057 31.3015 237.057 30.7422V26.1478H236.657V30.7422C236.657 31.3282 236.684 31.8875 236.737 32.4202C236.79 32.9528 236.963 33.4189 237.256 33.8184L241.132 39.2119C241.558 39.7978 241.997 40.224 242.45 40.4903C242.93 40.7566 243.462 40.8898 244.048 40.8898H244.448V47.7215H244.847V40.8898H245.127Z" fill="#4E148C"/>
</svg>
