<svg width="800" height="598" viewBox="0 0 800 598" fill="none" xmlns="http://www.w3.org/2000/svg">
<path d="M800.005 524.795H-0.00537109V525.195H800.005V524.795Z" fill="#EBEBEB"/>
<path d="M719.844 550.539H666.852V550.939H719.844V550.539Z" fill="#EBEBEB"/>
<path d="M529.954 554.891H516.05V555.291H529.954V554.891Z" fill="#EBEBEB"/>
<path d="M665.252 535.691H634.547V536.091H665.252V535.691Z" fill="#EBEBEB"/>
<path d="M153.037 538.379H83.9318V538.779H153.037V538.379Z" fill="#EBEBEB"/>
<path d="M177.421 538.379H167.293V538.779H177.421V538.379Z" fill="#EBEBEB"/>
<path d="M360.239 545.131H210.349V545.531H360.239V545.131Z" fill="#EBEBEB"/>
<path d="M379.2 453.434H70.2516C67.8313 453.43 65.5116 452.465 63.8017 450.753C62.0918 449.04 61.1315 446.718 61.1315 444.298V10.0041C61.1525 7.59776 62.1222 5.29685 63.8298 3.60121C65.5374 1.90557 67.8451 0.952151 70.2516 0.948029H379.2C381.623 0.948029 383.947 1.91058 385.66 3.62394C387.373 5.33729 388.336 7.6611 388.336 10.0841V444.298C388.336 446.721 387.373 449.045 385.66 450.758C383.947 452.472 381.623 453.434 379.2 453.434ZM70.2516 1.26803C67.9374 1.27227 65.7194 2.19455 64.0846 3.83243C62.4497 5.47031 61.5315 7.68996 61.5315 10.0041V444.298C61.5315 446.612 62.4497 448.832 64.0846 450.47C65.7194 452.108 67.9374 453.03 70.2516 453.034H379.2C381.515 453.03 383.735 452.108 385.372 450.471C387.01 448.833 387.932 446.614 387.936 444.298V10.0041C387.932 7.68849 387.01 5.46888 385.372 3.83145C383.735 2.19403 381.515 1.27226 379.2 1.26803H70.2516Z" fill="#EBEBEB"/>
<path d="M725.3 453.434H416.336C413.914 453.43 411.593 452.466 409.881 450.754C408.168 449.041 407.204 446.72 407.2 444.298V10.0041C407.225 7.5963 408.199 5.29541 409.909 3.60021C411.619 1.90502 413.928 0.952106 416.336 0.948029H725.3C727.704 0.956356 730.008 1.91164 731.712 3.60683C733.416 5.30202 734.383 7.60052 734.404 10.0041V444.298C734.405 446.715 733.446 449.034 731.74 450.747C730.033 452.459 727.718 453.426 725.3 453.434ZM416.336 1.26803C414.021 1.27226 411.801 2.19403 410.163 3.83145C408.526 5.46888 407.604 7.68849 407.6 10.0041V444.298C407.604 446.614 408.526 448.833 410.163 450.471C411.801 452.108 414.021 453.03 416.336 453.034H725.3C727.616 453.03 729.836 452.108 731.473 450.471C733.11 448.833 734.032 446.614 734.036 444.298V10.0041C734.032 7.68849 733.11 5.46888 731.473 3.83145C729.836 2.19403 727.616 1.27226 725.3 1.26803H416.336Z" fill="#EBEBEB"/>
<path d="M387.744 191.159H160.573V524.235H387.744V191.159Z" fill="#F0F0F0"/>
<path d="M379.712 201.639H168.589V263.16H379.712V201.639Z" fill="#E0E0E0"/>
<path d="M180.589 211.591H168.589V263.144H180.589V211.591Z" fill="#EBEBEB"/>
<path d="M238.59 211.591H226.59V263.144H238.59V211.591Z" fill="#EBEBEB"/>
<path d="M304.418 210.296L292.592 212.334L301.349 263.138L313.175 261.099L304.418 210.296Z" fill="#EBEBEB"/>
<path d="M195.453 218.391H183.453V263.16H195.453V218.391Z" fill="#EBEBEB"/>
<path d="M223.022 218.391H211.021V263.16H223.022V218.391Z" fill="#EBEBEB"/>
<path d="M292.607 218.391H280.606V263.16H292.607V218.391Z" fill="#EBEBEB"/>
<path d="M254.352 216.837L242.638 219.441L252.35 263.143L264.065 260.54L254.352 216.837Z" fill="#EBEBEB"/>
<path d="M205.821 209.031H199.821V263.144H205.821V209.031Z" fill="#EBEBEB"/>
<path d="M277.15 209.031H271.15V263.144H277.15V209.031Z" fill="#EBEBEB"/>
<path d="M168.605 334.424H379.728V272.904H168.605V334.424Z" fill="#E0E0E0"/>
<path d="M367.712 334.408H379.712V282.856H367.712V334.408Z" fill="#EBEBEB"/>
<path d="M309.727 334.408H321.727V282.856H309.727V334.408Z" fill="#EBEBEB"/>
<path d="M235.145 332.36L246.971 334.398L255.728 283.595L243.902 281.556L235.145 332.36Z" fill="#EBEBEB"/>
<path d="M352.847 334.424H364.848V289.656H352.847V334.424Z" fill="#EBEBEB"/>
<path d="M325.295 334.424H337.295V289.656H325.295V334.424Z" fill="#EBEBEB"/>
<path d="M255.71 334.424H267.71V289.656H255.71V334.424Z" fill="#EBEBEB"/>
<path d="M284.291 331.809L296.005 334.412L305.718 290.71L294.004 288.107L284.291 331.809Z" fill="#EBEBEB"/>
<path d="M342.479 334.408H348.479V280.296H342.479V334.408Z" fill="#EBEBEB"/>
<path d="M271.166 334.408H277.166V280.296H271.166V334.408Z" fill="#EBEBEB"/>
<path d="M180.589 282.856H168.589V334.408H180.589V282.856Z" fill="#EBEBEB"/>
<path d="M195.453 289.64H183.453V334.409H195.453V289.64Z" fill="#EBEBEB"/>
<path d="M223.022 289.64H211.021V334.409H223.022V289.64Z" fill="#EBEBEB"/>
<path d="M205.821 280.296H199.821V334.408H205.821V280.296Z" fill="#EBEBEB"/>
<path d="M379.712 344.153H168.589V405.673H379.712V344.153Z" fill="#E0E0E0"/>
<path d="M301.775 354.105H289.775V405.657H301.775V354.105Z" fill="#EBEBEB"/>
<path d="M367.612 352.806L355.786 354.844L364.544 405.648L376.369 403.61L367.612 352.806Z" fill="#EBEBEB"/>
<path d="M258.638 360.905H246.638V405.673H258.638V360.905Z" fill="#EBEBEB"/>
<path d="M286.206 360.905H274.206V405.673H286.206V360.905Z" fill="#EBEBEB"/>
<path d="M355.791 360.905H343.791V405.673H355.791V360.905Z" fill="#EBEBEB"/>
<path d="M317.542 359.353L305.828 361.957L315.54 405.659L327.255 403.056L317.542 359.353Z" fill="#EBEBEB"/>
<path d="M269.006 351.545H263.006V405.657H269.006V351.545Z" fill="#EBEBEB"/>
<path d="M340.335 351.545H334.335V405.657H340.335V351.545Z" fill="#EBEBEB"/>
<path d="M229.631 352.818L217.806 354.856L226.563 405.66L238.388 403.622L229.631 352.818Z" fill="#EBEBEB"/>
<path d="M217.806 360.905H205.805V405.673H217.806V360.905Z" fill="#EBEBEB"/>
<path d="M179.563 359.353L167.848 361.956L177.561 405.659L189.275 403.055L179.563 359.353Z" fill="#EBEBEB"/>
<path d="M202.365 351.545H196.365V405.657H202.365V351.545Z" fill="#EBEBEB"/>
<path d="M121.372 525.099H160.573L160.573 191.159H121.372L121.372 525.099Z" fill="#E0E0E0"/>
<path d="M520.706 516.379H487.409L504.913 373.753C505.333 370.773 506.797 368.039 509.045 366.038C511.292 364.036 514.177 362.898 517.186 362.825H662.404L641.107 516.315L520.706 516.379Z" fill="#F5F5F5"/>
<path d="M626.307 516.379H659.604L677.124 373.753C677.338 372.382 677.247 370.981 676.86 369.648C676.472 368.316 675.797 367.085 674.881 366.042C673.965 365 672.832 364.171 671.56 363.615C670.289 363.059 668.911 362.79 667.524 362.825H656.084C653.081 362.917 650.206 364.062 647.962 366.06C645.719 368.057 644.249 370.781 643.811 373.753L626.307 516.379Z" fill="#F0F0F0"/>
<path d="M614.051 516.155L620.083 447.194C620.21 445.698 620.847 444.291 621.886 443.208C622.926 442.124 624.306 441.431 625.795 441.242L628.275 440.922C630.277 440.671 632.132 439.739 633.527 438.282C634.923 436.826 635.775 434.933 635.939 432.922L637.043 420.346C637.152 419.126 637.006 417.898 636.614 416.738C636.222 415.579 635.593 414.513 634.766 413.61C633.94 412.707 632.935 411.986 631.814 411.493C630.694 411 629.483 410.745 628.259 410.745H683.908C685.132 410.745 686.343 411 687.463 411.493C688.583 411.986 689.589 412.707 690.415 413.61C691.241 414.513 691.87 415.579 692.263 416.738C692.655 417.898 692.801 419.126 692.692 420.346L691.588 432.922C691.423 434.933 690.572 436.826 689.176 438.282C687.78 439.739 685.926 440.671 683.924 440.922L681.444 441.242C679.955 441.433 678.577 442.128 677.538 443.211C676.499 444.294 675.862 445.699 675.732 447.194L669.7 516.155C669.484 518.578 668.369 520.833 666.575 522.477C664.781 524.12 662.437 525.033 660.003 525.035H604.355C606.788 525.033 609.132 524.12 610.926 522.477C612.721 520.833 613.835 518.578 614.051 516.155Z" fill="#E6E6E6"/>
<path d="M460.897 429.994C460.456 424.759 458.065 419.881 454.198 416.325C450.331 412.769 445.27 410.795 440.017 410.793H488.465C493.705 410.815 498.746 412.798 502.596 416.352C506.446 419.906 508.826 424.773 509.266 429.994L514.066 484.65H465.681L460.897 429.994Z" fill="#E6E6E6"/>
<path d="M418.496 410.857H440.001C445.254 410.859 450.315 412.833 454.182 416.389C458.049 419.945 460.44 424.823 460.881 430.058L465.681 484.714H581.074L585.875 430.058C586.311 424.835 588.689 419.966 592.54 416.412C596.391 412.857 601.434 410.875 606.675 410.857H628.195C629.419 410.857 630.63 411.112 631.75 411.605C632.871 412.098 633.876 412.819 634.702 413.722C635.529 414.625 636.158 415.691 636.55 416.85C636.942 418.01 637.088 419.238 636.979 420.458L635.875 433.034C635.711 435.045 634.859 436.938 633.463 438.394C632.068 439.851 630.213 440.783 628.211 441.034L625.731 441.354C624.242 441.543 622.862 442.236 621.822 443.32C620.783 444.403 620.146 445.81 620.019 447.306L614.051 516.155C613.835 518.578 612.721 520.833 610.926 522.477C609.132 524.12 606.788 525.033 604.355 525.035H442.401C439.968 525.033 437.623 524.12 435.829 522.477C434.035 520.833 432.92 518.578 432.704 516.155L426.672 447.194C426.539 445.7 425.901 444.296 424.862 443.214C423.824 442.132 422.448 441.436 420.96 441.242L418.48 440.922C416.478 440.669 414.623 439.737 413.225 438.281C411.827 436.825 410.971 434.933 410.8 432.922L409.712 420.346C409.62 419.135 409.778 417.919 410.177 416.773C410.577 415.626 411.209 414.575 412.033 413.684C412.858 412.794 413.858 412.083 414.97 411.596C416.082 411.11 417.282 410.858 418.496 410.857Z" fill="#F0F0F0"/>
<path d="M163.453 174.518C163.453 174.518 161.677 162.822 170.205 155.318C178.733 147.814 177.981 143.366 175.533 142.79C173.085 142.214 170.861 149.702 167.117 151.766C167.117 151.766 166.989 141.078 170.797 137.158C174.605 133.238 176.605 123.078 172.973 122.902C169.341 122.726 168.989 128.918 168.173 133.318C167.357 137.718 163.373 143.894 163.373 143.894C163.373 143.894 162.589 134.294 160.173 130.406C157.757 126.518 164.269 117.478 161.773 113.558C159.277 109.637 154.749 117.11 155.117 125.542C155.485 133.974 161.117 142.966 159.805 151.766C159.805 151.766 157.325 145.574 155.101 145.014C152.877 144.454 150.621 140.374 149.133 138.854C147.645 137.334 145.757 142.582 149.133 147.446C152.509 152.31 161.117 165.35 159.805 175.878L163.453 174.518Z" fill="#E6E6E6"/>
<path d="M168.541 169.19L171.341 186.711C171.542 187.983 171.465 189.283 171.115 190.523C170.766 191.762 170.152 192.911 169.315 193.89C168.479 194.87 167.44 195.656 166.271 196.195C165.101 196.735 163.829 197.014 162.541 197.015H159.565C158.277 197.014 157.004 196.735 155.835 196.195C154.665 195.656 153.627 194.87 152.79 193.89C151.954 192.911 151.34 191.762 150.99 190.523C150.64 189.283 150.564 187.983 150.765 186.711L153.597 169.19H168.541Z" fill="#E6E6E6"/>
<path d="M336.079 193.591H344.767V156.23H336.079V193.591Z" fill="#EBEBEB"/>
<path d="M294.063 193.591H302.751V156.23H294.063V193.591Z" fill="#EBEBEB"/>
<path d="M240.021 192.106L248.583 193.581L254.929 156.764L246.367 155.288L240.021 192.106Z" fill="#EBEBEB"/>
<path d="M325.311 193.575H333.999V161.142H325.311V193.575Z" fill="#EBEBEB"/>
<path d="M305.343 193.575H314.031V161.142H305.343V193.575Z" fill="#EBEBEB"/>
<path d="M254.91 193.575H263.598V161.142H254.91V193.575Z" fill="#EBEBEB"/>
<path d="M275.631 191.693L284.112 193.578L291.148 161.918L282.667 160.033L275.631 191.693Z" fill="#EBEBEB"/>
<path d="M317.791 193.591H322.143V154.374H317.791V193.591Z" fill="#EBEBEB"/>
<path d="M266.094 193.591H270.446V154.374H266.094V193.591Z" fill="#EBEBEB"/>
<path d="M235.118 163.926H192.765V193.159H235.118V163.926Z" fill="#EBEBEB"/>
<path d="M380.368 175.894H344.895V197.719H380.368V175.894Z" fill="#EBEBEB"/>
<path d="M372.08 156.71H354.335V178.534H372.08V156.71Z" fill="#EBEBEB"/>
<path d="M668.5 127.83H626.307V303.64H668.5V127.83Z" fill="#E0E0E0"/>
<path d="M506.178 304.12H663.972V127.846L506.178 127.846V304.12Z" fill="#E0E0E0"/>
<path d="M501.089 304.12H664.803V127.846L501.089 127.846V304.12Z" fill="#F0F0F0"/>
<path d="M508.098 296.008H658.083V133.446L508.098 133.446V296.008Z" fill="white"/>
<path d="M508.081 296.008H510.865V133.446H508.081V296.008Z" fill="#E0E0E0"/>
<path d="M510.417 250.359V254.743H658.483V250.359H510.417Z" fill="#E0E0E0"/>
<path d="M508.081 250.343L660.419 250.343V242.983L508.081 242.983V250.343Z" fill="#F0F0F0"/>
<path d="M400 597.052C571.334 597.052 710.228 588.943 710.228 578.94C710.228 568.937 571.334 560.828 400 560.828C228.666 560.828 89.7719 568.937 89.7719 578.94C89.7719 588.943 228.666 597.052 400 597.052Z" fill="#F5F5F5"/>
<path d="M515.122 157.462H228.862C222.393 157.462 217.15 162.706 217.15 169.174V506.235C217.15 512.703 222.393 517.947 228.862 517.947H515.122C521.59 517.947 526.834 512.703 526.834 506.235V169.174C526.834 162.706 521.59 157.462 515.122 157.462Z" fill="#407BFF"/>
<path opacity="0.6" d="M515.122 157.462H228.862C222.393 157.462 217.15 162.706 217.15 169.174V506.235C217.15 512.703 222.393 517.947 228.862 517.947H515.122C521.59 517.947 526.834 512.703 526.834 506.235V169.174C526.834 162.706 521.59 157.462 515.122 157.462Z" fill="white"/>
<path d="M476.673 322.792H267.326V358.633H476.673V322.792Z" fill="white"/>
<g opacity="0.4">
<path d="M286.046 344.201V345.145H278.782V334.872H285.822V335.8H279.87V339.465H285.182V340.377H279.87V344.201H286.046Z" fill="#263238"/>
<path d="M287.502 340.713H291.358V341.609H287.502V340.713Z" fill="#263238"/>
<path d="M306.415 340.665V345.145H305.375V340.761C305.375 339.161 304.559 338.297 303.167 338.297C302.806 338.28 302.446 338.342 302.111 338.479C301.777 338.616 301.477 338.824 301.231 339.09C300.986 339.355 300.801 339.67 300.691 340.014C300.58 340.358 300.546 340.722 300.591 341.081V345.145H299.535V340.761C299.535 339.161 298.719 338.297 297.311 338.297C296.95 338.28 296.589 338.342 296.255 338.479C295.921 338.616 295.621 338.824 295.375 339.09C295.13 339.355 294.945 339.67 294.835 340.014C294.724 340.358 294.69 340.722 294.734 341.081V345.145H293.678V337.417H294.686V338.825C294.988 338.353 295.409 337.969 295.906 337.71C296.403 337.452 296.959 337.329 297.519 337.353C298.084 337.305 298.65 337.433 299.14 337.719C299.63 338.006 300.019 338.436 300.255 338.953C300.574 338.437 301.026 338.016 301.564 337.735C302.102 337.454 302.705 337.322 303.311 337.353C303.745 337.32 304.181 337.384 304.587 337.542C304.993 337.7 305.358 337.947 305.656 338.265C305.954 338.583 306.177 338.963 306.308 339.379C306.439 339.794 306.476 340.233 306.415 340.665Z" fill="#263238"/>
<path d="M315.087 340.345V345.145H314.079V343.929C313.792 344.361 313.394 344.709 312.927 344.934C312.459 345.16 311.94 345.254 311.423 345.209C309.679 345.209 308.607 344.297 308.607 342.969C308.607 341.641 309.375 340.777 311.583 340.777H314.031V340.313C314.031 338.985 313.295 338.265 311.855 338.265C310.915 338.254 310.002 338.577 309.279 339.177L308.815 338.409C309.719 337.681 310.855 337.306 312.015 337.353C312.423 337.303 312.837 337.345 313.227 337.477C313.617 337.609 313.972 337.826 314.267 338.113C314.562 338.4 314.789 338.749 314.93 339.136C315.072 339.522 315.126 339.935 315.087 340.345ZM314.031 342.825V341.561H311.615C310.127 341.561 309.631 342.137 309.631 342.937C309.631 343.737 310.351 344.393 311.583 344.393C312.105 344.427 312.624 344.294 313.065 344.011C313.505 343.729 313.844 343.313 314.031 342.825Z" fill="#263238"/>
<path d="M317.679 334.984C317.681 334.886 317.702 334.788 317.742 334.698C317.782 334.607 317.839 334.526 317.91 334.457C317.982 334.389 318.066 334.335 318.158 334.3C318.25 334.264 318.348 334.246 318.447 334.248C318.543 334.246 318.64 334.263 318.73 334.298C318.82 334.333 318.902 334.386 318.972 334.453C319.042 334.52 319.098 334.6 319.137 334.688C319.176 334.777 319.197 334.872 319.199 334.968C319.201 335.069 319.183 335.168 319.146 335.261C319.109 335.354 319.054 335.439 318.984 335.511C318.914 335.582 318.831 335.639 318.738 335.678C318.646 335.717 318.547 335.736 318.447 335.736C318.347 335.739 318.247 335.721 318.154 335.684C318.061 335.647 317.976 335.592 317.905 335.522C317.833 335.452 317.776 335.368 317.738 335.276C317.699 335.184 317.679 335.085 317.679 334.984ZM317.919 337.417H318.959V345.145H317.919V337.417Z" fill="#263238"/>
<path d="M321.855 334.248H322.895V345.145H321.855V334.248Z" fill="#263238"/>
</g>
<path d="M476.673 371.753H267.326V407.593H476.673V371.753Z" fill="white"/>
<g opacity="0.4">
<path d="M286.814 387.401C286.814 389.593 285.214 390.921 282.622 390.921H279.87V394.121H278.782V383.849H282.622C285.23 383.881 286.814 385.209 286.814 387.401ZM285.726 387.401C285.726 385.801 284.654 384.825 282.526 384.825H279.806V389.961H282.526C284.654 389.961 285.726 389.017 285.726 387.401Z" fill="#263238"/>
<path d="M294.703 389.369V394.169H293.694V392.953C293.408 393.386 293.01 393.734 292.543 393.959C292.075 394.184 291.555 394.279 291.038 394.233C289.294 394.233 288.222 393.321 288.222 391.977C288.222 390.633 288.99 389.753 291.198 389.753H293.646V389.273C293.646 387.961 292.894 387.241 291.454 387.241C290.519 387.229 289.611 387.552 288.894 388.153L288.414 387.369C289.326 386.658 290.459 386.29 291.614 386.329C292.029 386.276 292.449 386.317 292.845 386.45C293.241 386.583 293.601 386.804 293.899 387.097C294.196 387.39 294.423 387.747 294.563 388.141C294.702 388.534 294.75 388.954 294.703 389.369ZM293.662 391.833V390.569H291.198C289.71 390.569 289.23 391.161 289.23 391.961C289.23 392.761 289.934 393.401 291.182 393.401C291.709 393.44 292.235 393.309 292.681 393.027C293.128 392.744 293.472 392.326 293.662 391.833Z" fill="#263238"/>
<path d="M296.463 393.273L296.927 392.457C297.734 393.021 298.694 393.322 299.679 393.321C301.135 393.321 301.743 392.825 301.743 392.057C301.743 390.041 296.735 391.625 296.735 388.585C296.735 387.321 297.823 386.377 299.791 386.377C300.751 386.369 301.695 386.617 302.527 387.097L302.063 387.929C301.39 387.485 300.597 387.256 299.791 387.273C298.399 387.273 297.775 387.817 297.775 388.553C297.775 390.633 302.783 389.065 302.783 392.025C302.783 393.369 301.615 394.233 299.583 394.233C298.466 394.262 297.37 393.925 296.463 393.273Z" fill="#263238"/>
<path d="M303.631 393.273L304.111 392.457C304.908 393.027 305.866 393.33 306.847 393.321C308.319 393.321 308.911 392.825 308.911 392.057C308.911 390.041 303.919 391.625 303.919 388.585C303.919 387.321 305.007 386.377 306.959 386.377C307.919 386.365 308.865 386.614 309.695 387.097L309.247 387.929C308.567 387.486 307.77 387.258 306.959 387.273C305.567 387.273 304.959 387.817 304.959 388.553C304.959 390.633 309.967 389.065 309.967 392.025C309.967 393.369 308.783 394.233 306.767 394.233C305.645 394.26 304.545 393.923 303.631 393.273Z" fill="#263238"/>
<path d="M323.055 386.441L320.143 394.153H319.167L316.799 387.833L314.367 394.153H313.391L310.399 386.441H311.391L313.823 393.001L316.303 386.441H317.199L319.663 393.001L322.111 386.441H323.055Z" fill="#263238"/>
<path d="M323.631 390.297C323.631 389.519 323.862 388.758 324.294 388.111C324.727 387.463 325.341 386.959 326.061 386.661C326.78 386.363 327.571 386.285 328.335 386.437C329.098 386.589 329.8 386.964 330.35 387.514C330.901 388.065 331.275 388.766 331.427 389.529C331.579 390.293 331.501 391.084 331.203 391.804C330.905 392.523 330.401 393.137 329.754 393.57C329.106 394.002 328.345 394.233 327.567 394.233C327.045 394.251 326.525 394.162 326.04 393.97C325.554 393.779 325.113 393.489 324.744 393.12C324.375 392.751 324.086 392.31 323.894 391.824C323.703 391.339 323.613 390.819 323.631 390.297ZM330.431 390.297C330.406 389.733 330.215 389.189 329.883 388.732C329.551 388.275 329.092 387.926 328.563 387.728C328.035 387.53 327.459 387.492 326.909 387.618C326.358 387.745 325.857 388.03 325.468 388.439C325.079 388.848 324.818 389.363 324.719 389.919C324.619 390.475 324.686 391.048 324.909 391.566C325.133 392.085 325.504 392.526 325.977 392.835C326.449 393.144 327.002 393.308 327.567 393.305C327.957 393.313 328.345 393.239 328.706 393.089C329.066 392.938 329.392 392.715 329.661 392.432C329.93 392.149 330.138 391.813 330.27 391.445C330.403 391.078 330.458 390.687 330.431 390.297Z" fill="#263238"/>
<path d="M337.503 386.377V387.385H337.247C336.881 387.368 336.516 387.431 336.177 387.571C335.838 387.71 335.534 387.923 335.287 388.193C335.039 388.463 334.854 388.785 334.745 389.135C334.636 389.485 334.605 389.854 334.655 390.217V394.153H333.615V386.441H334.607V387.945C334.877 387.424 335.297 386.995 335.814 386.715C336.33 386.436 336.919 386.318 337.503 386.377Z" fill="#263238"/>
<path d="M346.351 383.353V394.233H345.359V392.713C345.049 393.219 344.61 393.634 344.087 393.915C343.564 394.196 342.976 394.333 342.383 394.313C341.385 394.25 340.448 393.808 339.764 393.078C339.079 392.349 338.698 391.386 338.698 390.385C338.698 389.385 339.079 388.422 339.764 387.692C340.448 386.963 341.385 386.521 342.383 386.457C342.969 386.444 343.547 386.585 344.061 386.866C344.575 387.147 345.006 387.558 345.311 388.057V383.353H346.351ZM345.327 390.377C345.302 389.813 345.112 389.269 344.78 388.812C344.448 388.355 343.989 388.006 343.46 387.808C342.931 387.61 342.356 387.572 341.805 387.698C341.255 387.825 340.754 388.11 340.364 388.519C339.975 388.928 339.714 389.443 339.615 389.999C339.516 390.555 339.582 391.127 339.806 391.646C340.029 392.165 340.4 392.606 340.873 392.915C341.345 393.224 341.898 393.388 342.463 393.385C342.861 393.394 343.256 393.318 343.623 393.163C343.989 393.008 344.319 392.777 344.589 392.485C344.86 392.193 345.065 391.847 345.193 391.47C345.32 391.093 345.366 390.693 345.327 390.297V390.377Z" fill="#263238"/>
</g>
<path opacity="0.2" d="M476.673 444.154H267.326V479.994H476.673V444.154Z" fill="black"/>
<g opacity="0.5">
<path d="M318.239 427.69H314.815L314.079 429.29H313.407L316.207 423.162H316.847L319.647 429.29H318.975L318.239 427.69ZM317.999 427.162L316.527 423.866L315.055 427.162H317.999Z" fill="black"/>
<path d="M320.543 422.826H321.167V429.322H320.543V422.826Z" fill="black"/>
<path d="M325.231 424.682V425.29H325.071C324.848 425.27 324.623 425.302 324.413 425.382C324.204 425.462 324.015 425.588 323.861 425.751C323.707 425.914 323.592 426.11 323.525 426.324C323.457 426.538 323.439 426.764 323.471 426.986V429.338H322.847V424.73H323.455V425.626C323.616 425.303 323.873 425.038 324.192 424.869C324.51 424.699 324.874 424.634 325.231 424.682Z" fill="black"/>
<path d="M330.319 427.21H326.399C326.411 427.434 326.468 427.654 326.566 427.856C326.663 428.058 326.8 428.239 326.969 428.388C327.137 428.537 327.333 428.651 327.546 428.723C327.758 428.795 327.983 428.825 328.207 428.81C328.473 428.819 328.738 428.771 328.983 428.669C329.229 428.566 329.45 428.413 329.631 428.218L329.967 428.618C329.636 428.965 329.21 429.207 328.743 429.313C328.275 429.419 327.787 429.384 327.339 429.213C326.891 429.042 326.503 428.742 326.225 428.352C325.947 427.961 325.79 427.497 325.775 427.018C325.76 426.714 325.807 426.41 325.914 426.125C326.021 425.84 326.185 425.579 326.396 425.36C326.608 425.141 326.862 424.968 327.143 424.851C327.425 424.735 327.727 424.677 328.031 424.682C328.335 424.674 328.638 424.731 328.92 424.847C329.201 424.963 329.455 425.136 329.666 425.356C329.877 425.576 330.039 425.837 330.144 426.123C330.248 426.409 330.291 426.714 330.271 427.018C330.271 427.018 330.319 427.146 330.319 427.21ZM326.463 426.746H329.663C329.663 426.321 329.495 425.914 329.194 425.614C328.894 425.314 328.487 425.146 328.063 425.146C327.639 425.146 327.232 425.314 326.932 425.614C326.632 425.914 326.463 426.321 326.463 426.746Z" fill="black"/>
<path d="M334.943 426.554V429.402H334.399V428.682C334.229 428.945 333.99 429.156 333.708 429.292C333.425 429.427 333.111 429.482 332.799 429.45C331.759 429.45 331.199 428.906 331.199 428.106C331.199 427.306 331.647 426.794 332.975 426.794H334.399V426.522C334.399 425.738 333.951 425.306 333.087 425.306C332.505 425.284 331.935 425.478 331.487 425.85L331.215 425.386C331.745 424.962 332.409 424.741 333.087 424.762C333.335 424.719 333.589 424.736 333.829 424.81C334.069 424.884 334.288 425.013 334.469 425.188C334.65 425.362 334.787 425.577 334.869 425.814C334.952 426.051 334.977 426.305 334.943 426.554ZM334.335 428.026V427.258H332.879C331.983 427.258 331.695 427.61 331.695 428.09C331.695 428.57 332.127 428.954 332.863 428.954C333.195 428.979 333.525 428.894 333.803 428.712C334.081 428.529 334.29 428.26 334.399 427.946L334.335 428.026Z" fill="black"/>
<path d="M340.799 422.826V429.322H340.207V428.41C340.025 428.715 339.764 428.966 339.452 429.135C339.139 429.304 338.786 429.385 338.431 429.37C337.843 429.321 337.294 429.053 336.895 428.619C336.495 428.185 336.273 427.616 336.273 427.026C336.273 426.435 336.495 425.867 336.895 425.433C337.294 424.998 337.843 424.73 338.431 424.682C338.778 424.672 339.121 424.751 339.429 424.911C339.737 425.07 339.999 425.305 340.191 425.594V422.826H340.799ZM340.191 427.018C340.176 426.683 340.062 426.36 339.865 426.089C339.667 425.818 339.395 425.612 339.081 425.494C338.767 425.377 338.425 425.354 338.099 425.429C337.772 425.504 337.475 425.673 337.243 425.915C337.012 426.157 336.856 426.462 336.797 426.792C336.737 427.122 336.775 427.462 336.907 427.77C337.038 428.078 337.257 428.341 337.537 428.526C337.816 428.711 338.144 428.809 338.479 428.81C338.717 428.824 338.956 428.787 339.179 428.702C339.402 428.617 339.604 428.485 339.772 428.315C339.94 428.146 340.07 427.942 340.154 427.719C340.237 427.495 340.272 427.256 340.255 427.018H340.191Z" fill="black"/>
<path d="M346.479 424.714L344.175 429.882C343.791 430.778 343.295 431.066 342.575 431.066C342.162 431.077 341.761 430.928 341.455 430.65L341.743 430.186C341.968 430.411 342.273 430.537 342.591 430.538C343.007 430.538 343.279 430.346 343.551 429.754L343.743 429.322L341.679 424.714H342.399L344.143 428.634L345.871 424.714H346.479Z" fill="black"/>
<path d="M353.135 426.554V429.402H352.543V428.682C352.374 428.945 352.134 429.156 351.852 429.292C351.569 429.427 351.255 429.482 350.943 429.45C349.903 429.45 349.343 428.906 349.343 428.106C349.343 427.306 349.791 426.794 351.119 426.794H352.575V426.522C352.575 425.738 352.143 425.306 351.279 425.306C350.697 425.284 350.128 425.478 349.679 425.85L349.391 425.386C349.928 424.963 350.596 424.742 351.279 424.762C351.527 424.719 351.781 424.736 352.021 424.81C352.261 424.884 352.481 425.013 352.661 425.188C352.842 425.362 352.979 425.577 353.062 425.814C353.144 426.051 353.169 426.305 353.135 426.554ZM352.511 428.026V427.258H351.071C350.175 427.258 349.887 427.61 349.887 428.09C349.887 428.57 350.319 428.954 351.055 428.954C351.375 428.966 351.689 428.875 351.952 428.693C352.215 428.511 352.411 428.249 352.511 427.946V428.026Z" fill="black"/>
<path d="M364.8 426.65V429.322H364.192V426.714C364.192 425.738 363.695 425.242 362.863 425.242C362.649 425.225 362.434 425.255 362.232 425.329C362.03 425.404 361.847 425.521 361.695 425.673C361.543 425.825 361.425 426.008 361.351 426.21C361.276 426.412 361.247 426.627 361.263 426.842V429.258H360.655V426.714C360.655 425.738 360.159 425.242 359.311 425.242C359.097 425.225 358.882 425.255 358.68 425.329C358.478 425.404 358.295 425.521 358.143 425.673C357.991 425.825 357.873 426.008 357.799 426.21C357.724 426.412 357.695 426.627 357.711 426.842V429.258H357.087V424.65H357.679V425.498C357.856 425.211 358.107 424.978 358.405 424.823C358.704 424.668 359.04 424.597 359.375 424.618C359.711 424.591 360.046 424.672 360.333 424.847C360.621 425.022 360.845 425.283 360.975 425.594C361.162 425.28 361.43 425.024 361.751 424.851C362.073 424.679 362.435 424.599 362.799 424.618C363.076 424.568 363.36 424.587 363.628 424.672C363.895 424.757 364.138 424.906 364.335 425.107C364.532 425.307 364.677 425.552 364.758 425.821C364.839 426.09 364.853 426.374 364.8 426.65Z" fill="black"/>
<path d="M370.464 427.21H366.608C366.641 427.663 366.85 428.084 367.192 428.384C367.533 428.683 367.978 428.836 368.432 428.81C368.695 428.82 368.958 428.772 369.201 428.67C369.444 428.567 369.662 428.413 369.84 428.218L370.192 428.618C369.967 428.863 369.692 429.057 369.386 429.187C369.079 429.317 368.748 429.379 368.416 429.37C368.099 429.39 367.781 429.344 367.483 429.234C367.185 429.123 366.913 428.952 366.685 428.73C366.458 428.509 366.279 428.242 366.161 427.947C366.043 427.652 365.988 427.335 366 427.018C366 426.424 366.236 425.854 366.656 425.434C367.076 425.014 367.646 424.778 368.24 424.778C368.834 424.778 369.404 425.014 369.824 425.434C370.244 425.854 370.48 426.424 370.48 427.018C370.48 427.018 370.464 427.146 370.464 427.21ZM366.608 426.746H369.888C369.888 426.311 369.715 425.894 369.407 425.586C369.1 425.278 368.683 425.106 368.248 425.106C367.813 425.106 367.396 425.278 367.088 425.586C366.78 425.894 366.608 426.311 366.608 426.746Z" fill="black"/>
<path d="M379.36 426.65V429.322H378.736V426.714C378.736 425.738 378.256 425.242 377.424 425.242C377.209 425.222 376.992 425.25 376.789 425.323C376.586 425.397 376.401 425.514 376.249 425.667C376.096 425.819 375.979 426.004 375.905 426.207C375.832 426.41 375.804 426.627 375.824 426.842V429.258H375.2V426.714C375.2 425.738 374.72 425.242 373.872 425.242C373.657 425.222 373.44 425.25 373.237 425.323C373.034 425.397 372.849 425.514 372.697 425.667C372.544 425.819 372.427 426.004 372.353 426.207C372.28 426.41 372.252 426.627 372.272 426.842V429.258H371.648V424.65H372.24V425.498C372.415 425.21 372.665 424.975 372.965 424.82C373.264 424.665 373.6 424.595 373.936 424.618C374.271 424.591 374.606 424.672 374.894 424.847C375.181 425.022 375.406 425.283 375.536 425.594C375.722 425.28 375.99 425.024 376.312 424.851C376.633 424.679 376.996 424.599 377.36 424.618C377.636 424.568 377.92 424.587 378.188 424.672C378.456 424.757 378.698 424.906 378.895 425.107C379.092 425.307 379.238 425.552 379.318 425.821C379.399 426.09 379.414 426.374 379.36 426.65Z" fill="black"/>
<path d="M385.728 427.018C385.743 427.325 385.695 427.633 385.587 427.921C385.478 428.209 385.311 428.471 385.096 428.692C384.882 428.913 384.624 429.087 384.339 429.204C384.054 429.32 383.748 429.377 383.44 429.37C383.085 429.385 382.732 429.304 382.419 429.135C382.107 428.966 381.846 428.715 381.664 428.41V429.322H381.056V422.826H381.68V425.594C381.871 425.304 382.133 425.068 382.441 424.908C382.749 424.749 383.093 424.671 383.44 424.682C383.747 424.672 384.053 424.727 384.338 424.842C384.622 424.956 384.881 425.129 385.096 425.348C385.311 425.568 385.478 425.83 385.587 426.117C385.695 426.404 385.743 426.711 385.728 427.018ZM385.104 427.018C385.088 426.683 384.975 426.36 384.777 426.089C384.58 425.818 384.307 425.612 383.993 425.494C383.68 425.377 383.338 425.354 383.011 425.429C382.685 425.504 382.387 425.673 382.156 425.915C381.924 426.157 381.769 426.462 381.709 426.792C381.649 427.122 381.688 427.462 381.819 427.77C381.951 428.078 382.17 428.341 382.45 428.526C382.729 428.711 383.057 428.809 383.392 428.81C383.625 428.815 383.856 428.771 384.072 428.682C384.287 428.592 384.481 428.459 384.642 428.291C384.803 428.122 384.928 427.922 385.007 427.703C385.086 427.484 385.119 427.25 385.104 427.018Z" fill="black"/>
<path d="M391.024 427.21H387.2C387.212 427.434 387.269 427.654 387.366 427.856C387.464 428.058 387.601 428.239 387.769 428.388C387.938 428.536 388.134 428.651 388.346 428.723C388.559 428.795 388.784 428.825 389.008 428.81C389.274 428.81 389.537 428.751 389.777 428.637C390.018 428.524 390.23 428.359 390.4 428.154L390.752 428.554C390.421 428.901 389.995 429.143 389.528 429.249C389.06 429.354 388.571 429.32 388.123 429.149C387.675 428.978 387.288 428.678 387.01 428.288C386.732 427.897 386.575 427.433 386.56 426.954C386.544 426.65 386.592 426.346 386.699 426.061C386.805 425.775 386.97 425.515 387.181 425.296C387.393 425.077 387.647 424.904 387.928 424.787C388.209 424.671 388.511 424.613 388.816 424.618C389.12 424.61 389.422 424.666 389.702 424.783C389.983 424.899 390.236 425.073 390.446 425.293C390.655 425.513 390.816 425.774 390.919 426.06C391.021 426.346 391.062 426.651 391.04 426.954L391.024 427.21ZM387.168 426.746H390.368C390.368 426.321 390.199 425.914 389.899 425.614C389.599 425.314 389.192 425.146 388.768 425.146C388.344 425.146 387.937 425.314 387.636 425.614C387.336 425.914 387.168 426.321 387.168 426.746Z" fill="black"/>
<path d="M394.624 424.682V425.29H394.48C394.257 425.271 394.032 425.302 393.822 425.382C393.613 425.462 393.424 425.588 393.27 425.751C393.116 425.914 393.001 426.11 392.934 426.324C392.866 426.538 392.848 426.764 392.88 426.986V429.338H392.256V424.73H392.848V425.626C393.01 425.304 393.268 425.041 393.586 424.872C393.904 424.703 394.267 424.636 394.624 424.682Z" fill="black"/>
<path d="M398.656 424.762C398.656 424.122 398.144 423.69 397.248 423.69C396.933 423.672 396.618 423.726 396.327 423.848C396.036 423.97 395.776 424.157 395.568 424.394L395.104 424.042C395.377 423.734 395.716 423.492 396.095 423.334C396.475 423.176 396.885 423.106 397.296 423.13C398.528 423.13 399.312 423.722 399.312 424.73C399.312 426.218 397.712 426.33 397.712 427.546H397.056C397.056 426.042 398.656 425.898 398.656 424.762ZM396.928 428.906C396.948 428.799 397.005 428.703 397.088 428.634C397.171 428.565 397.276 428.527 397.384 428.527C397.492 428.527 397.597 428.565 397.68 428.634C397.764 428.703 397.82 428.799 397.84 428.906C397.853 428.973 397.85 429.042 397.833 429.108C397.816 429.174 397.785 429.235 397.741 429.288C397.698 429.34 397.643 429.382 397.581 429.411C397.52 429.44 397.452 429.456 397.384 429.456C397.316 429.456 397.248 429.44 397.187 429.411C397.125 429.382 397.07 429.34 397.027 429.288C396.983 429.235 396.952 429.174 396.935 429.108C396.918 429.042 396.915 428.973 396.928 428.906Z" fill="black"/>
<path d="M402.992 423.194H404.416V428.154H407.488V429.306H402.992V423.194Z" fill="black"/>
<path d="M407.808 426.97C407.776 426.451 407.9 425.935 408.165 425.489C408.43 425.042 408.822 424.685 409.292 424.464C409.762 424.243 410.288 424.168 410.801 424.25C411.313 424.331 411.79 424.564 412.169 424.919C412.547 425.275 412.811 425.736 412.924 426.242C413.038 426.749 412.997 427.278 412.806 427.761C412.616 428.244 412.285 428.659 411.855 428.951C411.426 429.244 410.919 429.401 410.4 429.402C410.068 429.424 409.734 429.377 409.42 429.265C409.107 429.152 408.819 428.977 408.576 428.749C408.333 428.521 408.139 428.245 408.007 427.939C407.875 427.633 407.807 427.303 407.808 426.97ZM411.6 426.97C411.582 426.737 411.496 426.516 411.353 426.331C411.21 426.147 411.017 426.008 410.797 425.932C410.577 425.855 410.339 425.845 410.113 425.902C409.887 425.958 409.682 426.079 409.524 426.25C409.365 426.421 409.26 426.635 409.221 426.865C409.182 427.094 409.211 427.331 409.304 427.544C409.397 427.758 409.55 427.94 409.745 428.068C409.939 428.196 410.167 428.265 410.4 428.266C410.567 428.269 410.732 428.236 410.886 428.171C411.039 428.106 411.177 428.009 411.29 427.886C411.404 427.764 411.49 427.619 411.543 427.461C411.597 427.303 411.616 427.136 411.6 426.97Z" fill="black"/>
<path d="M418.768 424.602V428.538C418.812 428.891 418.773 429.251 418.655 429.587C418.536 429.923 418.342 430.227 418.086 430.475C417.83 430.723 417.52 430.909 417.18 431.017C416.841 431.125 416.48 431.152 416.128 431.098C415.305 431.129 414.493 430.9 413.808 430.442L414.352 429.466C414.82 429.8 415.378 429.984 415.952 429.994C416.912 429.994 417.344 429.562 417.344 428.714V428.506C417.153 428.705 416.921 428.861 416.664 428.963C416.408 429.065 416.132 429.111 415.856 429.098C415.541 429.124 415.223 429.085 414.924 428.982C414.624 428.88 414.349 428.716 414.116 428.502C413.883 428.288 413.697 428.027 413.57 427.737C413.443 427.447 413.377 427.134 413.377 426.818C413.377 426.501 413.443 426.188 413.57 425.898C413.697 425.608 413.883 425.348 414.116 425.134C414.349 424.919 414.624 424.756 414.924 424.653C415.223 424.551 415.541 424.511 415.856 424.538C416.157 424.514 416.46 424.562 416.738 424.679C417.016 424.796 417.263 424.978 417.456 425.21V424.602H418.768ZM417.424 426.826C417.429 426.665 417.4 426.506 417.339 426.358C417.278 426.209 417.187 426.076 417.07 425.965C416.954 425.855 416.816 425.77 416.664 425.717C416.513 425.664 416.352 425.644 416.192 425.658C416.028 425.638 415.862 425.654 415.705 425.704C415.548 425.753 415.403 425.835 415.28 425.945C415.156 426.054 415.058 426.189 414.99 426.339C414.923 426.49 414.888 426.653 414.888 426.818C414.888 426.983 414.923 427.146 414.99 427.296C415.058 427.447 415.156 427.581 415.28 427.691C415.403 427.8 415.548 427.882 415.705 427.932C415.862 427.981 416.028 427.997 416.192 427.978C416.351 427.991 416.51 427.971 416.66 427.919C416.811 427.867 416.948 427.784 417.064 427.676C417.18 427.567 417.272 427.435 417.335 427.289C417.397 427.142 417.427 426.985 417.424 426.826Z" fill="black"/>
<path d="M422.4 423.194C422.402 423.086 422.426 422.981 422.47 422.883C422.515 422.785 422.578 422.698 422.658 422.626C422.737 422.554 422.831 422.499 422.932 422.465C423.034 422.43 423.141 422.417 423.248 422.426C423.353 422.415 423.459 422.425 423.559 422.457C423.66 422.488 423.753 422.54 423.832 422.609C423.912 422.678 423.976 422.763 424.022 422.858C424.067 422.953 424.092 423.056 424.096 423.162C424.096 423.387 424.007 423.602 423.848 423.761C423.689 423.92 423.473 424.01 423.248 424.01C423.023 424.01 422.808 423.92 422.649 423.761C422.49 423.602 422.4 423.387 422.4 423.162V423.194ZM422.56 424.602H423.92V429.402H422.56V424.602Z" fill="black"/>
<path d="M429.984 426.554V429.258H428.624V426.778C428.624 426.01 428.272 425.658 427.664 425.658C427.056 425.658 426.528 426.058 426.528 426.922V429.258H425.168V424.458H426.48V425.018C426.687 424.805 426.936 424.639 427.212 424.531C427.488 424.424 427.784 424.377 428.08 424.394C428.357 424.38 428.633 424.428 428.888 424.536C429.143 424.643 429.37 424.807 429.553 425.015C429.736 425.222 429.87 425.468 429.945 425.735C430.019 426.001 430.033 426.281 429.984 426.554Z" fill="black"/>
</g>
<path d="M476.673 441.962H267.326V477.802H476.673V441.962Z" fill="#407BFF"/>
<path d="M344.959 465.45L342.399 461.754H341.631H338.591V465.482H336.831V453.21H341.631C344.831 453.21 346.735 454.81 346.735 457.498C346.776 458.349 346.534 459.19 346.048 459.89C345.562 460.59 344.859 461.111 344.047 461.37L346.959 465.482L344.959 465.45ZM344.959 457.45C344.959 455.69 343.791 454.698 341.535 454.698H338.559V460.218H341.535C343.743 460.234 344.911 459.21 344.911 457.466L344.959 457.45Z" fill="white"/>
<path d="M357.631 461.37H350.095C350.214 462.162 350.625 462.88 351.247 463.383C351.869 463.887 352.657 464.139 353.455 464.09C353.958 464.108 354.458 464.017 354.922 463.824C355.386 463.631 355.803 463.34 356.143 462.97L357.071 464.058C356.387 464.753 355.516 465.236 354.564 465.448C353.611 465.661 352.618 465.594 351.703 465.257C350.787 464.919 349.989 464.324 349.403 463.544C348.817 462.764 348.469 461.831 348.399 460.858C348.366 460.23 348.463 459.602 348.684 459.013C348.906 458.424 349.246 457.887 349.685 457.436C350.124 456.985 350.651 456.63 351.234 456.393C351.817 456.156 352.442 456.042 353.071 456.058C353.697 456.041 354.319 456.155 354.898 456.393C355.477 456.631 356 456.987 356.432 457.439C356.865 457.892 357.198 458.43 357.41 459.018C357.622 459.607 357.708 460.234 357.663 460.858C357.663 461.002 357.647 461.21 357.631 461.37ZM350.095 460.154H356.047C355.971 459.418 355.625 458.736 355.075 458.241C354.525 457.745 353.811 457.471 353.071 457.471C352.331 457.471 351.618 457.745 351.068 458.241C350.518 458.736 350.172 459.418 350.095 460.154Z" fill="white"/>
<path d="M368.896 456.17V464.17C368.896 467.45 367.216 468.97 364.096 468.97C362.503 469.039 360.937 468.552 359.663 467.594L360.463 466.298C361.487 467.093 362.751 467.517 364.048 467.498C366.24 467.498 367.248 466.49 367.248 464.378V463.642C366.834 464.117 366.318 464.493 365.739 464.743C365.161 464.992 364.533 465.108 363.904 465.082C362.711 465.082 361.568 464.609 360.724 463.765C359.881 462.922 359.407 461.779 359.407 460.586C359.407 459.394 359.881 458.25 360.724 457.407C361.568 456.564 362.711 456.09 363.904 456.09C364.562 456.07 365.216 456.204 365.813 456.482C366.411 456.76 366.935 457.174 367.344 457.69V456.25L368.896 456.17ZM367.296 460.57C367.331 459.931 367.173 459.296 366.844 458.747C366.514 458.198 366.028 457.761 365.447 457.491C364.866 457.222 364.218 457.133 363.586 457.236C362.954 457.339 362.368 457.629 361.902 458.068C361.437 458.508 361.114 459.077 360.976 459.702C360.838 460.327 360.89 460.98 361.126 461.575C361.362 462.17 361.771 462.68 362.301 463.04C362.83 463.4 363.455 463.593 364.096 463.594C364.505 463.619 364.915 463.558 365.3 463.416C365.685 463.275 366.036 463.055 366.332 462.771C366.628 462.487 366.862 462.145 367.02 461.766C367.177 461.387 367.255 460.98 367.248 460.57H367.296Z" fill="white"/>
<path d="M371.808 453.29C371.81 453.143 371.841 452.998 371.899 452.863C371.957 452.728 372.041 452.605 372.147 452.503C372.252 452.4 372.377 452.319 372.514 452.265C372.65 452.211 372.797 452.184 372.944 452.186C373.099 452.167 373.256 452.182 373.405 452.228C373.554 452.275 373.692 452.352 373.809 452.456C373.925 452.559 374.019 452.687 374.083 452.829C374.147 452.971 374.18 453.126 374.18 453.282C374.18 453.438 374.147 453.593 374.083 453.735C374.019 453.877 373.925 454.005 373.809 454.108C373.692 454.212 373.554 454.289 373.405 454.336C373.256 454.382 373.099 454.397 372.944 454.378C372.797 454.382 372.652 454.357 372.515 454.305C372.378 454.252 372.254 454.173 372.148 454.072C372.042 453.971 371.958 453.849 371.899 453.715C371.841 453.581 371.81 453.436 371.808 453.29ZM372.112 456.17H373.792V465.45H372.112V456.17Z" fill="white"/>
<path d="M375.824 464.474L376.528 463.146C377.481 463.765 378.591 464.098 379.728 464.106C381.328 464.106 381.936 463.626 381.936 462.842C381.936 460.762 376.064 462.57 376.064 458.858C376.064 457.258 377.552 456.074 379.936 456.074C381.116 456.055 382.281 456.348 383.312 456.922L382.592 458.25C381.793 457.747 380.863 457.491 379.92 457.514C378.448 457.514 377.728 458.058 377.728 458.794C377.728 460.986 383.616 459.194 383.616 462.81C383.616 464.41 382.016 465.562 379.6 465.562C378.261 465.582 376.947 465.203 375.824 464.474Z" fill="white"/>
<path d="M391.008 464.954C390.426 465.399 389.708 465.631 388.976 465.61C388.581 465.655 388.181 465.611 387.806 465.482C387.43 465.352 387.088 465.139 386.806 464.86C386.523 464.58 386.307 464.241 386.173 463.867C386.039 463.493 385.991 463.093 386.032 462.698V457.594H384.432V456.218H386.032V454.186H387.632V456.218H390.4V457.594H387.728V462.634C387.69 462.84 387.7 463.052 387.758 463.253C387.815 463.455 387.919 463.64 388.06 463.795C388.201 463.95 388.375 464.07 388.57 464.146C388.765 464.222 388.975 464.252 389.184 464.234C389.657 464.239 390.118 464.087 390.496 463.802L391.008 464.954Z" fill="white"/>
<path d="M401.088 461.37H393.6C393.719 462.165 394.132 462.885 394.757 463.389C395.383 463.893 396.175 464.143 396.976 464.09C397.476 464.109 397.974 464.019 398.436 463.825C398.897 463.632 399.311 463.34 399.648 462.97L400.576 464.058C399.893 464.755 399.023 465.239 398.072 465.453C397.12 465.667 396.126 465.6 395.211 465.262C394.296 464.924 393.499 464.328 392.915 463.547C392.331 462.765 391.985 461.832 391.92 460.858C391.887 460.23 391.984 459.602 392.205 459.013C392.426 458.424 392.767 457.887 393.206 457.436C393.645 456.985 394.172 456.63 394.755 456.393C395.337 456.156 395.963 456.042 396.592 456.058C397.217 456.043 397.838 456.159 398.416 456.398C398.993 456.637 399.515 456.993 399.947 457.445C400.379 457.897 400.712 458.433 400.925 459.021C401.138 459.609 401.226 460.235 401.184 460.858C401.167 461.031 401.135 461.203 401.088 461.37ZM393.6 460.154H399.568C399.476 459.428 399.122 458.76 398.572 458.276C398.023 457.792 397.316 457.525 396.584 457.525C395.852 457.525 395.145 457.792 394.595 458.276C394.046 458.76 393.692 459.428 393.6 460.154Z" fill="white"/>
<path d="M408.464 456.074V457.674H408.08C407.664 457.645 407.247 457.71 406.859 457.864C406.472 458.019 406.124 458.259 405.843 458.567C405.561 458.874 405.353 459.242 405.233 459.641C405.114 460.041 405.086 460.462 405.152 460.874V465.498H403.472V456.218H405.072V457.818C405.41 457.232 405.91 456.756 406.511 456.447C407.113 456.138 407.791 456.008 408.464 456.074Z" fill="white"/>
<g opacity="0.6">
<path d="M335.343 197.127L336.063 195.623C337.305 196.663 338.875 197.23 340.495 197.223C342.815 197.223 343.807 196.327 343.807 195.159C343.807 191.959 335.679 193.943 335.679 188.967C335.679 186.887 337.279 185.127 340.815 185.127C342.339 185.102 343.837 185.513 345.135 186.311L344.495 187.911C343.396 187.207 342.12 186.83 340.815 186.823C338.527 186.823 337.615 187.783 337.615 188.951C337.615 192.151 345.759 190.167 345.759 195.111C345.759 197.159 344.159 198.919 340.559 198.919C338.663 198.959 336.814 198.323 335.343 197.127Z" fill="#263238"/>
<path d="M347.903 185.335C347.905 185.173 347.939 185.014 348.003 184.867C348.068 184.719 348.16 184.585 348.276 184.474C348.393 184.362 348.53 184.274 348.68 184.216C348.83 184.158 348.99 184.13 349.151 184.134C349.31 184.128 349.469 184.153 349.618 184.209C349.767 184.264 349.904 184.349 350.02 184.457C350.136 184.566 350.229 184.697 350.294 184.842C350.36 184.987 350.395 185.144 350.399 185.303C350.399 185.633 350.268 185.951 350.034 186.185C349.8 186.419 349.482 186.551 349.151 186.551C348.82 186.551 348.503 186.419 348.269 186.185C348.035 185.951 347.903 185.633 347.903 185.303V185.335ZM348.223 188.535H350.079V198.711H348.223V188.535Z" fill="#263238"/>
<path d="M363.312 188.487V197.271C363.312 200.871 361.488 202.503 358.047 202.503C356.321 202.557 354.628 202.021 353.247 200.983L354.127 199.559C355.242 200.44 356.627 200.909 358.047 200.887C360.448 200.887 361.536 199.767 361.536 197.463V196.663C361.083 197.186 360.519 197.601 359.885 197.878C359.251 198.154 358.563 198.286 357.871 198.263C357.202 198.301 356.531 198.202 355.901 197.972C355.271 197.742 354.694 197.386 354.207 196.925C353.719 196.465 353.331 195.909 353.065 195.293C352.8 194.677 352.663 194.013 352.663 193.343C352.663 192.672 352.8 192.008 353.065 191.392C353.331 190.776 353.719 190.221 354.207 189.76C354.694 189.299 355.271 188.943 355.901 188.713C356.531 188.483 357.202 188.384 357.871 188.423C358.579 188.386 359.285 188.511 359.936 188.788C360.588 189.065 361.168 189.488 361.632 190.023V188.423L363.312 188.487ZM361.52 193.287C361.555 192.587 361.379 191.893 361.016 191.294C360.653 190.695 360.119 190.219 359.483 189.927C358.846 189.634 358.137 189.539 357.446 189.654C356.755 189.769 356.115 190.088 355.607 190.57C355.099 191.052 354.747 191.676 354.597 192.36C354.447 193.044 354.506 193.757 354.765 194.408C355.024 195.058 355.472 195.616 356.052 196.01C356.631 196.403 357.315 196.614 358.015 196.615C358.473 196.655 358.934 196.599 359.369 196.45C359.804 196.302 360.203 196.064 360.541 195.752C360.878 195.44 361.147 195.061 361.329 194.639C361.511 194.217 361.604 193.762 361.6 193.303L361.52 193.287Z" fill="#263238"/>
<path d="M376.496 192.807V198.663H374.64V192.951C374.64 190.951 373.648 189.975 371.904 189.975C371.461 189.946 371.017 190.015 370.603 190.177C370.19 190.338 369.817 190.59 369.512 190.912C369.206 191.234 368.975 191.62 368.836 192.041C368.696 192.463 368.651 192.91 368.704 193.351V198.599H366.864V188.423H368.64V190.023C369.076 189.48 369.637 189.052 370.275 188.773C370.913 188.495 371.609 188.374 372.304 188.423C372.881 188.384 373.46 188.472 373.999 188.682C374.538 188.891 375.025 189.216 375.425 189.634C375.824 190.053 376.128 190.553 376.313 191.101C376.498 191.65 376.56 192.232 376.496 192.807Z" fill="#263238"/>
<path d="M394.56 188.487V198.663H392.816V197.063C392.41 197.586 391.884 198.005 391.283 198.283C390.681 198.562 390.022 198.692 389.36 198.663C388.765 198.724 388.164 198.651 387.601 198.449C387.038 198.247 386.527 197.922 386.106 197.497C385.686 197.071 385.366 196.557 385.17 195.992C384.974 195.427 384.908 194.825 384.976 194.231V188.375H386.816V194.023C386.816 196.007 387.824 197.015 389.568 197.015C390.012 197.047 390.457 196.98 390.872 196.819C391.287 196.658 391.66 196.407 391.967 196.084C392.273 195.761 392.503 195.374 392.642 194.951C392.78 194.528 392.823 194.08 392.768 193.639V188.375L394.56 188.487Z" fill="#263238"/>
<path d="M408.608 193.575C408.644 194.262 408.537 194.949 408.292 195.592C408.048 196.235 407.672 196.819 407.188 197.309C406.705 197.798 406.125 198.181 405.485 198.434C404.845 198.686 404.159 198.802 403.472 198.775C402.797 198.801 402.124 198.67 401.508 198.393C400.891 198.115 400.348 197.698 399.92 197.175V202.423H398.08V188.535H399.84V190.135C400.262 189.578 400.813 189.131 401.446 188.833C402.078 188.535 402.773 188.394 403.472 188.423C404.156 188.393 404.838 188.506 405.476 188.755C406.113 189.003 406.692 189.382 407.175 189.867C407.659 190.351 408.036 190.931 408.282 191.57C408.529 192.208 408.64 192.891 408.608 193.575ZM406.752 193.575C406.721 192.906 406.494 192.261 406.1 191.72C405.706 191.178 405.162 190.764 404.535 190.529C403.908 190.294 403.226 190.247 402.573 190.396C401.92 190.544 401.325 190.881 400.861 191.364C400.398 191.847 400.086 192.455 399.965 193.114C399.843 193.772 399.917 194.452 400.178 195.068C400.439 195.685 400.875 196.212 401.432 196.583C401.989 196.955 402.642 197.155 403.312 197.159C403.779 197.168 404.242 197.081 404.674 196.903C405.105 196.724 405.495 196.458 405.818 196.121C406.141 195.784 406.391 195.384 406.552 194.946C406.713 194.507 406.781 194.041 406.752 193.575Z" fill="#263238"/>
</g>
<path d="M476.673 273.816H267.326V309.656H476.673V273.816Z" fill="white"/>
<g opacity="0.4">
<path d="M278.782 285.896H279.87V295.224H285.614V296.168H278.782V285.896Z" fill="#263238"/>
<path d="M293.055 291.384V296.184H292.063V294.984C291.771 295.412 291.373 295.756 290.906 295.98C290.44 296.205 289.923 296.303 289.407 296.264C287.662 296.264 286.59 295.352 286.59 294.008C286.59 292.664 287.342 291.832 289.566 291.832H292.015V291.368C292.015 290.04 291.263 289.32 289.823 289.32C288.887 289.307 287.979 289.631 287.262 290.232L286.782 289.448C287.696 288.74 288.827 288.372 289.983 288.408C290.389 288.359 290.802 288.401 291.191 288.532C291.579 288.662 291.934 288.878 292.228 289.163C292.523 289.449 292.75 289.796 292.893 290.18C293.036 290.564 293.091 290.976 293.055 291.384ZM292.015 293.848V292.584H289.599C288.094 292.584 287.614 293.176 287.614 293.976C287.614 294.776 288.334 295.416 289.566 295.416C290.088 295.448 290.606 295.313 291.046 295.031C291.486 294.75 291.825 294.335 292.015 293.848Z" fill="#263238"/>
<path d="M294.815 295.352L295.279 294.536C296.086 295.099 297.046 295.401 298.031 295.4C299.503 295.4 300.095 294.904 300.095 294.136C300.095 292.12 295.103 293.704 295.103 290.664C295.103 289.4 296.175 288.456 298.143 288.456C299.103 288.443 300.049 288.692 300.879 289.176L300.415 290.008C299.742 289.563 298.949 289.335 298.143 289.352C296.751 289.352 296.143 289.896 296.143 290.632C296.143 292.712 301.135 291.144 301.135 294.104C301.135 295.448 299.967 296.312 297.935 296.312C296.818 296.336 295.724 296 294.815 295.352Z" fill="#263238"/>
<path d="M307.199 295.704C306.744 296.065 306.179 296.257 305.599 296.248C305.294 296.281 304.987 296.245 304.698 296.143C304.409 296.042 304.147 295.876 303.931 295.66C303.714 295.444 303.549 295.181 303.447 294.893C303.346 294.604 303.31 294.296 303.343 293.992V289.336H301.951V288.456H303.343V286.76H304.383V288.456H306.719V289.336H304.383V293.944C304.355 294.128 304.37 294.316 304.426 294.494C304.482 294.672 304.577 294.835 304.705 294.97C304.833 295.106 304.99 295.21 305.164 295.277C305.338 295.343 305.525 295.369 305.711 295.352C306.131 295.365 306.541 295.222 306.863 294.952L307.199 295.704Z" fill="#263238"/>
<path d="M321.599 285.896V296.168H320.703L314.111 287.832V296.168H313.023V285.896H313.919L320.527 294.232V285.896H321.599Z" fill="#263238"/>
<path d="M330.623 291.384V296.184H329.599V294.984C329.31 295.414 328.912 295.76 328.445 295.985C327.978 296.21 327.46 296.306 326.943 296.264C325.199 296.264 324.127 295.352 324.127 294.008C324.127 292.664 324.895 291.832 327.119 291.832H329.599V291.368C329.599 290.04 328.847 289.32 327.407 289.32C326.472 289.307 325.564 289.631 324.847 290.232L324.367 289.448C325.279 288.737 326.411 288.368 327.567 288.408C327.973 288.361 328.384 288.405 328.77 288.537C329.157 288.669 329.509 288.885 329.802 289.17C330.094 289.455 330.32 289.802 330.462 290.185C330.604 290.567 330.659 290.977 330.623 291.384ZM329.583 293.848V292.584H327.151C325.663 292.584 325.183 293.176 325.183 293.976C325.183 294.776 325.903 295.416 327.135 295.416C327.659 295.451 328.181 295.318 328.624 295.036C329.068 294.754 329.409 294.338 329.599 293.848H329.583Z" fill="#263238"/>
<path d="M346.191 291.688V296.168H345.151V291.8C345.151 290.2 344.319 289.336 342.927 289.336C342.566 289.319 342.206 289.381 341.872 289.518C341.538 289.655 341.237 289.864 340.992 290.129C340.746 290.394 340.562 290.71 340.451 291.054C340.341 291.397 340.306 291.761 340.351 292.12V296.168H339.311V291.8C339.311 290.2 338.479 289.336 337.071 289.336C336.71 289.319 336.35 289.381 336.016 289.518C335.681 289.655 335.381 289.864 335.136 290.129C334.89 290.394 334.706 290.71 334.595 291.054C334.485 291.397 334.45 291.761 334.495 292.12V296.168H333.455V288.456H334.399V289.864C334.701 289.392 335.122 289.008 335.618 288.75C336.115 288.491 336.672 288.368 337.231 288.392C337.798 288.345 338.366 288.474 338.858 288.76C339.35 289.046 339.743 289.476 339.983 289.992C340.299 289.476 340.748 289.056 341.283 288.774C341.818 288.492 342.419 288.36 343.023 288.392C343.461 288.349 343.903 288.406 344.316 288.558C344.728 288.711 345.101 288.955 345.406 289.272C345.711 289.589 345.94 289.971 346.076 290.39C346.212 290.808 346.251 291.252 346.191 291.688Z" fill="#263238"/>
<path d="M355.775 292.632H349.375C349.398 293.008 349.494 293.377 349.659 293.715C349.824 294.054 350.055 294.358 350.337 294.607C350.62 294.857 350.949 295.049 351.305 295.171C351.662 295.293 352.039 295.344 352.415 295.32C352.86 295.334 353.302 295.252 353.711 295.077C354.12 294.903 354.486 294.642 354.783 294.312L355.359 294.984C354.805 295.563 354.092 295.966 353.31 296.142C352.528 296.319 351.711 296.261 350.962 295.975C350.213 295.69 349.564 295.191 349.097 294.539C348.63 293.888 348.365 293.113 348.335 292.312C348.309 291.802 348.387 291.293 348.566 290.815C348.745 290.337 349.019 289.901 349.373 289.533C349.727 289.166 350.153 288.875 350.624 288.679C351.095 288.482 351.601 288.385 352.111 288.392C352.621 288.382 353.127 288.478 353.597 288.674C354.068 288.87 354.492 289.161 354.844 289.529C355.196 289.898 355.468 290.336 355.642 290.815C355.816 291.294 355.889 291.803 355.855 292.312C355.791 292.408 355.775 292.52 355.775 292.632ZM349.375 291.864H354.847C354.847 291.138 354.559 290.442 354.046 289.929C353.533 289.416 352.837 289.128 352.111 289.128C351.386 289.128 350.69 289.416 350.177 289.929C349.664 290.442 349.375 291.138 349.375 291.864Z" fill="#263238"/>
</g>
<path d="M476.673 224.855H267.326V260.695H476.673V224.855Z" fill="white"/>
<g opacity="0.4">
<path d="M279.87 237.879V241.911H285.182V242.855H279.87V247.207H278.782V236.935H285.822V237.879H279.87Z" fill="#263238"/>
<path d="M287.47 237.047C287.467 236.894 287.51 236.743 287.593 236.615C287.676 236.486 287.796 236.385 287.937 236.325C288.078 236.265 288.234 236.248 288.384 236.277C288.535 236.306 288.673 236.38 288.781 236.488C288.89 236.597 288.963 236.735 288.992 236.885C289.021 237.036 289.005 237.192 288.945 237.333C288.885 237.474 288.784 237.593 288.655 237.676C288.526 237.76 288.376 237.802 288.222 237.799C288.023 237.799 287.832 237.72 287.691 237.579C287.55 237.438 287.47 237.247 287.47 237.047ZM287.694 239.495H288.734V247.207H287.694V239.495Z" fill="#263238"/>
<path d="M295.535 239.431V240.439H295.279C294.911 240.421 294.544 240.485 294.204 240.625C293.864 240.766 293.559 240.98 293.311 241.252C293.063 241.524 292.879 241.848 292.771 242.2C292.663 242.552 292.634 242.923 292.686 243.287V247.223H291.646V239.511H292.638V240.951C292.915 240.438 293.339 240.02 293.854 239.749C294.37 239.478 294.955 239.368 295.535 239.431Z" fill="#263238"/>
<path d="M296.399 246.327L296.863 245.495C297.662 246.075 298.627 246.383 299.615 246.375C301.087 246.375 301.679 245.863 301.679 245.111C301.679 243.095 296.687 244.679 296.687 241.623C296.687 240.375 297.759 239.431 299.727 239.431C300.688 239.41 301.636 239.66 302.463 240.151L301.999 240.983C301.326 240.539 300.533 240.31 299.727 240.327C298.335 240.327 297.727 240.871 297.727 241.607C297.727 243.687 302.719 242.119 302.719 245.079C302.719 246.407 301.551 247.271 299.519 247.271C298.404 247.3 297.31 246.969 296.399 246.327Z" fill="#263238"/>
<path d="M308.799 246.743C308.339 247.093 307.776 247.278 307.199 247.271C306.895 247.307 306.588 247.273 306.299 247.174C306.01 247.074 305.748 246.91 305.531 246.695C305.314 246.48 305.149 246.218 305.047 245.93C304.945 245.642 304.909 245.335 304.943 245.031V240.375H303.551V239.495H304.943V237.751H305.983V239.447H308.319V240.327H305.983V244.919C305.956 245.104 305.971 245.293 306.027 245.471C306.082 245.65 306.178 245.813 306.305 245.95C306.432 246.087 306.589 246.193 306.763 246.261C306.937 246.329 307.124 246.357 307.311 246.343C307.73 246.349 308.137 246.207 308.463 245.943L308.799 246.743Z" fill="#263238"/>
<path d="M323.199 236.935V247.207H322.303L315.711 238.871V247.207H314.623V236.935H315.519L322.127 245.271V236.935H323.199Z" fill="#263238"/>
<path d="M332.207 242.423V247.223H331.199V246.023C330.912 246.451 330.516 246.793 330.052 247.016C329.587 247.238 329.072 247.332 328.559 247.287C326.799 247.287 325.727 246.391 325.727 245.047C325.727 243.703 326.495 242.871 328.719 242.871H331.199V242.391C331.199 241.079 330.447 240.359 329.007 240.359C328.072 240.347 327.164 240.67 326.447 241.271L325.967 240.487C326.879 239.777 328.011 239.409 329.167 239.447C329.572 239.4 329.983 239.444 330.368 239.576C330.754 239.708 331.106 239.925 331.397 240.21C331.689 240.495 331.913 240.842 332.053 241.225C332.193 241.608 332.246 242.017 332.207 242.423ZM331.167 244.887V243.623H328.735C327.247 243.623 326.767 244.215 326.767 244.999C326.767 245.783 327.487 246.455 328.719 246.455C329.245 246.492 329.77 246.359 330.216 246.077C330.662 245.795 331.006 245.379 331.199 244.887H331.167Z" fill="#263238"/>
<path d="M347.775 242.727V247.207H346.735V242.839C346.735 241.239 345.903 240.375 344.511 240.375C344.15 240.358 343.79 240.421 343.456 240.558C343.122 240.695 342.821 240.903 342.576 241.168C342.33 241.433 342.146 241.749 342.035 242.093C341.925 242.437 341.891 242.801 341.935 243.159V247.207H340.895V242.839C340.895 241.239 340.063 240.375 338.655 240.375C338.294 240.358 337.934 240.421 337.6 240.558C337.265 240.695 336.965 240.903 336.72 241.168C336.474 241.433 336.29 241.749 336.179 242.093C336.069 242.437 336.034 242.801 336.079 243.159V247.207H335.039V239.495H335.999V240.951C336.301 240.479 336.722 240.095 337.218 239.837C337.715 239.579 338.272 239.455 338.831 239.479C339.398 239.433 339.966 239.561 340.458 239.847C340.95 240.133 341.343 240.563 341.583 241.079C341.896 240.561 342.345 240.139 342.881 239.857C343.416 239.575 344.019 239.444 344.623 239.479C345.055 239.44 345.491 239.498 345.897 239.649C346.304 239.8 346.672 240.04 346.974 240.352C347.276 240.663 347.505 241.038 347.643 241.449C347.782 241.86 347.827 242.297 347.775 242.727Z" fill="#263238"/>
<path d="M357.359 243.671H350.959C350.982 244.048 351.078 244.416 351.243 244.755C351.408 245.094 351.639 245.397 351.921 245.647C352.204 245.896 352.533 246.088 352.889 246.21C353.246 246.332 353.623 246.383 353.999 246.359C354.445 246.374 354.889 246.29 355.298 246.113C355.707 245.935 356.073 245.67 356.367 245.335L356.943 246.023C356.389 246.602 355.676 247.005 354.894 247.182C354.112 247.358 353.295 247.3 352.546 247.015C351.797 246.73 351.148 246.23 350.681 245.579C350.214 244.927 349.949 244.152 349.919 243.351C349.893 242.842 349.971 242.332 350.15 241.854C350.329 241.376 350.603 240.94 350.957 240.573C351.311 240.205 351.737 239.914 352.208 239.718C352.679 239.522 353.185 239.424 353.695 239.431C354.205 239.421 354.711 239.517 355.181 239.713C355.652 239.909 356.076 240.2 356.428 240.569C356.78 240.937 357.052 241.375 357.226 241.854C357.4 242.333 357.473 242.843 357.439 243.351C357.375 243.431 357.359 243.543 357.359 243.671ZM350.959 242.887H356.431C356.431 242.162 356.143 241.466 355.63 240.953C355.117 240.439 354.421 240.151 353.695 240.151C352.97 240.151 352.274 240.439 351.761 240.953C351.248 241.466 350.959 242.162 350.959 242.887Z" fill="#263238"/>
</g>
<path d="M188.557 529.403H187.037C187.037 527.147 188.909 474.282 198.109 465.402C207.566 456.202 218.686 465.274 218.782 465.402L217.822 466.554C217.406 466.218 207.63 458.282 199.149 466.554C190.397 474.89 188.573 528.859 188.557 529.403Z" fill="#407BFF"/>
<path d="M187.789 540.011L186.285 539.867C186.285 539.227 192.237 475.674 169.213 449.242L170.349 448.25C193.805 475.178 187.853 539.371 187.789 540.011Z" fill="#407BFF"/>
<path d="M188.525 533.227C188.333 530.219 183.901 459.626 201.597 443.306L202.621 444.426C185.453 460.202 189.981 532.427 190.029 533.115L188.525 533.227Z" fill="#407BFF"/>
<path d="M186.285 533.179C186.285 532.699 185.741 485.179 173.149 478.026C172.079 477.32 170.854 476.882 169.579 476.749C168.303 476.615 167.015 476.79 165.821 477.258C158.445 480.314 154.525 494.395 154.477 494.539L153.021 494.139C153.181 493.531 157.181 479.21 165.245 475.866C166.65 475.302 168.17 475.084 169.677 475.232C171.183 475.38 172.632 475.888 173.901 476.714C187.229 484.346 187.789 531.115 187.805 533.163L186.285 533.179Z" fill="#407BFF"/>
<path d="M191.469 533.211C191.373 531.611 189.437 495.707 199.629 482.378C202.349 478.842 205.357 477.162 208.621 477.402C215.87 477.898 221.422 487.723 221.726 488.139L220.414 488.891C220.414 488.795 214.942 479.29 208.509 478.906C205.805 478.698 203.213 480.186 200.829 483.306C190.973 496.107 192.957 532.763 192.973 533.131L191.469 533.211Z" fill="#407BFF"/>
<path d="M189.437 538.187L187.933 538.075C187.933 537.211 194.333 451.482 183.773 437.178L184.989 436.282C195.901 451.034 189.709 534.635 189.437 538.187Z" fill="#407BFF"/>
<path d="M162.317 484.394C162.317 484.394 168.845 486.811 166.909 492.491C164.973 498.171 144.301 507.531 144.301 507.531C144.301 507.531 135.645 499.611 143.597 486.731C151.549 473.85 162.141 480.33 162.317 484.394Z" fill="#407BFF"/>
<path opacity="0.2" d="M162.317 484.394C162.317 484.394 168.845 486.811 166.909 492.491C164.973 498.171 144.301 507.531 144.301 507.531C144.301 507.531 135.645 499.611 143.597 486.731C151.549 473.85 162.141 480.33 162.317 484.394Z" fill="black"/>
<path d="M190.717 473.578C190.717 473.578 183.757 473.29 183.357 479.274C182.957 485.259 198.397 501.867 198.397 501.867C198.397 501.867 209.437 497.867 207.069 482.906C204.701 467.946 192.445 469.882 190.717 473.578Z" fill="#407BFF"/>
<path opacity="0.2" d="M190.717 473.578C190.717 473.578 183.757 473.29 183.357 479.274C182.957 485.259 198.397 501.867 198.397 501.867C198.397 501.867 209.437 497.867 207.069 482.906C204.701 467.946 192.445 469.882 190.717 473.578Z" fill="black"/>
<path d="M196.605 444.874C196.605 444.874 191.965 444.378 192.333 441.562C192.701 438.746 210.366 431.466 220.782 443.162C220.782 443.162 214.11 454.618 204.477 454.778C194.845 454.938 196.605 444.874 196.605 444.874Z" fill="#407BFF"/>
<path opacity="0.2" d="M196.605 444.874C196.605 444.874 191.965 444.378 192.333 441.562C192.701 438.746 210.366 431.466 220.782 443.162C220.782 443.162 214.11 454.618 204.477 454.778C194.845 454.938 196.605 444.874 196.605 444.874Z" fill="black"/>
<path d="M187.965 438.01C187.965 438.01 192.157 440.042 193.341 437.45C194.525 434.858 183.373 419.354 168.317 423.818C168.317 423.818 167.917 437.066 176.013 442.298C184.109 447.53 187.965 438.01 187.965 438.01Z" fill="#407BFF"/>
<path opacity="0.2" d="M187.965 438.01C187.965 438.01 192.157 440.042 193.341 437.45C194.525 434.858 183.373 419.354 168.317 423.818C168.317 423.818 167.917 437.066 176.013 442.298C184.109 447.53 187.965 438.01 187.965 438.01Z" fill="black"/>
<path d="M209.918 482.122C209.918 482.122 206.718 479.53 210.174 478.266C213.63 477.002 230.574 477.37 230.75 494.155C230.75 494.155 211.006 497.435 208.574 491.035C206.142 484.634 209.918 482.122 209.918 482.122Z" fill="#407BFF"/>
<path opacity="0.2" d="M209.918 482.122C209.918 482.122 206.718 479.53 210.174 478.266C213.63 477.002 230.574 477.37 230.75 494.155C230.75 494.155 211.006 497.435 208.574 491.035C206.142 484.634 209.918 482.122 209.918 482.122Z" fill="black"/>
<path d="M169.597 444.458C169.597 444.458 172.797 441.866 169.341 440.618C165.885 439.37 148.941 439.706 148.765 456.49C148.765 456.49 168.509 459.786 170.941 453.386C173.373 446.986 169.597 444.458 169.597 444.458Z" fill="#407BFF"/>
<path opacity="0.2" d="M169.597 444.458C169.597 444.458 172.797 441.866 169.341 440.618C165.885 439.37 148.941 439.706 148.765 456.49C148.765 456.49 168.509 459.786 170.941 453.386C173.373 446.986 169.597 444.458 169.597 444.458Z" fill="black"/>
<path d="M180.093 457.978C180.093 457.978 180.381 454.778 177.837 456.074C175.293 457.37 166.477 466.842 175.629 475.882C175.629 475.882 187.965 466.746 185.741 461.994C183.517 457.242 180.093 457.978 180.093 457.978Z" fill="#407BFF"/>
<path opacity="0.2" d="M180.093 457.978C180.093 457.978 180.381 454.778 177.837 456.074C175.293 457.37 166.477 466.842 175.629 475.882C175.629 475.882 187.965 466.746 185.741 461.994C183.517 457.242 180.093 457.978 180.093 457.978Z" fill="black"/>
<path d="M212.798 462.458C212.798 462.458 210.878 459.946 213.694 459.642C216.51 459.338 229.054 462.682 226.126 475.226C226.126 475.226 210.83 474.074 210.126 468.826C209.421 463.578 212.798 462.458 212.798 462.458Z" fill="#407BFF"/>
<path opacity="0.2" d="M212.798 462.458C212.798 462.458 210.878 459.946 213.694 459.642C216.51 459.338 229.054 462.682 226.126 475.226C226.126 475.226 210.83 474.074 210.126 468.826C209.421 463.578 212.798 462.458 212.798 462.458Z" fill="black"/>
<path d="M163.453 579.708H212.91L219.486 531.611H156.877L163.453 579.708Z" fill="#263238"/>
<path opacity="0.2" d="M163.453 579.708H212.91L219.486 531.611H156.877L163.453 579.708Z" fill="white"/>
<path d="M225.694 527.707V532.283C225.694 533.751 225.11 535.159 224.072 536.198C223.034 537.236 221.626 537.819 220.158 537.819H155.597C154.128 537.819 152.72 537.236 151.682 536.198C150.644 535.159 150.061 533.751 150.061 532.283V527.707H225.694Z" fill="#263238"/>
<path d="M637.795 71.845H591.827C588.075 71.845 584.478 73.3352 581.825 75.9877C579.173 78.6403 577.682 82.2379 577.682 85.9892V125.99C577.68 127.848 578.045 129.689 578.754 131.407C579.464 133.125 580.506 134.686 581.819 136.001C583.133 137.317 584.693 138.36 586.41 139.072C588.127 139.784 589.968 140.15 591.827 140.15H605.251L602.051 152.774L614.851 140.15H637.875C641.631 140.15 645.232 138.658 647.888 136.002C650.544 133.347 652.035 129.745 652.035 125.99V85.9892C652.035 84.1236 651.666 82.2765 650.95 80.5541C650.233 78.8318 649.182 77.2683 647.859 75.9536C646.535 74.6389 644.965 73.5991 643.237 72.8939C641.51 72.1888 639.661 71.8323 637.795 71.845Z" fill="#407BFF"/>
<path opacity="0.7" d="M637.795 71.845H591.827C588.075 71.845 584.478 73.3352 581.825 75.9877C579.173 78.6403 577.682 82.2379 577.682 85.9892V125.99C577.68 127.848 578.045 129.689 578.754 131.407C579.464 133.125 580.506 134.686 581.819 136.001C583.133 137.317 584.693 138.36 586.41 139.072C588.127 139.784 589.968 140.15 591.827 140.15H605.251L602.051 152.774L614.851 140.15H637.875C641.631 140.15 645.232 138.658 647.888 136.002C650.544 133.347 652.035 129.745 652.035 125.99V85.9892C652.035 84.1236 651.666 82.2765 650.95 80.5541C650.233 78.8318 649.182 77.2683 647.859 75.9536C646.535 74.6389 644.965 73.5991 643.237 72.8939C641.51 72.1888 639.661 71.8323 637.795 71.845Z" fill="white"/>
<path d="M614.819 123.67C624.672 123.67 632.659 115.682 632.659 105.829C632.659 95.9765 624.672 87.9892 614.819 87.9892C604.966 87.9892 596.979 95.9765 596.979 105.829C596.979 115.682 604.966 123.67 614.819 123.67Z" fill="white"/>
<path d="M614.819 83.0131C610.306 83.0131 605.895 84.3513 602.143 86.8584C598.391 89.3655 595.466 92.9289 593.739 97.098C592.012 101.267 591.56 105.855 592.441 110.281C593.321 114.707 595.494 118.772 598.685 121.963C601.876 125.154 605.942 127.327 610.368 128.207C614.793 129.088 619.381 128.636 623.55 126.909C627.719 125.182 631.283 122.258 633.79 118.505C636.297 114.753 637.635 110.342 637.635 105.829C637.637 102.833 637.048 99.8647 635.903 97.0955C634.757 94.3264 633.076 91.8103 630.957 89.6912C628.838 87.5721 626.322 85.8915 623.553 84.7456C620.784 83.5998 617.816 83.011 614.819 83.0131ZM627.763 99.0133L614.019 115.206C613.824 115.44 613.579 115.627 613.302 115.754C613.025 115.882 612.723 115.946 612.419 115.942C612.114 115.943 611.813 115.878 611.537 115.751C611.261 115.624 611.015 115.438 610.819 115.206L601.875 104.661C601.686 104.453 601.541 104.209 601.448 103.943C601.356 103.677 601.318 103.395 601.336 103.115C601.355 102.834 601.43 102.56 601.557 102.309C601.684 102.057 601.86 101.834 602.075 101.653C602.29 101.471 602.539 101.335 602.808 101.251C603.077 101.168 603.359 101.14 603.639 101.168C603.919 101.197 604.191 101.281 604.437 101.417C604.684 101.552 604.901 101.736 605.075 101.957L612.419 110.613L624.563 96.3093C624.928 95.9068 625.435 95.6616 625.977 95.6256C626.519 95.5895 627.054 95.7654 627.469 96.116C627.884 96.4667 628.146 96.9647 628.201 97.5052C628.256 98.0457 628.099 98.5864 627.763 99.0133Z" fill="#407BFF"/>
<path d="M629.827 318.648C629.827 318.648 601.971 315.128 559.762 326.648C559.762 326.648 552.978 251.223 553.778 240.855C554.578 230.487 618.947 233.527 618.947 233.527C618.947 233.527 620.547 263.72 624.739 281.928C628.931 300.136 632.003 315.144 629.827 318.648Z" fill="#407BFF"/>
<path opacity="0.2" d="M629.827 318.648C629.827 318.648 601.971 315.128 559.762 326.648C559.762 326.648 552.978 251.223 553.778 240.855C554.578 230.487 618.947 233.527 618.947 233.527C618.947 233.527 620.547 263.72 624.739 281.928C628.931 300.136 632.003 315.144 629.827 318.648Z" fill="black"/>
<path d="M539.41 568.348L550.77 571.564L553.474 553.883L554.93 544.427L543.57 541.211L541.634 553.883L539.41 568.348Z" fill="#E4897B"/>
<path d="M604.723 569.276L616.435 570.828L616.547 553.883L616.627 543.355L604.899 541.819L604.819 553.883L604.723 569.276Z" fill="#E4897B"/>
<path opacity="0.2" d="M604.899 541.819L604.819 553.883H616.547L616.627 543.355L604.899 541.819Z" fill="black"/>
<path opacity="0.2" d="M541.634 553.883H553.474L554.93 544.427L543.57 541.211L541.634 553.883Z" fill="black"/>
<path d="M488.977 247.047L477.697 243.719L479.761 256.599C479.761 256.599 490.001 258.951 490.961 253.623L488.977 247.047Z" fill="#E4897B"/>
<path d="M466.433 246.711L471.969 257.175L479.761 256.599L477.697 243.719L466.433 246.711Z" fill="#E4897B"/>
<path d="M504.545 250.343L486.017 246.199L484.337 255.191L501.153 259.287L504.545 250.343Z" fill="#E4897B"/>
<path d="M560.594 242.215L559.506 243.511C557.17 246.247 551.506 252.855 545.602 258.551C540.802 263.192 536.002 267.24 532.802 268.056C523.73 270.392 490.753 260.679 490.753 260.679L494.161 247.303C494.161 247.303 524.882 251.383 527.266 251.383C529.074 251.383 547.762 224.311 552.29 222.087L560.594 242.215Z" fill="#407BFF"/>
<path opacity="0.2" d="M559.506 243.511C557.17 246.247 551.506 252.855 545.602 258.551C546.786 249.175 550.226 240.567 554.754 235.127C555.176 234.602 555.66 234.129 556.194 233.719L559.506 243.511Z" fill="black"/>
<path d="M539.554 566.572L552.45 566.236C552.683 566.228 552.911 566.3 553.097 566.44C553.283 566.579 553.416 566.778 553.474 567.004L556.194 577.388C556.259 577.636 556.267 577.896 556.218 578.149C556.169 578.401 556.063 578.639 555.91 578.845C555.756 579.051 555.558 579.219 555.33 579.338C555.102 579.457 554.851 579.523 554.594 579.532C549.938 579.532 543.202 579.532 537.362 579.644C530.514 579.836 526.162 579.5 518.162 579.644C513.362 579.772 511.761 574.94 513.81 574.444C522.978 572.172 528.978 572.62 536.786 567.5C537.61 566.95 538.565 566.63 539.554 566.572Z" fill="#263238"/>
<path d="M538.434 568.236C536.546 568.652 533.186 569.212 531.842 568.108C531.646 567.945 531.492 567.739 531.391 567.505C531.291 567.272 531.248 567.017 531.266 566.764C531.265 566.611 531.305 566.462 531.381 566.329C531.457 566.197 531.566 566.088 531.698 566.012C533.122 565.164 537.938 567.452 538.498 567.708C538.547 567.734 538.588 567.773 538.616 567.821C538.644 567.869 538.659 567.924 538.658 567.98C538.655 568.041 538.632 568.1 538.591 568.147C538.55 568.193 538.495 568.225 538.434 568.236ZM532.034 566.46H531.938C531.884 566.49 531.84 566.535 531.809 566.588C531.778 566.641 531.762 566.702 531.762 566.764C531.749 566.929 531.775 567.095 531.839 567.248C531.903 567.401 532.003 567.537 532.13 567.644C532.882 568.268 534.834 568.332 537.426 567.82C535.554 567.036 532.946 566.124 532.066 566.46H532.034Z" fill="#407BFF"/>
<path d="M538.434 568.236H538.242C536.786 567.628 533.874 565.164 534.034 563.836C534.034 563.516 534.29 563.116 535.058 563.02C535.34 562.983 535.626 563.002 535.901 563.076C536.175 563.15 536.433 563.278 536.658 563.452C538.258 564.652 538.626 567.804 538.658 567.932C538.662 567.98 538.654 568.029 538.635 568.074C538.615 568.119 538.585 568.158 538.546 568.188L538.434 568.236ZM534.85 563.644C534.61 563.724 534.594 563.852 534.594 563.9C534.498 564.7 536.482 566.652 537.97 567.484C537.798 566.139 537.204 564.885 536.274 563.9C536.116 563.767 535.931 563.67 535.732 563.614C535.534 563.559 535.325 563.547 535.122 563.58C535.028 563.588 534.937 563.609 534.85 563.644Z" fill="#407BFF"/>
<path d="M605.187 566.572L618.083 566.235C618.318 566.227 618.548 566.299 618.737 566.438C618.926 566.578 619.062 566.777 619.123 567.004L621.827 577.388C621.895 577.636 621.906 577.898 621.858 578.151C621.81 578.404 621.705 578.644 621.551 578.85C621.396 579.057 621.197 579.226 620.968 579.344C620.738 579.462 620.485 579.526 620.227 579.532C615.571 579.532 608.835 579.532 602.979 579.644C596.147 579.836 591.779 579.5 583.778 579.644C578.978 579.772 577.378 574.94 579.426 574.444C588.595 572.172 594.579 572.62 602.387 567.5C603.22 566.945 604.187 566.624 605.187 566.572Z" fill="#263238"/>
<path d="M604.083 568.236C602.195 568.652 598.819 569.212 597.491 568.108C597.295 567.945 597.14 567.739 597.04 567.505C596.94 567.272 596.897 567.017 596.915 566.764C596.914 566.611 596.953 566.462 597.029 566.329C597.105 566.197 597.215 566.088 597.347 566.012C598.755 565.164 603.587 567.452 604.131 567.708C604.184 567.729 604.228 567.767 604.257 567.816C604.286 567.865 604.298 567.923 604.291 567.98C604.286 568.038 604.264 568.095 604.227 568.14C604.19 568.186 604.139 568.219 604.083 568.236ZM597.683 566.46H597.587C597.534 566.49 597.491 566.534 597.462 566.588C597.434 566.642 597.422 566.703 597.427 566.764C597.41 566.929 597.436 567.096 597.5 567.25C597.564 567.403 597.665 567.539 597.795 567.644C598.547 568.268 600.483 568.332 603.091 567.82C601.187 567.036 598.579 566.124 597.699 566.46H597.683Z" fill="#407BFF"/>
<path d="M604.083 568.236H603.875C602.435 567.628 599.507 565.164 599.683 563.836C599.683 563.516 599.923 563.116 600.691 563.02C600.973 562.981 601.26 562.999 601.534 563.073C601.809 563.148 602.066 563.276 602.291 563.452C603.41 564.699 604.11 566.266 604.291 567.932C604.299 567.981 604.293 568.031 604.273 568.076C604.253 568.122 604.22 568.16 604.179 568.188L604.083 568.236ZM600.483 563.644C600.259 563.724 600.243 563.852 600.243 563.9C600.131 564.7 602.131 566.652 603.619 567.484C603.436 566.143 602.843 564.891 601.923 563.9C601.764 563.768 601.58 563.671 601.381 563.616C601.182 563.561 600.974 563.548 600.771 563.58L600.483 563.644Z" fill="#407BFF"/>
<path d="M628.883 311.768C635.091 338.665 624.435 550.267 624.435 550.267H603.859L595.059 373.929L562.658 550.267L540.658 548.667C555.058 412.058 567.746 330.504 567.746 330.504V320.2L628.883 311.768Z" fill="#263238"/>
<path opacity="0.4" d="M540.658 548.667L562.658 550.267L588.163 411.45L595.059 373.929L603.859 550.267H624.435C624.435 550.267 635.091 338.665 628.883 311.768L567.714 320.2V330.504C567.714 330.504 555.042 412.058 540.658 548.667Z" fill="white"/>
<path d="M617.795 212.151C617.164 225.011 617.49 237.9 618.771 250.711C619.635 259.671 620.819 268.136 622.083 275.768C625.043 293.672 628.403 307.096 628.883 311.784L567.714 320.216C545.41 257.815 553.81 221.559 553.81 221.559C558.384 219.67 563.07 218.067 567.842 216.759C568.85 216.487 569.874 216.231 570.93 215.991C579.521 214.3 588.202 213.104 596.931 212.407C598.531 212.263 600.275 212.151 601.907 212.071C610.259 211.655 617.795 212.151 617.795 212.151Z" fill="#263238"/>
<path d="M585.059 184.07C585.507 192.631 586.419 208.695 593.539 212.775C593.539 212.775 589.107 221.207 579.522 222.071C572.274 222.711 572.754 215.559 572.754 215.559C576.946 212.439 575.954 207.143 572.754 201.159L585.059 184.07Z" fill="#E4897B"/>
<path opacity="0.2" d="M580.034 191.047L572.802 201.159C573.564 202.542 574.206 203.987 574.722 205.479C578.082 204.135 581.938 199.079 581.378 195.415C581.203 193.888 580.747 192.407 580.034 191.047Z" fill="black"/>
<path d="M553.858 166.838C552.466 171.286 553.234 180.406 559.426 177.446C565.618 174.486 556.258 159.206 553.858 166.838Z" fill="#263238"/>
<path d="M585.859 172.854C586.547 184.262 587.459 190.903 582.483 197.367C574.914 207.079 560.258 203.463 556.162 192.455C552.482 182.534 551.986 165.542 562.562 159.782C564.907 158.507 567.536 157.847 570.205 157.864C572.874 157.882 575.495 158.576 577.822 159.882C580.15 161.188 582.108 163.063 583.513 165.332C584.919 167.601 585.726 170.189 585.859 172.854Z" fill="#E4897B"/>
<path d="M577.858 166.646V153.846C577.858 153.846 591.427 152.838 590.819 159.782C598.339 163.51 594.787 175.206 584.69 180.934C579.154 176.502 579.794 165.846 579.794 165.846C579.202 166.15 578.53 166.406 577.858 166.646Z" fill="#263238"/>
<path d="M591.379 181.75C591.117 183.146 590.579 184.475 589.796 185.659C589.013 186.844 588 187.859 586.819 188.647C583.618 190.743 580.85 188.167 580.738 184.566C580.642 181.366 582.162 176.31 585.842 175.67C586.647 175.545 587.471 175.621 588.239 175.892C589.008 176.162 589.697 176.619 590.245 177.222C590.794 177.824 591.184 178.553 591.382 179.343C591.58 180.134 591.579 180.961 591.379 181.75Z" fill="#E4897B"/>
<path d="M569.01 177.942C569.122 178.87 568.722 179.67 568.114 179.734C567.506 179.798 566.93 179.11 566.818 178.134C566.706 177.158 567.106 176.406 567.698 176.342C568.29 176.278 568.898 176.95 569.01 177.942Z" fill="#263238"/>
<path d="M558.546 179.11C558.658 180.038 558.258 180.838 557.65 180.902C557.042 180.966 556.466 180.278 556.354 179.302C556.242 178.326 556.642 177.574 557.25 177.51C557.858 177.446 558.402 178.182 558.546 179.11Z" fill="#263238"/>
<path d="M561.922 179.19C561.114 182.051 559.913 184.787 558.354 187.318C559.044 187.673 559.801 187.878 560.576 187.919C561.351 187.961 562.126 187.838 562.85 187.559L561.922 179.19Z" fill="#DE5753"/>
<path d="M568.242 190.535C567.848 190.635 567.447 190.71 567.042 190.759C566.97 190.759 566.901 190.73 566.85 190.679C566.799 190.628 566.77 190.559 566.77 190.487C566.77 190.414 566.799 190.345 566.85 190.294C566.901 190.243 566.97 190.215 567.042 190.215C568.191 190.11 569.3 189.737 570.278 189.126C571.256 188.514 572.077 187.682 572.674 186.694C572.688 186.662 572.708 186.633 572.734 186.609C572.759 186.585 572.789 186.566 572.822 186.554C572.856 186.542 572.891 186.537 572.926 186.539C572.961 186.541 572.995 186.551 573.026 186.566C573.059 186.582 573.089 186.604 573.113 186.631C573.137 186.658 573.156 186.689 573.168 186.724C573.18 186.758 573.185 186.794 573.182 186.83C573.18 186.867 573.171 186.902 573.154 186.935C572.631 187.843 571.924 188.633 571.078 189.253C570.232 189.873 569.266 190.309 568.242 190.535Z" fill="#263238"/>
<path d="M571.826 174.214C571.729 174.237 571.628 174.234 571.533 174.206C571.438 174.178 571.351 174.126 571.282 174.054C570.819 173.547 570.244 173.154 569.602 172.906C568.961 172.659 568.27 172.565 567.586 172.63C567.516 172.647 567.442 172.648 567.371 172.635C567.3 172.622 567.232 172.594 567.172 172.553C567.112 172.513 567.061 172.46 567.022 172.399C566.983 172.338 566.957 172.27 566.946 172.198C566.932 172.128 566.932 172.055 566.947 171.985C566.961 171.915 566.989 171.848 567.029 171.788C567.069 171.729 567.121 171.678 567.181 171.638C567.24 171.599 567.308 171.572 567.378 171.558C568.242 171.455 569.118 171.56 569.933 171.863C570.748 172.167 571.48 172.66 572.066 173.302C572.119 173.352 572.16 173.411 572.189 173.477C572.217 173.543 572.232 173.614 572.232 173.686C572.232 173.758 572.217 173.829 572.189 173.895C572.16 173.961 572.119 174.021 572.066 174.07C571.998 174.135 571.916 174.185 571.826 174.214Z" fill="#263238"/>
<path d="M553.602 176.022C553.499 176.062 553.385 176.062 553.282 176.022C553.147 175.975 553.035 175.876 552.972 175.747C552.909 175.619 552.9 175.47 552.946 175.334C553.21 174.511 553.67 173.763 554.286 173.156C554.901 172.549 555.655 172.099 556.482 171.846C556.622 171.81 556.771 171.831 556.895 171.905C557.02 171.978 557.11 172.098 557.146 172.238C557.182 172.378 557.161 172.527 557.088 172.652C557.014 172.776 556.894 172.866 556.754 172.902C556.1 173.104 555.505 173.463 555.022 173.949C554.54 174.434 554.184 175.031 553.986 175.686C553.956 175.77 553.904 175.845 553.837 175.904C553.77 175.963 553.689 176.003 553.602 176.022Z" fill="#263238"/>
<path d="M583.874 171.382C583.874 171.382 575.874 168.454 572.226 163.814C572.226 163.814 564.962 165.718 563.474 168.614C562.795 168.033 562.356 167.22 562.241 166.334C562.125 165.448 562.342 164.55 562.85 163.814C562.85 163.814 557.41 164.966 556.338 168.614C555.454 168.193 554.728 167.5 554.267 166.636C553.807 165.772 553.635 164.783 553.778 163.814C553.778 163.814 551.362 164.726 550.578 168.614C550.578 168.614 544.578 156.102 564.402 152.518C562.902 152.009 561.33 151.744 559.746 151.734C559.746 151.734 573.586 146.15 584.546 151.254C595.507 156.358 593.603 166.246 583.874 171.382Z" fill="#263238"/>
<path d="M633.603 322.552L614.403 325.112C614.403 325.112 606.483 269.768 602.995 251.895V213.751L613.027 211.111L620.803 213.751C622.936 221.425 624.576 229.228 625.715 237.111C626.659 243.095 627.507 249.495 628.259 255.975C629.299 264.808 630.163 273.8 630.899 282.216C632.051 295.8 632.819 307.816 633.235 315.16C633.475 319.768 633.603 322.552 633.603 322.552Z" fill="#407BFF"/>
<path d="M603.011 251.863C603.011 251.863 604.611 224.935 613.043 211.047C613.043 211.047 612.835 207.079 611.155 206.439C609.475 205.799 603.011 209.639 603.011 209.639C603.011 209.639 598.995 206.887 598.115 208.167C597.235 209.447 595.091 217.959 603.011 251.863Z" fill="#407BFF"/>
<path opacity="0.7" d="M603.011 251.863C603.011 251.863 604.611 224.935 613.043 211.047C613.043 211.047 612.835 207.079 611.155 206.439C609.475 205.799 603.011 209.639 603.011 209.639C603.011 209.639 598.995 206.887 598.115 208.167C597.235 209.447 595.091 217.959 603.011 251.863Z" fill="white"/>
<path d="M559.362 329.928L561.554 331.528C561.554 331.528 558.354 313.688 559.666 268.568C559.666 266.392 559.81 264.296 559.89 262.296C561.49 224.119 567.442 217.175 567.89 216.759L562.354 218.647L552.322 222.103C549.298 254.663 559.362 329.928 559.362 329.928Z" fill="#407BFF"/>
<path d="M560.226 255.719C560.226 255.719 554.69 229.543 556.338 220.519C557.986 211.495 563.89 215.511 563.89 215.511C563.89 215.511 569.314 211.127 570.93 215.959C570.93 215.959 563.474 221.207 560.226 255.719Z" fill="#407BFF"/>
<path opacity="0.7" d="M560.226 255.719C560.226 255.719 554.69 229.543 556.338 220.519C557.986 211.495 563.89 215.511 563.89 215.511C563.89 215.511 569.314 211.127 570.93 215.959C570.93 215.959 563.474 221.207 560.226 255.719Z" fill="white"/>
<path opacity="0.2" d="M628.227 255.911C620.035 251.319 618.947 239.335 618.947 239.335C619.443 239.143 622.483 238.103 625.683 237.047C626.627 243.031 627.475 249.431 628.227 255.911Z" fill="black"/>
<path opacity="0.2" d="M588.163 411.449L595.059 373.929L593.731 354.073C593.731 354.073 584.275 388.505 588.163 411.449Z" fill="black"/>
<path opacity="0.2" d="M633.203 315.096C628.051 314.744 623.603 314.408 623.603 314.408L622.627 293.464C624.233 292.459 626.161 292.104 628.019 292.472C629.285 289.126 630.244 285.672 630.883 282.152C632.003 295.736 632.787 307.768 633.203 315.096Z" fill="black"/>
<path d="M634.963 282.136L624.931 298.248L632.867 302.808L642.291 288.296L634.963 282.136Z" fill="#E4897B"/>
<path d="M620.371 213.495C627.123 214.231 655.827 253.623 657.091 265.496C658.355 277.368 640.227 297.864 640.227 297.864L628.131 290.744C628.131 290.744 640.419 271.848 641.059 266.744C641.699 261.64 618.579 241.015 618.579 241.015C616.831 236.264 615.869 231.26 615.731 226.199C615.411 217.527 620.371 213.495 620.371 213.495Z" fill="#407BFF"/>
<path d="M622.611 293.48C622.611 293.48 632.931 295.688 637.091 302.184C637.091 302.184 632.771 315.704 629.683 317.176C626.595 318.648 618.947 318.648 618.947 318.648C618.947 318.648 618.451 303.608 622.611 293.48Z" fill="#407BFF"/>
</svg>
